<svg xmlns="http://www.w3.org/2000/svg" viewBox="0 0 19.34 19.34"><defs><style>.cls-1{fill:none;stroke:#182b30;stroke-miterlimit:10;}</style></defs><title>Instagram</title><g id="Layer_2" data-name="Layer 2"><g id="Layer_1-2" data-name="Layer 1"><path class="cls-1" d="M13.46,18.84H5.88A5.39,5.39,0,0,1,.5,13.46V5.88A5.39,5.39,0,0,1,5.88.5h7.58a5.39,5.39,0,0,1,5.38,5.38v7.58A5.39,5.39,0,0,1,13.46,18.84Z"/><path class="cls-1" d="M9.61,14a4.34,4.34,0,1,1,4.52-4.16A4.34,4.34,0,0,1,9.61,14Z"/><path class="cls-1" d="M14.48,2.8a.87.87,0,1,0,.87.87A.87.87,0,0,0,14.48,2.8Z"/></g></g></svg>