<svg xmlns="http://www.w3.org/2000/svg" viewBox="0 0 295.41 76.81"><defs><style>.cls-1{fill:#182b30;}</style></defs><title>Logo</title><g id="Layer_2" data-name="Layer 2"><g id="Layer_1-2" data-name="Layer 1"><path class="cls-1" d="M56.68,37h2.4a5.16,5.16,0,0,1,1.68.27,4.09,4.09,0,0,1,1.37.79,3.65,3.65,0,0,1,.93,1.25A4,4,0,0,1,63.39,41a4.84,4.84,0,0,1-.3,1.79,3.35,3.35,0,0,1-.86,1.29,3.77,3.77,0,0,1-1.36.77,5.79,5.79,0,0,1-1.79.26h-2.4Zm1.16,7.09h1.22a4.41,4.41,0,0,0,1.33-.18,2.52,2.52,0,0,0,1-.56,2.49,2.49,0,0,0,.6-1,4,4,0,0,0,.2-1.36,3.36,3.36,0,0,0-.23-1.27,2.69,2.69,0,0,0-.63-.94,2.62,2.62,0,0,0-.94-.59A3.26,3.26,0,0,0,59.2,38H57.85Z"/><path class="cls-1" d="M69.63,44.89,69.3,45l-.4.13a4.42,4.42,0,0,1-.5.1,4.73,4.73,0,0,1-.64,0A3.75,3.75,0,0,1,66.4,45a2.57,2.57,0,0,1-1-.66,2.61,2.61,0,0,1-.56-1,4.28,4.28,0,0,1-.19-1.31,3.44,3.44,0,0,1,.2-1.2,2.79,2.79,0,0,1,.56-.95,2.57,2.57,0,0,1,.87-.62,2.93,2.93,0,0,1,1.14-.22,2.68,2.68,0,0,1,1.24.26,2.15,2.15,0,0,1,.81.7A3.07,3.07,0,0,1,70,41.09a6.46,6.46,0,0,1,.13,1.33H65.86a2,2,0,0,0,.58,1.42,2,2,0,0,0,.62.41,2,2,0,0,0,.74.14,2.39,2.39,0,0,0,.56-.06,4.59,4.59,0,0,0,.53-.15,3.56,3.56,0,0,0,.44-.2,1.39,1.39,0,0,0,.3-.19Zm-.71-3.29a2,2,0,0,0-.1-.64,1.57,1.57,0,0,0-.29-.52,1.37,1.37,0,0,0-.46-.36,1.49,1.49,0,0,0-.63-.13,1.44,1.44,0,0,0-1.17.54A1.86,1.86,0,0,0,66,41a2.73,2.73,0,0,0-.13.58Z"/><path class="cls-1" d="M71.89,39.63a4.14,4.14,0,0,1,.9-.4,3.47,3.47,0,0,1,1.05-.16,2.34,2.34,0,0,1,1.83.62,2.67,2.67,0,0,1,.55,1.83V44c0,.34,0,.6,0,.77a2.55,2.55,0,0,0,0,.39h-1v-.77h0a2.4,2.4,0,0,1-.26.3,1.91,1.91,0,0,1-.39.3,2.64,2.64,0,0,1-.53.23,2.31,2.31,0,0,1-.67.09,3.48,3.48,0,0,1-.87-.1,1.84,1.84,0,0,1-.69-.33,1.48,1.48,0,0,1-.45-.57,2,2,0,0,1-.16-.83,1.7,1.7,0,0,1,.08-.51,1.39,1.39,0,0,1,.2-.42,1.44,1.44,0,0,1,.3-.34,2,2,0,0,1,.38-.26,2.94,2.94,0,0,1,.9-.32,4.5,4.5,0,0,1,.91-.1h.85l.31,0a1.76,1.76,0,0,0-.32-1.15,1.39,1.39,0,0,0-1.15-.4,2.86,2.86,0,0,0-1.72.6Zm3.24,2.68h-1l-.31,0a2.37,2.37,0,0,0-.68.14,1.49,1.49,0,0,0-.57.34.91.91,0,0,0-.14,1,1,1,0,0,0,.27.31,1.25,1.25,0,0,0,.36.18,1.19,1.19,0,0,0,.38.07,1.59,1.59,0,0,0,1.23-.45,1.57,1.57,0,0,0,.42-1.11Z"/><path class="cls-1" d="M78.13,39.21h1.05v.94h0a1.69,1.69,0,0,1,.77-.79,2.42,2.42,0,0,1,1.17-.29,2,2,0,0,1,1.68.68,2.93,2.93,0,0,1,.53,1.86v3.52H82.27V42.06A3.53,3.53,0,0,0,82,40.51,1.08,1.08,0,0,0,81,40a1.75,1.75,0,0,0-.82.18,1.58,1.58,0,0,0-.56.5,2.21,2.21,0,0,0-.32.77,4.27,4.27,0,0,0-.1,1v2.74H78.13Z"/><path class="cls-1" d="M84.83,44a3.12,3.12,0,0,0,.35.19,2.83,2.83,0,0,0,.37.13l.35.08.29,0a1.88,1.88,0,0,0,.38,0,1,1,0,0,0,.36-.14.85.85,0,0,0,.27-.26.74.74,0,0,0,.1-.41.63.63,0,0,0-.11-.35,1.32,1.32,0,0,0-.29-.28,3.15,3.15,0,0,0-.41-.24L86,42.44l-.47-.26a2.25,2.25,0,0,1-.41-.32,1.51,1.51,0,0,1-.29-.42,1.26,1.26,0,0,1-.11-.55,1.86,1.86,0,0,1,.16-.8,1.53,1.53,0,0,1,.44-.57,1.83,1.83,0,0,1,.66-.34,3.05,3.05,0,0,1,.82-.11,3.31,3.31,0,0,1,.71.07l.65.16-.09,1a1.34,1.34,0,0,0-.25-.11l-.33-.1L87.2,40l-.25,0a1.48,1.48,0,0,0-.74.18.58.58,0,0,0-.31.54.68.68,0,0,0,.11.39,1.12,1.12,0,0,0,.29.29,3,3,0,0,0,.41.23l.47.22.47.25a1.86,1.86,0,0,1,.41.32,1.41,1.41,0,0,1,.41,1.06,1.8,1.8,0,0,1-.18.83,1.7,1.7,0,0,1-.46.57,2,2,0,0,1-.66.34,2.63,2.63,0,0,1-.77.11,6.08,6.08,0,0,1-.83-.06,2.65,2.65,0,0,1-.79-.27Z"/><path class="cls-1" d="M89.85,36.42h1.09v3.64h0a2.07,2.07,0,0,1,.79-.74,2.37,2.37,0,0,1,1.12-.25,2,2,0,0,1,1.68.68,2.89,2.89,0,0,1,.54,1.86v3.52H94V42.06a3.49,3.49,0,0,0-.27-1.55,1.09,1.09,0,0,0-1-.56,1.74,1.74,0,0,0-.81.18,1.53,1.53,0,0,0-.56.5,2.22,2.22,0,0,0-.33.77,4.12,4.12,0,0,0-.1,1v2.74H89.85Z"/><path class="cls-1" d="M98.3,37.89H97.07V36.66H98.3Zm-1.16,1.33h1.09v5.92H97.14Z"/><path class="cls-1" d="M100.29,39.21h1V40h0a2.08,2.08,0,0,1,.29-.34,2,2,0,0,1,.43-.31,2.71,2.71,0,0,1,.58-.23,2.66,2.66,0,0,1,.71-.09,2.42,2.42,0,0,1,1.12.24,2.29,2.29,0,0,1,.8.66,3,3,0,0,1,.48,1,4.06,4.06,0,0,1,.16,1.14,5,5,0,0,1-.14,1.19,3.18,3.18,0,0,1-.46,1,2.26,2.26,0,0,1-1.94,1,2.48,2.48,0,0,1-1.26-.27,2.25,2.25,0,0,1-.72-.68h0v3.25h-1.09Zm4.47,2.94a3.61,3.61,0,0,0-.08-.79,2.35,2.35,0,0,0-.29-.71,1.5,1.5,0,0,0-.51-.5,1.38,1.38,0,0,0-.75-.2,1.55,1.55,0,0,0-.77.19,1.67,1.67,0,0,0-.55.51,2.26,2.26,0,0,0-.32.72,3,3,0,0,0-.11.82,3.22,3.22,0,0,0,.1.76,2.22,2.22,0,0,0,.31.71,1.62,1.62,0,0,0,.54.53,1.49,1.49,0,0,0,.8.21,1.29,1.29,0,0,0,.52-.1,1.43,1.43,0,0,0,.42-.27,1.77,1.77,0,0,0,.32-.4,2.3,2.3,0,0,0,.21-.48,2.61,2.61,0,0,0,.12-.5,2.85,2.85,0,0,0,0-.49"/><path class="cls-1" d="M110.32,42.17a3.42,3.42,0,0,1,.22-1.25,3,3,0,0,1,.61-1,2.82,2.82,0,0,1,1-.64,3.21,3.21,0,0,1,1.24-.24,3.15,3.15,0,0,1,1.23.24,2.75,2.75,0,0,1,.95.64,2.86,2.86,0,0,1,.62,1,3.52,3.52,0,0,1,.21,1.25,3.33,3.33,0,0,1-.22,1.2,3.14,3.14,0,0,1-.62,1,2.87,2.87,0,0,1-.95.67,3,3,0,0,1-1.22.25,3,3,0,0,1-1.22-.25,2.9,2.9,0,0,1-1-.67,3,3,0,0,1-.62-1,3.19,3.19,0,0,1-.22-1.2m1.17,0a3,3,0,0,0,.11.79,2.25,2.25,0,0,0,.34.71,1.81,1.81,0,0,0,.58.52,1.84,1.84,0,0,0,1.66,0,1.78,1.78,0,0,0,.57-.52,2.22,2.22,0,0,0,.33-.71,3,3,0,0,0,.11-.79,2.88,2.88,0,0,0-.12-.82,2.2,2.2,0,0,0-.37-.71,1.87,1.87,0,0,0-.58-.5,1.56,1.56,0,0,0-.78-.19,1.61,1.61,0,0,0-.78.19,1.89,1.89,0,0,0-.58.5,2.41,2.41,0,0,0-.36.71,2.64,2.64,0,0,0-.13.82"/><path class="cls-1" d="M118.58,40.09h-1.39v-.88h1.39v-.55a5.38,5.38,0,0,1,.08-1,2,2,0,0,1,.3-.75,1.43,1.43,0,0,1,.61-.48,2.53,2.53,0,0,1,1-.17l.39,0,.35,0,0,.88a1.13,1.13,0,0,0-.24,0l-.28,0a1.2,1.2,0,0,0-.56.11.8.8,0,0,0-.32.29,1.3,1.3,0,0,0-.14.45,3.51,3.51,0,0,0,0,.56v.64h1.57v.88h-1.57v5h-1.09Z"/><polygon class="cls-1" points="125.89 37.02 130.43 37.02 130.43 38.05 127.05 38.05 127.05 40.42 130.13 40.42 130.13 41.44 127.05 41.44 127.05 44.11 130.43 44.11 130.43 45.13 125.89 45.13 125.89 37.02"/><rect class="cls-1" x="131.76" y="41.57" width="2.98" height="0.88"/><polygon class="cls-1" points="136.26 37.02 137.42 37.02 137.42 44.11 140.81 44.11 140.81 45.13 136.26 45.13 136.26 37.02"/><path class="cls-1" d="M146.57,44.89l-.34.12-.39.13a4.07,4.07,0,0,1-1.14.14,3.67,3.67,0,0,1-1.36-.23,2.53,2.53,0,0,1-1-.66,2.65,2.65,0,0,1-.56-1,4.36,4.36,0,0,1-.18-1.31,3.43,3.43,0,0,1,.2-1.2,2.68,2.68,0,0,1,.56-.95,2.55,2.55,0,0,1,.88-.62,2.88,2.88,0,0,1,1.14-.22,2.69,2.69,0,0,1,1.24.26,2.05,2.05,0,0,1,.8.7,3,3,0,0,1,.44,1.06,6.47,6.47,0,0,1,.13,1.33H142.8a2,2,0,0,0,.16.8,2,2,0,0,0,.43.62,2,2,0,0,0,1.37.55,2.37,2.37,0,0,0,.56-.06,4.79,4.79,0,0,0,.53-.15,3.76,3.76,0,0,0,.44-.2,1.38,1.38,0,0,0,.3-.19Zm-.71-3.29a1.94,1.94,0,0,0-.1-.64,1.57,1.57,0,0,0-.29-.52,1.38,1.38,0,0,0-.46-.36,1.49,1.49,0,0,0-.63-.13,1.45,1.45,0,0,0-.69.15,1.4,1.4,0,0,0-.47.39,1.81,1.81,0,0,0-.29.53,3.11,3.11,0,0,0-.14.58Z"/><path class="cls-1" d="M148.82,39.63a4.25,4.25,0,0,1,.9-.4,3.49,3.49,0,0,1,1.06-.16,2.32,2.32,0,0,1,1.82.62,2.65,2.65,0,0,1,.56,1.83V44c0,.34,0,.6,0,.77a3.79,3.79,0,0,0,0,.39h-1v-.77h0a1.86,1.86,0,0,1-.26.3,1.88,1.88,0,0,1-.39.3,2.52,2.52,0,0,1-.53.23,2.23,2.23,0,0,1-.66.09,3.5,3.5,0,0,1-.87-.1,1.82,1.82,0,0,1-.69-.33,1.47,1.47,0,0,1-.45-.57,2,2,0,0,1-.16-.83,1.72,1.72,0,0,1,.07-.51,1.52,1.52,0,0,1,.19-.42,1.55,1.55,0,0,1,.31-.34,2.1,2.1,0,0,1,.38-.26,3,3,0,0,1,.9-.32,4.51,4.51,0,0,1,.9-.1h.86l.31,0a1.77,1.77,0,0,0-.32-1.15,1.41,1.41,0,0,0-1.15-.4,2.73,2.73,0,0,0-.92.16,2.76,2.76,0,0,0-.8.44Zm3.24,2.68h-.95l-.32,0a2.41,2.41,0,0,0-.68.14,1.53,1.53,0,0,0-.57.34.83.83,0,0,0-.24.62.77.77,0,0,0,.11.41,1,1,0,0,0,.26.31,1.2,1.2,0,0,0,.36.18,1.25,1.25,0,0,0,.38.07,1.49,1.49,0,0,0,1.64-1.56Z"/><path class="cls-1" d="M155.06,39.21h1v.91h0a1.94,1.94,0,0,1,.65-.76,1.55,1.55,0,0,1,.9-.29l.39,0,.32.06v1a1.7,1.7,0,0,0-.31-.08l-.3,0a1.35,1.35,0,0,0-1.17.65,3.09,3.09,0,0,0-.44,1.76v2.69h-1.09Z"/><path class="cls-1" d="M159.64,39.21h1.06v.94h0a1.7,1.7,0,0,1,.78-.79,2.4,2.4,0,0,1,1.16-.29,2,2,0,0,1,1.68.68,2.91,2.91,0,0,1,.53,1.86v3.52h-1.09V42.06a3.51,3.51,0,0,0-.27-1.55,1.08,1.08,0,0,0-1-.56,1.73,1.73,0,0,0-.81.18,1.56,1.56,0,0,0-.56.5,2.26,2.26,0,0,0-.33.77,4.6,4.6,0,0,0-.1,1v2.74h-1.09Z"/><path class="cls-1" d="M168.09,37.89h-1.23V36.66h1.23Zm-1.16,1.33H168v5.92h-1.09Z"/><path class="cls-1" d="M170.07,39.21h1.06v.94h0a1.72,1.72,0,0,1,.78-.79,2.41,2.41,0,0,1,1.17-.29,2,2,0,0,1,1.69.68,2.94,2.94,0,0,1,.53,1.86v3.52h-1.09V42.06a3.53,3.53,0,0,0-.27-1.55,1.08,1.08,0,0,0-1-.56,1.74,1.74,0,0,0-.81.18,1.52,1.52,0,0,0-.56.5,2.26,2.26,0,0,0-.33.77,4.43,4.43,0,0,0-.11,1v2.74h-1.09Z"/><path class="cls-1" d="M182.46,44.88a2.83,2.83,0,0,1-.73,2.09,3.12,3.12,0,0,1-2.32.75l-.46,0-.48-.06a4.88,4.88,0,0,1-.55-.12c-.19-.05-.41-.12-.64-.21l.12-1,.57.24a4.86,4.86,0,0,0,.5.17,4.19,4.19,0,0,0,.5.1,5.12,5.12,0,0,0,.56,0,1.71,1.71,0,0,0,1.36-.55,2.14,2.14,0,0,0,.48-1.48v-.58h0a2.14,2.14,0,0,1-.89.69,2.78,2.78,0,0,1-1.1.23,2.45,2.45,0,0,1-1.12-.24,2.2,2.2,0,0,1-.79-.64,2.66,2.66,0,0,1-.47-.93,3.9,3.9,0,0,1-.15-1.1,4,4,0,0,1,.08-.76,3.88,3.88,0,0,1,.22-.73,3.06,3.06,0,0,1,.37-.66,2.43,2.43,0,0,1,.51-.52,2.25,2.25,0,0,1,.66-.35,2.49,2.49,0,0,1,.81-.13,3.19,3.19,0,0,1,.7.07,1.9,1.9,0,0,1,.54.2,1.53,1.53,0,0,1,.41.32,1.71,1.71,0,0,1,.29.43h0v-.88h1Zm-2.82-.63a1.57,1.57,0,0,0,.7-.15,1.62,1.62,0,0,0,.55-.43,2,2,0,0,0,.35-.64,2.33,2.33,0,0,0,.13-.78,3.45,3.45,0,0,0-.1-.87,2.31,2.31,0,0,0-.33-.73,1.59,1.59,0,0,0-.54-.5,1.5,1.5,0,0,0-.75-.18,1.31,1.31,0,0,0-.72.2,1.68,1.68,0,0,0-.52.52,2.23,2.23,0,0,0-.31.71,3,3,0,0,0-.1.77,2.6,2.6,0,0,0,.11.79,2.14,2.14,0,0,0,.32.67,1.63,1.63,0,0,0,.52.45,1.38,1.38,0,0,0,.69.17"/><path class="cls-1" d="M194.26,40.76a6.41,6.41,0,0,1-.12.89,4.89,4.89,0,0,1-.48,1.34c-.11.19-.22.37-.33.54l1.41,1.6h-1.45l-.66-.79a2.83,2.83,0,0,1-.46.42,2.29,2.29,0,0,1-.52.29,2.74,2.74,0,0,1-.61.17,5.13,5.13,0,0,1-.72.05,3.39,3.39,0,0,1-1.09-.16,2.29,2.29,0,0,1-.82-.46,2.06,2.06,0,0,1-.52-.72,2.37,2.37,0,0,1-.18-.93,2.13,2.13,0,0,1,.49-1.47,3.57,3.57,0,0,1,1.32-.9,6.82,6.82,0,0,1-.58-.83,2.2,2.2,0,0,1-.09-1.86,1.65,1.65,0,0,1,.45-.6A1.85,1.85,0,0,1,190,37a2.84,2.84,0,0,1,.83-.11,2.56,2.56,0,0,1,.76.11,1.83,1.83,0,0,1,.64.33,1.6,1.6,0,0,1,.44.57,2,2,0,0,1,.17.83,1.67,1.67,0,0,1-.16.7,2.26,2.26,0,0,1-.41.59,3.18,3.18,0,0,1-.57.47,4.56,4.56,0,0,1-.64.34l1.65,1.88a3.52,3.52,0,0,0,.2-.39,3.89,3.89,0,0,0,.14-.42c0-.15.07-.32.1-.51s0-.4.07-.64Zm-5.33,2.17a1.37,1.37,0,0,0,.13.6,1.47,1.47,0,0,0,.35.47,1.58,1.58,0,0,0,.51.29,1.72,1.72,0,0,0,.61.11,1.64,1.64,0,0,0,.52-.08,1.77,1.77,0,0,0,.41-.2,2.22,2.22,0,0,0,.32-.25l.24-.24-2-2.29-.43.32a2.45,2.45,0,0,0-.37.34,1.93,1.93,0,0,0-.25.42,1.41,1.41,0,0,0-.09.53m.84-4.11a1.29,1.29,0,0,0,.22.74l.24.32.26.3a2.83,2.83,0,0,0,.39-.22,2.15,2.15,0,0,0,.4-.32,2,2,0,0,0,.31-.4,1,1,0,0,0,.12-.47.92.92,0,0,0-.28-.78,1,1,0,0,0-.69-.22A1,1,0,0,0,190,38a1,1,0,0,0-.28.78"/><path class="cls-1" d="M199.42,37h2.39a5.19,5.19,0,0,1,1.69.27,4.16,4.16,0,0,1,1.37.79,3.62,3.62,0,0,1,.92,1.25,4,4,0,0,1,.34,1.68,4.92,4.92,0,0,1-.3,1.79A3.39,3.39,0,0,1,205,44.1a3.77,3.77,0,0,1-1.36.77,5.83,5.83,0,0,1-1.8.26h-2.39Zm1.17,7.09h1.22a4.42,4.42,0,0,0,1.33-.18,2.58,2.58,0,0,0,1-.56,2.47,2.47,0,0,0,.59-1,4,4,0,0,0,.21-1.36,3.4,3.4,0,0,0-.23-1.27,2.65,2.65,0,0,0-1.57-1.53,3.25,3.25,0,0,0-1.17-.2h-1.35Z"/><path class="cls-1" d="M209.13,37.89H207.9V36.66h1.23ZM208,39.21h1.09v5.92H208Z"/><path class="cls-1" d="M210.67,44a2.84,2.84,0,0,0,.35.19,2.69,2.69,0,0,0,.37.13l.35.08.29,0a1.86,1.86,0,0,0,.38,0,1,1,0,0,0,.36-.14.86.86,0,0,0,.27-.26.77.77,0,0,0,.11-.41.6.6,0,0,0-.11-.35,1.36,1.36,0,0,0-.29-.28,3.09,3.09,0,0,0-.41-.24l-.47-.23-.47-.26a2.16,2.16,0,0,1-.41-.32,1.51,1.51,0,0,1-.29-.42,1.21,1.21,0,0,1-.11-.55,1.89,1.89,0,0,1,.16-.8,1.58,1.58,0,0,1,.44-.57,1.81,1.81,0,0,1,.66-.34,3.08,3.08,0,0,1,.83-.11,3.34,3.34,0,0,1,.71.07l.65.16-.09,1a1.3,1.3,0,0,0-.25-.11l-.33-.1L213,40l-.25,0a1.5,1.5,0,0,0-.74.18.57.57,0,0,0-.31.54.64.64,0,0,0,.11.39,1.09,1.09,0,0,0,.29.29,3.17,3.17,0,0,0,.42.23l.47.22.47.25a1.78,1.78,0,0,1,.41.32,1.53,1.53,0,0,1,.29.44,1.51,1.51,0,0,1,.11.62,1.8,1.8,0,0,1-.18.83,1.6,1.6,0,0,1-.46.57,2,2,0,0,1-.66.34,2.6,2.6,0,0,1-.77.11,6,6,0,0,1-.83-.06,2.62,2.62,0,0,1-.79-.27Z"/><path class="cls-1" d="M218.84,40.09h-1.57v3.24a1,1,0,0,0,.27.79.91.91,0,0,0,.65.27,1.36,1.36,0,0,0,.44-.07,1.44,1.44,0,0,0,.3-.15v.93l-.42.11a2.24,2.24,0,0,1-.51.05,2,2,0,0,1-1.33-.41,1.63,1.63,0,0,1-.49-1.31V40.09h-1.34v-.88h1.34V37.84l1.09-.35v1.72h1.57Z"/><path class="cls-1" d="M220.54,39.63a4.08,4.08,0,0,1,.9-.4,3.48,3.48,0,0,1,1.06-.16,2.34,2.34,0,0,1,1.83.62,2.66,2.66,0,0,1,.55,1.83V44c0,.34,0,.6,0,.77a2.76,2.76,0,0,0,0,.39h-1v-.77h0a1.85,1.85,0,0,1-.25.3,2,2,0,0,1-.39.3,2.71,2.71,0,0,1-.52.23,2.35,2.35,0,0,1-.67.09,3.55,3.55,0,0,1-.88-.1,1.81,1.81,0,0,1-.69-.33,1.44,1.44,0,0,1-.45-.57,2,2,0,0,1-.16-.83,1.72,1.72,0,0,1,.07-.51,1.42,1.42,0,0,1,.2-.42,1.4,1.4,0,0,1,.31-.34,1.89,1.89,0,0,1,.38-.26,2.91,2.91,0,0,1,.89-.32,4.51,4.51,0,0,1,.91-.1h.85l.3,0a1.75,1.75,0,0,0-.32-1.15,1.4,1.4,0,0,0-1.15-.4,2.86,2.86,0,0,0-1.72.6Zm3.24,2.68h-.95l-.32,0a2.42,2.42,0,0,0-.68.14,1.49,1.49,0,0,0-.57.34.91.91,0,0,0-.14,1,1,1,0,0,0,.26.31,1.34,1.34,0,0,0,.36.18,1.24,1.24,0,0,0,.38.07,1.57,1.57,0,0,0,1.22-.45,1.59,1.59,0,0,0,.42-1.11Z"/><path class="cls-1" d="M226.78,39.21h1v.94h0a1.72,1.72,0,0,1,.78-.79,2.4,2.4,0,0,1,1.16-.29,2,2,0,0,1,1.68.68,2.91,2.91,0,0,1,.53,1.86v3.52h-1.09V42.06a3.54,3.54,0,0,0-.27-1.55,1.08,1.08,0,0,0-1-.56,1.73,1.73,0,0,0-.81.18,1.54,1.54,0,0,0-.56.5,2.4,2.4,0,0,0-.33.77,4.53,4.53,0,0,0-.11,1v2.74h-1.08Z"/><path class="cls-1" d="M237.69,40.21a3.22,3.22,0,0,0-.61-.19,2.75,2.75,0,0,0-.58-.07,1.64,1.64,0,0,0-.8.19,1.89,1.89,0,0,0-.6.5,2.19,2.19,0,0,0-.37.71,2.65,2.65,0,0,0-.13.82,2.87,2.87,0,0,0,.11.79,2,2,0,0,0,.35.71,1.81,1.81,0,0,0,.61.52,2,2,0,0,0,.91.2,2.3,2.3,0,0,0,.59-.09,2.12,2.12,0,0,0,.57-.24l.09,1a2.42,2.42,0,0,1-.71.2,5.46,5.46,0,0,1-.67,0,3,3,0,0,1-2.18-.91,3.12,3.12,0,0,1-.62-1,3.25,3.25,0,0,1-.22-1.2,3.42,3.42,0,0,1,.22-1.25,3,3,0,0,1,.61-1,2.81,2.81,0,0,1,1-.64,3.18,3.18,0,0,1,1.24-.23,3.72,3.72,0,0,1,.71.08,2.75,2.75,0,0,1,.61.16Z"/><path class="cls-1" d="M243.68,44.89l-.33.12-.4.13a4.59,4.59,0,0,1-.5.1,4.79,4.79,0,0,1-.64,0,3.66,3.66,0,0,1-1.35-.23,2.47,2.47,0,0,1-1-.66,2.59,2.59,0,0,1-.57-1,4.57,4.57,0,0,1-.18-1.31,3.49,3.49,0,0,1,.2-1.2,2.75,2.75,0,0,1,.57-.95,2.58,2.58,0,0,1,.87-.62,2.93,2.93,0,0,1,1.14-.22,2.68,2.68,0,0,1,1.24.26,2.07,2.07,0,0,1,.8.7,3,3,0,0,1,.43,1.06,6.41,6.41,0,0,1,.13,1.33h-4.23a1.93,1.93,0,0,0,1.21,1.83,1.94,1.94,0,0,0,.74.14,2.41,2.41,0,0,0,.56-.06,4.63,4.63,0,0,0,.53-.15,3.74,3.74,0,0,0,.44-.2,1.3,1.3,0,0,0,.29-.19ZM243,41.6a2,2,0,0,0-.1-.64,1.65,1.65,0,0,0-.29-.52,1.34,1.34,0,0,0-.46-.36,1.61,1.61,0,0,0-1.32,0,1.39,1.39,0,0,0-.47.39A1.66,1.66,0,0,0,240,41a2.66,2.66,0,0,0-.14.58Z"/><polygon class="cls-1" points="249.03 37.02 250.2 37.02 250.2 44.11 253.59 44.11 253.59 45.13 249.03 45.13 249.03 37.02"/><path class="cls-1" d="M259.35,44.89,259,45l-.39.13-.5.1a4.73,4.73,0,0,1-.64,0,3.68,3.68,0,0,1-1.36-.23,2.48,2.48,0,0,1-1-.66,2.58,2.58,0,0,1-.57-1,4.37,4.37,0,0,1-.18-1.31,3.45,3.45,0,0,1,.2-1.2,2.67,2.67,0,0,1,.56-.95,2.53,2.53,0,0,1,.88-.62,2.88,2.88,0,0,1,1.14-.22,2.66,2.66,0,0,1,1.24.26,2.08,2.08,0,0,1,.8.7,3,3,0,0,1,.43,1.06,6.25,6.25,0,0,1,.13,1.33h-4.22a1.94,1.94,0,0,0,.16.8,1.93,1.93,0,0,0,1.79,1.17,2.38,2.38,0,0,0,.56-.06,5.13,5.13,0,0,0,.53-.15,3.55,3.55,0,0,0,.44-.2,1.54,1.54,0,0,0,.3-.19Zm-.71-3.29a2,2,0,0,0-.1-.64,1.58,1.58,0,0,0-.29-.52,1.35,1.35,0,0,0-.46-.36,1.48,1.48,0,0,0-.63-.13,1.44,1.44,0,0,0-.69.15,1.41,1.41,0,0,0-.48.39,1.77,1.77,0,0,0-.29.53,2.69,2.69,0,0,0-.14.58Z"/><path class="cls-1" d="M261.6,39.63a4.12,4.12,0,0,1,.89-.4,3.51,3.51,0,0,1,1.06-.16,2.33,2.33,0,0,1,1.82.62,2.66,2.66,0,0,1,.56,1.83V44c0,.34,0,.6,0,.77s0,.3,0,.39h-1v-.77h0a1.88,1.88,0,0,1-.25.3,2.19,2.19,0,0,1-.39.3,2.63,2.63,0,0,1-.52.23,2.29,2.29,0,0,1-.67.09,3.5,3.5,0,0,1-.88-.1,1.89,1.89,0,0,1-.69-.33,1.54,1.54,0,0,1-.45-.57,2,2,0,0,1-.16-.83,1.65,1.65,0,0,1,.08-.51,1.42,1.42,0,0,1,.2-.42,1.57,1.57,0,0,1,.3-.34,2.22,2.22,0,0,1,.38-.26,2.94,2.94,0,0,1,.89-.32,4.57,4.57,0,0,1,.91-.1h.86l.3,0a1.76,1.76,0,0,0-.31-1.15,1.41,1.41,0,0,0-1.15-.4,2.78,2.78,0,0,0-.92.16,2.72,2.72,0,0,0-.8.44Zm3.24,2.68h-.95l-.32,0a2.46,2.46,0,0,0-.68.14,1.48,1.48,0,0,0-.56.34.81.81,0,0,0-.24.62.79.79,0,0,0,.1.41,1,1,0,0,0,.26.31,1.39,1.39,0,0,0,.36.18,1.24,1.24,0,0,0,.38.07,1.59,1.59,0,0,0,1.23-.45,1.56,1.56,0,0,0,.42-1.11Z"/><path class="cls-1" d="M267.84,39.21h1v.91h0a1.93,1.93,0,0,1,.65-.76,1.54,1.54,0,0,1,.9-.29l.4,0,.32.06v1a1.77,1.77,0,0,0-.31-.08l-.29,0a1.36,1.36,0,0,0-1.18.65,3.12,3.12,0,0,0-.44,1.76v2.69h-1.09Z"/><path class="cls-1" d="M272.41,39.21h1.05v.94h0a1.7,1.7,0,0,1,.77-.79,2.43,2.43,0,0,1,1.17-.29,2,2,0,0,1,1.68.68,2.92,2.92,0,0,1,.54,1.86v3.52h-1.09V42.06a3.65,3.65,0,0,0-.26-1.55,1.1,1.1,0,0,0-1-.56,1.73,1.73,0,0,0-.81.18,1.5,1.5,0,0,0-.56.5,2.28,2.28,0,0,0-.33.77,4.27,4.27,0,0,0-.1,1v2.74h-1.09Z"/><path class="cls-1" d="M280.86,37.89h-1.23V36.66h1.23Zm-1.16,1.33h1.09v5.92H279.7Z"/><path class="cls-1" d="M282.85,39.21h1.05v.94h0a1.71,1.71,0,0,1,.78-.79,2.42,2.42,0,0,1,1.16-.29,2,2,0,0,1,1.68.68,2.91,2.91,0,0,1,.53,1.86v3.52H287V42.06a3.49,3.49,0,0,0-.27-1.55,1.07,1.07,0,0,0-1-.56,1.73,1.73,0,0,0-.81.18,1.56,1.56,0,0,0-.56.5,2.28,2.28,0,0,0-.32.77,4.22,4.22,0,0,0-.11,1v2.74h-1.08Z"/><path class="cls-1" d="M295.23,44.88A2.83,2.83,0,0,1,294.5,47a3.12,3.12,0,0,1-2.32.75l-.46,0-.48-.06a4.51,4.51,0,0,1-.54-.12c-.2-.05-.41-.12-.65-.21l.12-1,.57.24a4.9,4.9,0,0,0,.5.17,4.24,4.24,0,0,0,.5.1,5.16,5.16,0,0,0,.56,0,1.71,1.71,0,0,0,1.36-.55,2.13,2.13,0,0,0,.48-1.48v-.58h0a2.1,2.1,0,0,1-.88.69,2.77,2.77,0,0,1-1.1.23,2.44,2.44,0,0,1-1.12-.24,2.26,2.26,0,0,1-.79-.64,2.72,2.72,0,0,1-.47-.93,4,4,0,0,1-.15-1.1,4.07,4.07,0,0,1,.07-.76,3.67,3.67,0,0,1,.22-.73,3.36,3.36,0,0,1,.36-.66,2.5,2.5,0,0,1,.51-.52,2.3,2.3,0,0,1,.67-.35,2.47,2.47,0,0,1,.81-.13,3.14,3.14,0,0,1,.7.07,1.94,1.94,0,0,1,.55.2,1.69,1.69,0,0,1,.41.32,1.87,1.87,0,0,1,.29.43h0v-.88h1Zm-2.81-.63a1.58,1.58,0,0,0,1.25-.58A1.92,1.92,0,0,0,294,43a2.22,2.22,0,0,0,.13-.78,3.36,3.36,0,0,0-.11-.87,2.28,2.28,0,0,0-.32-.73,1.66,1.66,0,0,0-.55-.5,1.51,1.51,0,0,0-.75-.18,1.3,1.3,0,0,0-.72.2,1.71,1.71,0,0,0-.52.52,2.36,2.36,0,0,0-.31.71,2.9,2.9,0,0,0-.1.77,2.7,2.7,0,0,0,.11.79,2.15,2.15,0,0,0,.33.67,1.62,1.62,0,0,0,.52.45,1.38,1.38,0,0,0,.69.17"/><path class="cls-1" d="M56.8,25.24V24H59.1a3.76,3.76,0,0,0,.78-.06,1.25,1.25,0,0,0,.48-.16.59.59,0,0,0,.25-.27,1,1,0,0,0,.06-.36,1.75,1.75,0,0,0-.19-.75,4.29,4.29,0,0,0-.51-.78,7.34,7.34,0,0,0-.71-.77c-.26-.25-.52-.48-.79-.7l.9-.88a11.82,11.82,0,0,1,.87.84,8.66,8.66,0,0,1,.77.95,5.24,5.24,0,0,1,.55,1,2.59,2.59,0,0,1,.17,1.47,2.09,2.09,0,0,0,.75.36,3.79,3.79,0,0,0,1,.12h0a.67.67,0,0,1,.37.08.32.32,0,0,1,.12.28v.46A.49.49,0,0,1,64,25a.29.29,0,0,1-.11.12l-.15.06h-.26a4,4,0,0,1-.72-.06,2.92,2.92,0,0,1-.58-.17,2.06,2.06,0,0,1-.46-.26,2.66,2.66,0,0,1-.38-.32,1.94,1.94,0,0,1-.81.59,3.51,3.51,0,0,1-1.31.21Z"/><path class="cls-1" d="M66.21,24.84a.46.46,0,0,1,0,.21.25.25,0,0,1-.11.12.47.47,0,0,1-.15.06H63.4a.5.5,0,0,1-.16-.06.24.24,0,0,1-.11-.12.5.5,0,0,1,0-.21v-.46a.31.31,0,0,1,.12-.28.66.66,0,0,1,.36-.08h2.14a.68.68,0,0,1,.37.08.32.32,0,0,1,.12.28Z"/><path class="cls-1" d="M68.61,23.69a3.75,3.75,0,0,1-.58-.53c-.19-.21-.36-.42-.52-.64l-.44-.6a4.67,4.67,0,0,0-.32-.41,3,3,0,0,1,.08-.32c0-.12.07-.24.11-.35a3.16,3.16,0,0,1,.14-.3.44.44,0,0,1,.13-.17,5.33,5.33,0,0,1,.51-.24,5.39,5.39,0,0,1,.66-.23,7.74,7.74,0,0,1,.81-.18,5.6,5.6,0,0,1,.92-.07,3.82,3.82,0,0,1,.74.07,2.75,2.75,0,0,1,.67.21,1.5,1.5,0,0,1,.5.36.76.76,0,0,1,.19.52A2.76,2.76,0,0,1,72,22a5.33,5.33,0,0,1-.46.8,6.68,6.68,0,0,1-.81.95,1.61,1.61,0,0,0,.39.13c.15,0,.32.07.5.1l.6.06.66,0h.56a.72.72,0,0,1,.37.08.33.33,0,0,1,.11.28v.46a.49.49,0,0,1,0,.21.26.26,0,0,1-.11.12.44.44,0,0,1-.15.06h-1.1a5.35,5.35,0,0,1-1-.09,6.82,6.82,0,0,1-.85-.21,4.74,4.74,0,0,1-.65-.25c-.18-.09-.33-.17-.43-.23-.18.1-.38.2-.6.3a5.52,5.52,0,0,1-.69.25,6.47,6.47,0,0,1-.79.17,5.26,5.26,0,0,1-.86.07h-.87a.63.63,0,0,1-.36-.09.3.3,0,0,1-.12-.27v-.47a.45.45,0,0,1,0-.21.29.29,0,0,1,.1-.12.45.45,0,0,1,.15-.05h1.14c.24,0,.48,0,.69,0l.58-.07a2.61,2.61,0,0,0,.42-.1.78.78,0,0,0,.24-.12M71,21.47a.46.46,0,0,0-.1-.28.86.86,0,0,0-.28-.25,1.49,1.49,0,0,0-.44-.17,2.54,2.54,0,0,0-.59-.06,3.86,3.86,0,0,0-.83.1,4.66,4.66,0,0,0-1,.33,4,4,0,0,0,.28.45,7.08,7.08,0,0,0,.45.57,7.6,7.6,0,0,0,.55.58,3.72,3.72,0,0,0,.57.45,3.07,3.07,0,0,0,.57-.43,4,4,0,0,0,.44-.49,2.22,2.22,0,0,0,.27-.45.86.86,0,0,0,.1-.35"/><path class="cls-1" d="M73.4,25.24a.61.61,0,0,1-.36-.09.29.29,0,0,1-.12-.27v-.47a.46.46,0,0,1,0-.21.24.24,0,0,1,.1-.12.37.37,0,0,1,.15-.05h2.41V20h1.21v5.22Zm2.12,2a.69.69,0,0,1,.06-.28.77.77,0,0,1,.15-.23.75.75,0,0,1,.22-.16.65.65,0,0,1,.28-.06.64.64,0,0,1,.28.06.77.77,0,0,1,.23.16.74.74,0,0,1,.16.23.69.69,0,0,1,.06.28.69.69,0,0,1-.06.28.68.68,0,0,1-.16.23.72.72,0,0,1-.23.15.61.61,0,0,1-.28.06.7.7,0,0,1-.71-.72"/><path class="cls-1" d="M88.54,24a4.09,4.09,0,0,0,0-.47c0-.19-.05-.38-.09-.59s-.1-.41-.16-.63a5,5,0,0,0-.21-.58l1.19-.34c.05.14.1.28.15.45s.09.34.13.52.09.37.12.56.06.38.08.56a1.93,1.93,0,0,0,.75.38,3.75,3.75,0,0,0,1.05.12h.06a.71.71,0,0,1,.37.08.33.33,0,0,1,.11.28v.46A.47.47,0,0,1,92,25a.3.3,0,0,1-.11.12.48.48,0,0,1-.15.05h-.25a3.44,3.44,0,0,1-1.07-.14,2.61,2.61,0,0,1-.75-.37,4.42,4.42,0,0,1-.41,1.38,3.44,3.44,0,0,1-2,1.78,4.81,4.81,0,0,1-1.61.25A4.36,4.36,0,0,1,84,27.84a3.35,3.35,0,0,1-1.17-.79,3.24,3.24,0,0,1-.69-1.14,3.88,3.88,0,0,1-.23-1.35,4.32,4.32,0,0,1,.06-.69,5.53,5.53,0,0,1,.15-.7,4.85,4.85,0,0,1,.22-.64,4.2,4.2,0,0,1,.29-.55l1,.57a2.36,2.36,0,0,0-.2.39,3.92,3.92,0,0,0-.15.46,3.67,3.67,0,0,0-.09.49,3.3,3.3,0,0,0,0,.5,2.91,2.91,0,0,0,.17,1,2.26,2.26,0,0,0,.49.8,2.34,2.34,0,0,0,.81.54,2.81,2.81,0,0,0,1.1.2,3.26,3.26,0,0,0,1.19-.2,2.35,2.35,0,0,0,.87-.58,2.43,2.43,0,0,0,.54-.91,3.57,3.57,0,0,0,.2-1.22m-2.7-5.08a.69.69,0,0,1,.06-.28.7.7,0,0,1,.15-.23.77.77,0,0,1,.22-.16.74.74,0,0,1,.28-.05.75.75,0,0,1,.28.05.82.82,0,0,1,.23.16.72.72,0,0,1,.16.23.71.71,0,0,1-.16.79.76.76,0,0,1-.23.15.81.81,0,0,1-.28.05.7.7,0,0,1-.72-.72"/><path class="cls-1" d="M96.9,21.14l-.31-.07L96.23,21l-.37,0-.32,0a1.92,1.92,0,0,0-.48.07,1.17,1.17,0,0,0-.44.23,1.21,1.21,0,0,0-.34.43,1.49,1.49,0,0,0-.13.68,1.71,1.71,0,0,0,.13.67,1.55,1.55,0,0,0,.36.53,1.67,1.67,0,0,0,.56.35,2.06,2.06,0,0,0,.73.12h1.64v1.22h-6a.62.62,0,0,1-.36-.09.29.29,0,0,1-.13-.27v-.47a.42.42,0,0,1,0-.2.23.23,0,0,1,.1-.12.37.37,0,0,1,.15-.05h2a3.43,3.43,0,0,1-.27-.77,3.13,3.13,0,0,1-.09-.74,3,3,0,0,1,.2-1.09,2.73,2.73,0,0,1,.55-.89,2.65,2.65,0,0,1,.85-.61,2.69,2.69,0,0,1,1.09-.22H96l.37,0,.35,0,.27.07Z"/><path class="cls-1" d="M105.07,24.42a3.49,3.49,0,0,0-.64.13,1.6,1.6,0,0,0-.58.32,1.62,1.62,0,0,0-.42.59,2.39,2.39,0,0,0-.16.94,7.34,7.34,0,0,0,0,.76c0,.27.08.57.14.87s.14.62.24.95.21.65.34,1l-1.13.38c-.1-.3-.21-.63-.3-1s-.19-.71-.26-1.06-.14-.69-.18-1a5.86,5.86,0,0,1-.07-.82,3.52,3.52,0,0,1,.12-1,2.92,2.92,0,0,1,.31-.75,2.37,2.37,0,0,1,.44-.56,4.3,4.3,0,0,1,.5-.4,4.56,4.56,0,0,1,.49-.3l.41-.23a8.13,8.13,0,0,1,.44-1.25,5.89,5.89,0,0,1,.51-.9,3.45,3.45,0,0,1,.54-.59,2.58,2.58,0,0,1,.55-.35,2,2,0,0,1,.52-.17,2.5,2.5,0,0,1,.45,0,2.46,2.46,0,0,1,.82.13,2.33,2.33,0,0,1,.66.35,2.37,2.37,0,0,1,.51.51,3,3,0,0,1,.64,1.85,2.53,2.53,0,0,1-.16.88,2.26,2.26,0,0,0,.71.29,4,4,0,0,0,1,.1h.05a.71.71,0,0,1,.37.08.31.31,0,0,1,.12.28v.46a.49.49,0,0,1,0,.21.27.27,0,0,1-.11.12l-.15.05h-.26a3.83,3.83,0,0,1-.71-.06,3.41,3.41,0,0,1-.58-.16,2.41,2.41,0,0,1-.46-.25,2.91,2.91,0,0,1-.37-.31,2.57,2.57,0,0,1-.81.61,2.63,2.63,0,0,1-1.17.24,3.71,3.71,0,0,1-.75-.07A3.36,3.36,0,0,1,106,25a2.84,2.84,0,0,1-.53-.29,2.31,2.31,0,0,1-.4-.32m3.85-1.52a2.06,2.06,0,0,0-.09-.57,2.16,2.16,0,0,0-.28-.6,1.71,1.71,0,0,0-.49-.47,1.26,1.26,0,0,0-.71-.19,1.32,1.32,0,0,0-.72.21,2.08,2.08,0,0,0-.58.55,3.29,3.29,0,0,0-.42.78,4.76,4.76,0,0,0-.24.91.78.78,0,0,0,.26.2,3,3,0,0,0,.46.19,5.48,5.48,0,0,0,.56.14,3,3,0,0,0,.56.05,4.06,4.06,0,0,0,.7-.05,1.67,1.67,0,0,0,.53-.19.83.83,0,0,0,.34-.36,1.24,1.24,0,0,0,.12-.59"/><path class="cls-1" d="M114.19,24.84a.61.61,0,0,1,0,.21.29.29,0,0,1-.11.12.46.46,0,0,1-.15.06h-2.51a.52.52,0,0,1-.16-.06.28.28,0,0,1-.1-.12.46.46,0,0,1,0-.21v-.46a.31.31,0,0,1,.12-.28.65.65,0,0,1,.36-.08h2.14a.69.69,0,0,1,.37.08.32.32,0,0,1,.12.28Z"/><path class="cls-1" d="M116.75,23.59a2.28,2.28,0,0,0,.73.32,3.88,3.88,0,0,0,1,.11h.06a.65.65,0,0,1,.36.08.31.31,0,0,1,.12.28v.46a.52.52,0,0,1,0,.21.26.26,0,0,1-.11.12.45.45,0,0,1-.15.06h-.26a3.23,3.23,0,0,1-1.18-.19,2.65,2.65,0,0,1-.8-.47A1.33,1.33,0,0,1,116,25a1.3,1.3,0,0,1-.72.19H113.7a.64.64,0,0,1-.36-.09.3.3,0,0,1-.12-.27v-.47a.53.53,0,0,1,0-.21.28.28,0,0,1,.11-.12.38.38,0,0,1,.15-.05h1.55a.39.39,0,0,0,.34-.19,1,1,0,0,0,.12-.57V15.54h1.22Z"/><path class="cls-1" d="M121.42,23.69a3.47,3.47,0,0,1-.58-.53c-.19-.21-.36-.42-.52-.64l-.44-.6c-.13-.19-.24-.32-.31-.41a2.8,2.8,0,0,1,.08-.32c0-.12.08-.24.12-.35a2,2,0,0,1,.14-.3.42.42,0,0,1,.14-.17,5.06,5.06,0,0,1,.51-.24,5.81,5.81,0,0,1,.66-.23,7.81,7.81,0,0,1,.8-.18,5.63,5.63,0,0,1,.92-.07,3.8,3.8,0,0,1,.73.07,2.78,2.78,0,0,1,.68.21,1.57,1.57,0,0,1,.5.36.76.76,0,0,1,.19.52,3.08,3.08,0,0,1-.05.49,3,3,0,0,1-.21.65,5.2,5.2,0,0,1-.46.8,6.64,6.64,0,0,1-.81.95,1.55,1.55,0,0,0,.38.13c.15,0,.33.07.51.1l.6.06.66,0h.56a.65.65,0,0,1,.36.08.32.32,0,0,1,.12.28v.46a.53.53,0,0,1,0,.21.25.25,0,0,1-.11.12l-.15.06h-1.1a5.43,5.43,0,0,1-1-.09,6.94,6.94,0,0,1-.85-.21,4.6,4.6,0,0,1-.65-.25c-.18-.09-.33-.17-.43-.23-.19.1-.39.2-.6.3a5.57,5.57,0,0,1-.7.25,6.26,6.26,0,0,1-.79.17,5.2,5.2,0,0,1-.86.07h-.87a.63.63,0,0,1-.37-.09.3.3,0,0,1-.12-.27v-.47a.46.46,0,0,1,0-.21.3.3,0,0,1,.1-.12.5.5,0,0,1,.16-.05h1.15c.25,0,.47,0,.69,0l.57-.07a2.6,2.6,0,0,0,.42-.1.8.8,0,0,0,.24-.12m2.43-2.23a.49.49,0,0,0-.09-.28.86.86,0,0,0-.28-.25,1.47,1.47,0,0,0-.44-.17,2.51,2.51,0,0,0-.59-.06,3.82,3.82,0,0,0-.83.1,4.63,4.63,0,0,0-1,.33,4.79,4.79,0,0,0,.28.45,6.18,6.18,0,0,0,.45.57c.17.2.35.39.54.58a3.72,3.72,0,0,0,.57.45,3,3,0,0,0,.57-.43,4.29,4.29,0,0,0,.44-.49,2.22,2.22,0,0,0,.27-.45.94.94,0,0,0,.09-.35"/><path class="cls-1" d="M129.25,23.6a2.2,2.2,0,0,0,.72.32,4.07,4.07,0,0,0,1,.1H131a.67.67,0,0,1,.37.08.32.32,0,0,1,.12.28v.46a.5.5,0,0,1,0,.21.28.28,0,0,1-.11.12l-.15.05h-.26a3.19,3.19,0,0,1-1.17-.19,2.77,2.77,0,0,1-.8-.46,1.42,1.42,0,0,1-.45.45,1.24,1.24,0,0,1-.71.19h-1.62a.64.64,0,0,1-.36-.09.3.3,0,0,1-.12-.27v-.47a.47.47,0,0,1,0-.21.26.26,0,0,1,.1-.12A.42.42,0,0,1,126,24h1.56a.39.39,0,0,0,.34-.19,1.05,1.05,0,0,0,.13-.57V20h1.22Zm-2.33-6a.69.69,0,0,1,.06-.28.77.77,0,0,1,.38-.39.79.79,0,0,1,.28-.05.66.66,0,0,1,.51.21.68.68,0,0,1,.16.23.71.71,0,0,1,.06.28.72.72,0,0,1-.06.28.74.74,0,0,1-.16.23.89.89,0,0,1-.23.15.72.72,0,0,1-.28.06.67.67,0,0,1-.51-.21.68.68,0,0,1-.21-.51m1.93,0a.67.67,0,0,1,.06-.28.67.67,0,0,1,.15-.23.68.68,0,0,1,.23-.16.77.77,0,0,1,.28-.05.81.81,0,0,1,.28.05.83.83,0,0,1,.23.16.75.75,0,0,1,.15.23.76.76,0,0,1,.06.28.78.78,0,0,1-.06.28.82.82,0,0,1-.15.23.9.9,0,0,1-.23.15.71.71,0,0,1-.28.06.69.69,0,0,1-.51-.21.7.7,0,0,1-.2-.51"/><path class="cls-1" d="M131,25.24a.64.64,0,0,1-.37-.09.3.3,0,0,1-.12-.27v-.47a.57.57,0,0,1,0-.21.29.29,0,0,1,.11-.12.36.36,0,0,1,.16-.05h2V15.54h1.22v9.7Z"/><rect class="cls-1" x="136.37" y="15.54" width="1.22" height="9.7"/><path class="cls-1" d="M144,25a2.25,2.25,0,0,1-.35.13,2.15,2.15,0,0,1-.36.09l-.35,0h-.31a3.13,3.13,0,0,1-1.3-.24,2.51,2.51,0,0,1-.87-.62,2.43,2.43,0,0,1-.48-.85,3.08,3.08,0,0,1-.15-.94,2.93,2.93,0,0,1,.2-1.1,2.52,2.52,0,0,1,.58-.9,2.68,2.68,0,0,1,.91-.6,3.33,3.33,0,0,1,1.74-.17,2.47,2.47,0,0,1,.57.18,2.12,2.12,0,0,1,1,.92,3.32,3.32,0,0,1,.3.81,4.83,4.83,0,0,1,.11,1.11V24a4.52,4.52,0,0,1-.33,1.84,3.18,3.18,0,0,1-.92,1.22,4.13,4.13,0,0,1-1.4.72,9.63,9.63,0,0,1-1.78.34l-.13-1.17a6.31,6.31,0,0,0,1.32-.22,3.88,3.88,0,0,0,1-.41,2.35,2.35,0,0,0,.67-.59A2,2,0,0,0,144,25M142.79,24l.34,0,.33,0,.29-.07.21-.07v-.59a4.36,4.36,0,0,0-.13-1.18,2,2,0,0,0-.34-.71A1.12,1.12,0,0,0,143,21a1.73,1.73,0,0,0-.55-.09,1.48,1.48,0,0,0-.58.11,1.45,1.45,0,0,0-.47.32,1.63,1.63,0,0,0-.31.5,1.75,1.75,0,0,0-.11.64,1.59,1.59,0,0,0,.1.58,1.23,1.23,0,0,0,.32.49,1.55,1.55,0,0,0,.57.33,2.44,2.44,0,0,0,.83.13"/><path class="cls-1" d="M157.45,22.71a2.73,2.73,0,0,1,.68-2,2.89,2.89,0,0,1,2.11-.68H162v2.77a3.81,3.81,0,0,0,0,.65.91.91,0,0,0,.13.37.41.41,0,0,0,.23.17,1.09,1.09,0,0,0,.31,0h.65a.64.64,0,0,1,.36.08.31.31,0,0,1,.12.28v.46a.45.45,0,0,1,0,.21.28.28,0,0,1-.1.12.54.54,0,0,1-.16.06h-1a2.07,2.07,0,0,1-.64-.11,1.38,1.38,0,0,1-.55-.33,1.62,1.62,0,0,1-.39-.6,2.46,2.46,0,0,1-.15-.92V21.17h-.25a4.74,4.74,0,0,0-.79.06,1.4,1.4,0,0,0-.6.24,1.12,1.12,0,0,0-.38.51,2.43,2.43,0,0,0-.13.86v2a2.89,2.89,0,0,1-.28,1.23,3.34,3.34,0,0,1-.81,1.07,4.13,4.13,0,0,1-1.3.76,4.89,4.89,0,0,1-1.74.29,6.17,6.17,0,0,1-1.62-.19,4.74,4.74,0,0,1-1.2-.48,3.24,3.24,0,0,1-.83-.69,3.59,3.59,0,0,1-.52-.78,3.43,3.43,0,0,1-.27-.77,3.52,3.52,0,0,1-.08-.67,4.47,4.47,0,0,1,.06-.74,4.63,4.63,0,0,1,.16-.7,3.86,3.86,0,0,1,.25-.61,3.29,3.29,0,0,1,.31-.49l1,.54a2.39,2.39,0,0,0-.23.4,3.54,3.54,0,0,0-.19.48,4.06,4.06,0,0,0-.12.51,3.27,3.27,0,0,0,0,.51,2.68,2.68,0,0,0,0,.5,1.93,1.93,0,0,0,.19.54,2.11,2.11,0,0,0,.37.52,2.23,2.23,0,0,0,.6.45,3.56,3.56,0,0,0,.88.31,5.79,5.79,0,0,0,1.21.11,4,4,0,0,0,1.22-.17,3,3,0,0,0,.92-.44,2,2,0,0,0,.57-.63,1.45,1.45,0,0,0,.2-.73Zm-4.55,7.13a.7.7,0,0,1,.06-.28.86.86,0,0,1,.15-.23.65.65,0,0,1,.23-.15.61.61,0,0,1,.28-.06.63.63,0,0,1,.28.06.71.71,0,0,1,.23.15.79.79,0,0,1,.15.23.72.72,0,0,1,.06.28.7.7,0,0,1-.06.28.72.72,0,0,1-.15.23.82.82,0,0,1-.23.15.63.63,0,0,1-.28.06.71.71,0,0,1-.72-.71m1.93,0a.74.74,0,0,1,.06-.28.9.9,0,0,1,.15-.23.76.76,0,0,1,.51-.21.62.62,0,0,1,.28.06.68.68,0,0,1,.23.15.83.83,0,0,1,.16.23.78.78,0,0,1,.05.28.68.68,0,0,1-.21.5.78.78,0,0,1-.23.15.62.62,0,0,1-.28.06.7.7,0,0,1-.71-.71"/><path class="cls-1" d="M163.4,25.24a.63.63,0,0,1-.36-.09.29.29,0,0,1-.12-.27v-.47a.48.48,0,0,1,0-.21.31.31,0,0,1,.1-.12.45.45,0,0,1,.16-.05h2.41V20h1.22v5.22Zm2.17-7.65a.72.72,0,0,1,.06-.28.91.91,0,0,1,.16-.23.71.71,0,0,1,.23-.16.76.76,0,0,1,.56,0,.81.81,0,0,1,.23.16.78.78,0,0,1,.15.23.74.74,0,0,1,.06.28.75.75,0,0,1-.06.28.85.85,0,0,1-.15.23.87.87,0,0,1-.23.15.71.71,0,0,1-1-.66"/><path class="cls-1" d="M173.26,25a2.09,2.09,0,0,1-.34.13,2.32,2.32,0,0,1-.36.09l-.35,0h-.31a3.14,3.14,0,0,1-1.31-.24,2.5,2.5,0,0,1-.87-.62,2.43,2.43,0,0,1-.48-.85,3.13,3.13,0,0,1-.15-.94,3,3,0,0,1,.21-1.1A2.6,2.6,0,0,1,170.77,20a3.35,3.35,0,0,1,1.75-.17,2.52,2.52,0,0,1,.57.18,2.15,2.15,0,0,1,.53.35,2.06,2.06,0,0,1,.44.57,3,3,0,0,1,.3.81,5,5,0,0,1,.11,1.11V24a4.58,4.58,0,0,1-.33,1.84,3.23,3.23,0,0,1-.92,1.22,4.1,4.1,0,0,1-1.4.72,9.75,9.75,0,0,1-1.78.34l-.13-1.17a6.36,6.36,0,0,0,1.33-.22,4,4,0,0,0,1-.41,2.38,2.38,0,0,0,.67-.59,2,2,0,0,0,.36-.75M172.08,24l.35,0,.33,0,.29-.07.21-.07v-.59a4.28,4.28,0,0,0-.13-1.18,2,2,0,0,0-.34-.71,1.12,1.12,0,0,0-.49-.34,1.75,1.75,0,0,0-.55-.09,1.44,1.44,0,0,0-.57.11,1.35,1.35,0,0,0-.47.32,1.57,1.57,0,0,0-.31.5,1.81,1.81,0,0,0-.12.64,1.71,1.71,0,0,0,.11.58,1.21,1.21,0,0,0,.32.49,1.51,1.51,0,0,0,.56.33,2.44,2.44,0,0,0,.83.13"/><path class="cls-1" d="M175.35,26.89a4.26,4.26,0,0,0,1.15-.29,1.63,1.63,0,0,0,.65-.49,1.56,1.56,0,0,0,.29-.71,5.57,5.57,0,0,0,.07-.92V20h1.22v4h1.59a.66.66,0,0,1,.36.08.32.32,0,0,1,.12.28v.46a.52.52,0,0,1,0,.21.26.26,0,0,1-.11.12l-.15.05h-1.84a4,4,0,0,1-.34,1.2,2.53,2.53,0,0,1-.63.82,2.85,2.85,0,0,1-.95.51,7.16,7.16,0,0,1-1.27.29Z"/><path class="cls-1" d="M183.36,23.6a2.21,2.21,0,0,0,.72.32,4.11,4.11,0,0,0,1,.1h.06a.67.67,0,0,1,.36.08.31.31,0,0,1,.12.28v.46a.57.57,0,0,1,0,.21.28.28,0,0,1-.11.12l-.15.05h-.26a3.19,3.19,0,0,1-1.17-.19,2.74,2.74,0,0,1-.79-.46,1.53,1.53,0,0,1-.45.45,1.27,1.27,0,0,1-.72.19h-1.61a.64.64,0,0,1-.36-.09.29.29,0,0,1-.12-.27v-.47a.48.48,0,0,1,0-.21.26.26,0,0,1,.1-.12.46.46,0,0,1,.16-.05h1.55a.4.4,0,0,0,.34-.19,1.07,1.07,0,0,0,.12-.57V20h1.22Zm-2.32-6a.68.68,0,0,1,.05-.28.8.8,0,0,1,.15-.23.72.72,0,0,1,.23-.16.79.79,0,0,1,.28-.05.8.8,0,0,1,.28.05.77.77,0,0,1,.23.16.68.68,0,0,1,.16.23.71.71,0,0,1,.05.28.72.72,0,0,1-.05.28.74.74,0,0,1-.16.23.83.83,0,0,1-.23.15.7.7,0,0,1-.28.06.71.71,0,0,1-.71-.72m1.92,0a.7.7,0,0,1,.06-.28.67.67,0,0,1,.15-.23.7.7,0,0,1,.23-.16.77.77,0,0,1,.56,0,.77.77,0,0,1,.23.16.7.7,0,0,1,.15.79.75.75,0,0,1-.15.23.82.82,0,0,1-.23.15.71.71,0,0,1-.28.06.69.69,0,0,1-.51-.21.7.7,0,0,1-.2-.51"/><path class="cls-1" d="M185.12,25.24a.62.62,0,0,1-.36-.09.29.29,0,0,1-.12-.27v-.47a.54.54,0,0,1,0-.21.25.25,0,0,1,.11-.12.39.39,0,0,1,.16-.05h2.22a3.81,3.81,0,0,0,.79-.06,1.32,1.32,0,0,0,.49-.16.63.63,0,0,0,.24-.27.87.87,0,0,0,.07-.36,1.27,1.27,0,0,0-.19-.65,2.62,2.62,0,0,0-.52-.65,6.13,6.13,0,0,0-.8-.65c-.31-.22-.65-.43-1-.64l2.7-4.63.88.62-2.06,3.6a6.79,6.79,0,0,1,.86.6,4.59,4.59,0,0,1,.68.69,3.31,3.31,0,0,1,.43.77,2.63,2.63,0,0,1,.1,1.36,2.21,2.21,0,0,0,.74.32,3.85,3.85,0,0,0,1,.11h.06a.65.65,0,0,1,.36.08.32.32,0,0,1,.12.28v.46a.54.54,0,0,1,0,.21.27.27,0,0,1-.1.12l-.16.06h-.26a4.41,4.41,0,0,1-.71-.06,3,3,0,0,1-.57-.17,2.28,2.28,0,0,1-.45-.24,3,3,0,0,1-.37-.3,1.93,1.93,0,0,1-.81.56,3.62,3.62,0,0,1-1.29.2Z"/><path class="cls-1" d="M194.2,24.84a.59.59,0,0,1,0,.21.27.27,0,0,1-.11.12.47.47,0,0,1-.15.06h-2.52a.54.54,0,0,1-.16-.06.23.23,0,0,1-.1-.12.44.44,0,0,1,0-.21v-.46a.31.31,0,0,1,.12-.28.66.66,0,0,1,.37-.08h2.14a.68.68,0,0,1,.37.08.32.32,0,0,1,.12.28Z"/><path class="cls-1" d="M193.72,25.24a.63.63,0,0,1-.37-.09.3.3,0,0,1-.13-.27v-.47a.52.52,0,0,1,0-.21.26.26,0,0,1,.11-.12.38.38,0,0,1,.15-.05h2V15.54h1.21v9.7Z"/><path class="cls-1" d="M206.55,15.54v9.7h-7.69V24h3V18.16h1.22V24h2.26V15.54Zm-3.21,11.29-.16,0h-.23a.91.91,0,0,0-.48.11.41.41,0,0,0-.19.38.6.6,0,0,0,.06.26.65.65,0,0,0,.18.23,1,1,0,0,0,.31.17,1.4,1.4,0,0,0,.44.07h.2v.57h-2.09V28h.77l-.13-.11a1.18,1.18,0,0,1-.14-.18,1.27,1.27,0,0,1-.11-.26.93.93,0,0,1,0-.32.82.82,0,0,1,.07-.34.75.75,0,0,1,.22-.29,1,1,0,0,1,.37-.21,1.69,1.69,0,0,1,.53-.08h.24l.29,0Z"/><rect class="cls-1" x="208.84" y="15.54" width="1.22" height="9.7"/><path class="cls-1" d="M218.1,24.42a3.5,3.5,0,0,0-.64.13,1.61,1.61,0,0,0-.58.32,1.55,1.55,0,0,0-.42.59,2.38,2.38,0,0,0-.16.94,6.8,6.8,0,0,0,0,.76c0,.27.08.57.14.87s.14.62.24.95.21.65.34,1l-1.14.38c-.1-.3-.2-.63-.3-1s-.18-.71-.26-1.06-.14-.69-.19-1a5.11,5.11,0,0,1-.07-.82,3.62,3.62,0,0,1,.12-1,2.89,2.89,0,0,1,.31-.75,2.4,2.4,0,0,1,.44-.56,3.92,3.92,0,0,1,.5-.4,4.74,4.74,0,0,1,.49-.3l.41-.23a8.14,8.14,0,0,1,.44-1.25,5.4,5.4,0,0,1,.51-.9,3.24,3.24,0,0,1,.54-.59,2.54,2.54,0,0,1,.55-.35A1.94,1.94,0,0,1,220,20a2.5,2.5,0,0,1,.45,0,2.47,2.47,0,0,1,.82.13,2.23,2.23,0,0,1,.66.35,2.57,2.57,0,0,1,.52.51,3.4,3.4,0,0,1,.35.6,3,3,0,0,1,.21.64,2.9,2.9,0,0,1,.07.61,2.52,2.52,0,0,1-.16.88,2.27,2.27,0,0,0,.71.29,4.07,4.07,0,0,0,1,.1h.05a.7.7,0,0,1,.37.08.32.32,0,0,1,.12.28v.46a.49.49,0,0,1,0,.21.31.31,0,0,1-.1.12l-.16.05h-.26a3.88,3.88,0,0,1-.71-.06,3.43,3.43,0,0,1-.57-.16,2.31,2.31,0,0,1-.46-.25,2.55,2.55,0,0,1-.37-.31,2.68,2.68,0,0,1-.81.61,2.62,2.62,0,0,1-1.17.24,3.7,3.7,0,0,1-.75-.07A3.38,3.38,0,0,1,219,25a3.12,3.12,0,0,1-.53-.29,2.4,2.4,0,0,1-.4-.32m3.84-1.52a2.07,2.07,0,0,0-.09-.57,2.13,2.13,0,0,0-.28-.6,1.76,1.76,0,0,0-.49-.47,1.28,1.28,0,0,0-.71-.19,1.31,1.31,0,0,0-.72.21,2.09,2.09,0,0,0-.58.55,3.21,3.21,0,0,0-.42.78,4.07,4.07,0,0,0-.24.91.77.77,0,0,0,.26.2,3,3,0,0,0,.45.19,5.43,5.43,0,0,0,.55.14,3,3,0,0,0,.56.05,4,4,0,0,0,.7-.05,1.7,1.7,0,0,0,.54-.19.83.83,0,0,0,.34-.36,1.24,1.24,0,0,0,.12-.59"/><path class="cls-1" d="M227.22,24.84a.57.57,0,0,1,0,.21.26.26,0,0,1-.11.12.47.47,0,0,1-.15.06H224.4a.49.49,0,0,1-.15-.06.26.26,0,0,1-.11-.12.46.46,0,0,1,0-.21v-.46a.31.31,0,0,1,.12-.28.64.64,0,0,1,.36-.08h2.14a.69.69,0,0,1,.37.08.32.32,0,0,1,.12.28Z"/><path class="cls-1" d="M229.77,23.6a2.3,2.3,0,0,0,.72.31,4,4,0,0,0,1,.1h.05a.67.67,0,0,1,.37.08.31.31,0,0,1,.12.28v.46a.48.48,0,0,1,0,.21.25.25,0,0,1-.1.12l-.15.06h-.26a3.25,3.25,0,0,1-1.17-.18,2.67,2.67,0,0,1-.79-.46,1.47,1.47,0,0,1-.45.46,1.24,1.24,0,0,1-.71.19h-1.61a.63.63,0,0,1-.36-.09.3.3,0,0,1-.12-.27v-.47a.46.46,0,0,1,0-.21.3.3,0,0,1,.1-.12.41.41,0,0,1,.15-.05h1.55a.38.38,0,0,0,.34-.19,1.06,1.06,0,0,0,.13-.57V20h1.21Zm-2.36,3.66a.74.74,0,0,1,.06-.28.68.68,0,0,1,.16-.23.74.74,0,0,1,.22-.16.68.68,0,0,1,.56,0,.84.84,0,0,1,.23.16.78.78,0,0,1,.15.23.7.7,0,0,1,.06.28.69.69,0,0,1-.06.28.7.7,0,0,1-.15.23.79.79,0,0,1-.23.15.62.62,0,0,1-.28.06.71.71,0,0,1-.71-.72m1.92,0a.78.78,0,0,1,.21-.51.84.84,0,0,1,.23-.16.64.64,0,0,1,.28-.06.66.66,0,0,1,.28.06.85.85,0,0,1,.23.16.72.72,0,0,1,.15.23.66.66,0,0,1,.06.28.65.65,0,0,1-.06.28.66.66,0,0,1-.15.23.8.8,0,0,1-.23.15.64.64,0,0,1-.28.06.67.67,0,0,1-.51-.21.68.68,0,0,1-.21-.51"/><path class="cls-1" d="M234.59,23.59a2.36,2.36,0,0,0,.73.32,3.9,3.9,0,0,0,1,.11h.06a.67.67,0,0,1,.36.08.32.32,0,0,1,.12.28v.46a.52.52,0,0,1,0,.21.24.24,0,0,1-.11.12.45.45,0,0,1-.15.06h-.26a3.24,3.24,0,0,1-1.18-.19,2.7,2.7,0,0,1-.8-.47,1.27,1.27,0,0,1-1.17.65h-1.61a.61.61,0,0,1-.36-.09.3.3,0,0,1-.12-.27v-.47a.47.47,0,0,1,0-.21.29.29,0,0,1,.11-.12.37.37,0,0,1,.15-.05h1.55a.38.38,0,0,0,.34-.19,1,1,0,0,0,.13-.57V15.54h1.21Z"/><path class="cls-1" d="M239,24.84a.54.54,0,0,1,0,.21.27.27,0,0,1-.11.12l-.15.06h-2.52l-.15-.06a.24.24,0,0,1-.1-.12.42.42,0,0,1,0-.21v-.46a.32.32,0,0,1,.12-.28.68.68,0,0,1,.37-.08h2.14a.68.68,0,0,1,.37.08.32.32,0,0,1,.12.28Z"/><path class="cls-1" d="M241.41,23.69a3.48,3.48,0,0,1-.58-.53c-.18-.21-.36-.42-.52-.64l-.43-.6a4.57,4.57,0,0,0-.32-.41c0-.1,0-.2.08-.32s.08-.24.12-.35a2,2,0,0,1,.13-.3.4.4,0,0,1,.14-.17,4.43,4.43,0,0,1,.51-.24,5.4,5.4,0,0,1,.66-.23,7.69,7.69,0,0,1,.8-.18,5.62,5.62,0,0,1,.92-.07,3.76,3.76,0,0,1,.73.07,2.83,2.83,0,0,1,.68.21,1.61,1.61,0,0,1,.5.36.78.78,0,0,1,.19.52,3,3,0,0,1-.05.49,2.71,2.71,0,0,1-.21.65,5.05,5.05,0,0,1-.46.8,7,7,0,0,1-.81.95,1.65,1.65,0,0,0,.38.13c.15,0,.32.07.51.1l.6.06.65,0h.56a.69.69,0,0,1,.37.08.32.32,0,0,1,.12.28v.46a.58.58,0,0,1,0,.21.32.32,0,0,1-.11.12.52.52,0,0,1-.16.06h-1.1a5.37,5.37,0,0,1-1-.09,6.85,6.85,0,0,1-.85-.21,4.55,4.55,0,0,1-.65-.25l-.43-.23c-.19.1-.38.2-.6.3A5.57,5.57,0,0,1,241,25a6.57,6.57,0,0,1-.79.17,5.33,5.33,0,0,1-.86.07h-.87a.66.66,0,0,1-.37-.09.29.29,0,0,1-.11-.27v-.47a.56.56,0,0,1,0-.21.28.28,0,0,1,.11-.12.42.42,0,0,1,.15-.05h1.14c.25,0,.48,0,.7,0l.57-.07a2.69,2.69,0,0,0,.42-.1.78.78,0,0,0,.24-.12m2.43-2.23a.51.51,0,0,0-.09-.28.94.94,0,0,0-.28-.25,1.54,1.54,0,0,0-.44-.17,2.59,2.59,0,0,0-.59-.06,3.8,3.8,0,0,0-.83.1,4.58,4.58,0,0,0-1,.33,3.85,3.85,0,0,0,.28.45,6.41,6.41,0,0,0,.45.57c.17.2.35.39.55.58a3.43,3.43,0,0,0,.57.45,3.1,3.1,0,0,0,.57-.43,4.75,4.75,0,0,0,.43-.49,2.25,2.25,0,0,0,.28-.45,1,1,0,0,0,.09-.35"/><path class="cls-1" d="M249.24,23.6a2.22,2.22,0,0,0,.72.32,4.14,4.14,0,0,0,1,.1H251a.66.66,0,0,1,.36.08.31.31,0,0,1,.12.28v.46a.51.51,0,0,1,0,.21.27.27,0,0,1-.1.12.62.62,0,0,1-.16.05h-.25a3.17,3.17,0,0,1-1.17-.19,2.64,2.64,0,0,1-.79-.46,1.52,1.52,0,0,1-.45.45,1.24,1.24,0,0,1-.71.19h-1.62a.64.64,0,0,1-.36-.09.3.3,0,0,1-.12-.27v-.47a.43.43,0,0,1,0-.21.26.26,0,0,1,.1-.12A.44.44,0,0,1,246,24h1.55a.39.39,0,0,0,.34-.19,1.06,1.06,0,0,0,.13-.57V20h1.21Zm-2.32-6a.62.62,0,0,1,.06-.28.59.59,0,0,1,.15-.23.67.67,0,0,1,.22-.16.79.79,0,0,1,.28-.05.84.84,0,0,1,.29.05.81.81,0,0,1,.23.16.72.72,0,0,1,.15.23.7.7,0,0,1,.06.28.71.71,0,0,1-.06.28.79.79,0,0,1-.15.23.87.87,0,0,1-.23.15.73.73,0,0,1-.29.06.68.68,0,0,1-.51-.21.71.71,0,0,1-.2-.51m1.93,0a.71.71,0,0,1,.21-.51.66.66,0,0,1,.51-.21.8.8,0,0,1,.28.05.77.77,0,0,1,.38.39.68.68,0,0,1,.06.28.69.69,0,0,1-.06.28.85.85,0,0,1-.15.23.83.83,0,0,1-.23.15.7.7,0,0,1-.28.06.7.7,0,0,1-.71-.72"/><path class="cls-1" d="M251,25.24a.61.61,0,0,1-.36-.09.29.29,0,0,1-.12-.27v-.47a.53.53,0,0,1,0-.21.3.3,0,0,1,.1-.12.38.38,0,0,1,.16-.05h2V15.54h1.21v9.7Z"/><rect class="cls-1" x="256.35" y="15.54" width="1.21" height="9.7"/><path class="cls-1" d="M265.07,25.24a2.68,2.68,0,0,1-1-.19,2.33,2.33,0,0,1-.77-.51,2.15,2.15,0,0,1-.47-.75,2.54,2.54,0,0,1-.16-.92,3.77,3.77,0,0,1,.25-1.42,3.22,3.22,0,0,1,.63-1,2.63,2.63,0,0,1,.85-.62,2.17,2.17,0,0,1,.89-.21,2.25,2.25,0,0,1,.91.2,2.35,2.35,0,0,1,.82.61,3.06,3.06,0,0,1,.59,1,4.14,4.14,0,0,1,.23,1.45,2.36,2.36,0,0,1-.17.89,2.3,2.3,0,0,1-.48.75,2.21,2.21,0,0,1-.75.53,2.4,2.4,0,0,1-1,.2Zm-1.59-7.65a.69.69,0,0,1,.06-.28.67.67,0,0,1,.15-.23.68.68,0,0,1,.22-.16.79.79,0,0,1,.28-.05.8.8,0,0,1,.28.05.77.77,0,0,1,.23.16.68.68,0,0,1,.16.23.7.7,0,0,1,.06.28.71.71,0,0,1-.06.28.74.74,0,0,1-.16.23.82.82,0,0,1-.23.15.7.7,0,0,1-.28.06.7.7,0,0,1-.71-.72m.21,5.06a1.25,1.25,0,0,0,.41,1,1.66,1.66,0,0,0,1.08.34h.14a1.43,1.43,0,0,0,.58-.11,1.19,1.19,0,0,0,.41-.3,1.31,1.31,0,0,0,.25-.44,1.86,1.86,0,0,0,.08-.53,2.6,2.6,0,0,0-.13-.86,2.1,2.1,0,0,0-.34-.62,1.44,1.44,0,0,0-.46-.38,1.1,1.1,0,0,0-.48-.13,1.32,1.32,0,0,0-.56.13,1.34,1.34,0,0,0-.49.37,1.87,1.87,0,0,0-.35.62,2.85,2.85,0,0,0-.13.87m1.71-5.06a.63.63,0,0,1,.06-.28.76.76,0,0,1,.15-.23.7.7,0,0,1,.22-.16.84.84,0,0,1,.29-.05.79.79,0,0,1,.28.05.77.77,0,0,1,.23.16.67.67,0,0,1,.16.23.73.73,0,0,1,.05.28.74.74,0,0,1-.05.28.72.72,0,0,1-.16.23.82.82,0,0,1-.23.15.71.71,0,0,1-1-.66"/><path class="cls-1" d="M269.15,25.24V24h2.3a3.79,3.79,0,0,0,.79-.06,1.28,1.28,0,0,0,.48-.16.61.61,0,0,0,.24-.27.9.9,0,0,0,.07-.36,1.71,1.71,0,0,0-.2-.75,4,4,0,0,0-.5-.78,7.63,7.63,0,0,0-.7-.77c-.27-.25-.53-.48-.8-.7l.9-.88c.3.26.59.54.88.84a9.88,9.88,0,0,1,.77.95,5.34,5.34,0,0,1,.55,1,2.66,2.66,0,0,1,.21,1,2.56,2.56,0,0,1-.14.88,1.81,1.81,0,0,1-.45.68,2,2,0,0,1-.78.44,3.68,3.68,0,0,1-1.16.16Z"/><path class="cls-1" d="M276.09,15.54h1.22v7.24a4.52,4.52,0,0,0,0,.6,1,1,0,0,0,.11.38.4.4,0,0,0,.21.19A.79.79,0,0,0,278,24h.45a.67.67,0,0,1,.36.08.32.32,0,0,1,.12.28v.46a.49.49,0,0,1,0,.21.27.27,0,0,1-.1.12.56.56,0,0,1-.16.05h-.82a1.84,1.84,0,0,1-.77-.15,1.4,1.4,0,0,1-.53-.41,1.65,1.65,0,0,1-.31-.62,2.59,2.59,0,0,1-.11-.78Z"/><path class="cls-1" d="M281.07,24.84a.51.51,0,0,1,0,.21.28.28,0,0,1-.11.12.49.49,0,0,1-.15.06h-2.51a.49.49,0,0,1-.16-.06A.26.26,0,0,1,278,25a.42.42,0,0,1,0-.21v-.46a.31.31,0,0,1,.12-.28.65.65,0,0,1,.36-.08h2.14a.67.67,0,0,1,.37.08.3.3,0,0,1,.12.28Z"/><path class="cls-1" d="M282.66,24.3a1.94,1.94,0,0,1-.3.44A1.4,1.4,0,0,1,282,25a1.47,1.47,0,0,1-.41.15,2.5,2.5,0,0,1-.5,0h-.53a.63.63,0,0,1-.36-.08.3.3,0,0,1-.12-.28v-.47a.45.45,0,0,1,0-.21.26.26,0,0,1,.1-.12.43.43,0,0,1,.16-.05h.5a1.42,1.42,0,0,0,.74-.19,1,1,0,0,0,.45-.61,7.33,7.33,0,0,1,.43-1.25,5.52,5.52,0,0,1,.51-.9,3.3,3.3,0,0,1,.54-.59,2.57,2.57,0,0,1,.55-.35,2,2,0,0,1,.52-.17,2.48,2.48,0,0,1,.45,0,2.45,2.45,0,0,1,.82.13,2.24,2.24,0,0,1,.66.35,2.35,2.35,0,0,1,.51.51,3,3,0,0,1,.36.6,2.75,2.75,0,0,1,.21.64,3.26,3.26,0,0,1,.07.61,2.52,2.52,0,0,1-.14.79,2.11,2.11,0,0,0,.75.35,3.78,3.78,0,0,0,1,.12h.06a.7.7,0,0,1,.37.08.33.33,0,0,1,.12.28v.46a.43.43,0,0,1,0,.21.26.26,0,0,1-.1.12l-.16.05h-.26a3.91,3.91,0,0,1-.75-.07A2.63,2.63,0,0,1,288,25a2.21,2.21,0,0,1-.48-.27,2.71,2.71,0,0,1-.38-.34,2.65,2.65,0,0,1-.83.67,2.57,2.57,0,0,1-1.22.27,3.6,3.6,0,0,1-.82-.09,3.22,3.22,0,0,1-.69-.23,2.74,2.74,0,0,1-.55-.32,2.61,2.61,0,0,1-.4-.35m4-1.4a2,2,0,0,0-.09-.57,2,2,0,0,0-.29-.6,1.59,1.59,0,0,0-.49-.47,1.27,1.27,0,0,0-.71-.19,1.3,1.3,0,0,0-.72.21,2.11,2.11,0,0,0-.58.55,3.26,3.26,0,0,0-.42.78,4.68,4.68,0,0,0-.24.91.73.73,0,0,0,.26.2,3,3,0,0,0,.46.19,5.3,5.3,0,0,0,.56.14,3,3,0,0,0,.56.05,4,4,0,0,0,.7-.05,1.71,1.71,0,0,0,.54-.19.86.86,0,0,0,.34-.36,1.24,1.24,0,0,0,.12-.59"/><path class="cls-1" d="M294.75,21.14l-.31-.07-.36-.06-.37,0-.32,0a1.92,1.92,0,0,0-.48.07,1.24,1.24,0,0,0-.45.23,1.27,1.27,0,0,0-.33.43,1.81,1.81,0,0,0,0,1.35,1.56,1.56,0,0,0,.36.53,1.69,1.69,0,0,0,.56.35,2,2,0,0,0,.73.12h1.63v1.22h-6a.62.62,0,0,1-.36-.09.29.29,0,0,1-.13-.27v-.47a.42.42,0,0,1,0-.2.28.28,0,0,1,.1-.12.43.43,0,0,1,.16-.05h2a4,4,0,0,1-.28-.77,3.29,3.29,0,0,1-.08-.74,3,3,0,0,1,.2-1.09,2.9,2.9,0,0,1,.55-.89,2.6,2.6,0,0,1,1.95-.83h.32l.37,0,.35,0,.26.07Z"/><path class="cls-1" d="M27.9,38.29a3.46,3.46,0,1,0,3.46,3.46,3.46,3.46,0,0,0-3.46-3.46"/><path class="cls-1" d="M34.6,53.27a1.88,1.88,0,1,0-1,2.45,1.89,1.89,0,0,0,1-2.45"/><path class="cls-1" d="M40.61,73.18a1.88,1.88,0,1,0,2.45,1,1.88,1.88,0,0,0-2.45-1"/><path class="cls-1" d="M17.62,66a1.88,1.88,0,1,0,1,2.47,1.88,1.88,0,0,0-1-2.47"/><path class="cls-1" d="M41.85,36.09a1.88,1.88,0,1,0-1,2.45,1.89,1.89,0,0,0,1-2.45"/><path class="cls-1" d="M32.33,31.35a1.88,1.88,0,1,0-1-2.47,1.89,1.89,0,0,0,1,2.47"/><path class="cls-1" d="M42.63,7.08a1.88,1.88,0,1,0,1,2.47,1.88,1.88,0,0,0-1-2.47"/><path class="cls-1" d="M46.57,2.62a1.88,1.88,0,1,0-2.47,1,1.89,1.89,0,0,0,2.47-1"/><path class="cls-1" d="M16.49,48.6a1.88,1.88,0,1,0-2.47-1,1.88,1.88,0,0,0,2.47,1"/><path class="cls-1" d="M8.09,48.08a1.88,1.88,0,1,0,2.47,1,1.89,1.89,0,0,0-2.47-1"/><path class="cls-1" d="M40.8,45a1.88,1.88,0,1,0,1,2.45,1.88,1.88,0,0,0-1-2.45"/><path class="cls-1" d="M11.7,3.62a1.88,1.88,0,1,0-2.47-1,1.89,1.89,0,0,0,2.47,1"/><path class="cls-1" d="M2.62,29a1.88,1.88,0,1,0,1,2.47,1.88,1.88,0,0,0-1-2.47"/><rect class="cls-1" x="31.74" y="19.13" width="11.4" height="0.24" transform="translate(5.18 46.29) rotate(-67.17)"/><polygon class="cls-1" points="35.55 25.1 34.54 24.67 39.33 13.4 40.34 13.82 35.55 25.1"/><polygon class="cls-1" points="55.7 53.36 45.31 48.95 45.4 48.72 55.8 53.14 55.7 53.36"/><polygon class="cls-1" points="55.93 53.91 44.75 49.17 45.18 48.16 56.35 52.91 55.93 53.91"/><polygon class="cls-1" points="39.08 69.74 34.85 59.29 35.08 59.2 39.3 69.65 39.08 69.74"/><polygon class="cls-1" points="38.84 70.3 34.3 59.06 35.31 58.65 39.85 69.89 38.84 70.3"/><polygon class="cls-1" points="19.21 62.61 18.99 62.51 23.4 52.12 23.63 52.21 19.21 62.61"/><rect class="cls-1" x="15.24" y="56.82" width="12.15" height="1.09" transform="translate(-39.82 54.59) rotate(-67.02)"/><polygon class="cls-1" points="17.51 37.32 7.11 32.91 7.2 32.68 17.61 37.1 17.51 37.32"/><rect class="cls-1" x="11.81" y="28.93" width="1.09" height="12.15" transform="translate(-24.69 32.69) rotate(-66.98)"/><polygon class="cls-1" points="23.37 31.41 18.95 21.01 19.18 20.91 23.59 31.32 23.37 31.41"/><rect class="cls-1" x="20.73" y="20.09" width="1.09" height="12.15" transform="translate(-8.53 10.39) rotate(-23.01)"/><rect class="cls-1" x="15.26" y="6.64" width="0.24" height="11.31" transform="translate(-3.58 6.98) rotate(-22.97)"/><polygon class="cls-1" points="17.25 18.09 12.5 6.91 13.51 6.49 18.26 17.67 17.25 18.09"/></g></g></svg>