<svg xmlns="http://www.w3.org/2000/svg" viewBox="0 0 22.43 18.12"><defs><style>.cls-1{fill:none;stroke:#182b30;stroke-miterlimit:10;}</style></defs><title>Twitter</title><g id="Layer_2" data-name="Layer 2"><g id="Layer_1-2" data-name="Layer 1"><path class="cls-1" d="M22,2.75a8.3,8.3,0,0,1-2.37.72A4.16,4.16,0,0,0,21.4,1.12,8.32,8.32,0,0,1,18.79,2.2a4.15,4.15,0,0,0-7.1,3,4.19,4.19,0,0,0,.13.94A11.78,11.78,0,0,1,3.15,2.07,4.16,4.16,0,0,0,4.59,7.58a4.17,4.17,0,0,1-1.89-.47v.05a4.15,4.15,0,0,0,3.44,4,4.16,4.16,0,0,1-1.87.12,4.15,4.15,0,0,0,4,2.78A8.33,8.33,0,0,1,3.11,16a8.51,8.51,0,0,1-1,0,11.76,11.76,0,0,0,6.41,1.69A11.73,11.73,0,0,0,20,5.49c0-.18,0-.36,0-.54a8.41,8.41,0,0,0,2-2.2"/></g></g></svg>