<svg xmlns="http://www.w3.org/2000/svg" viewBox="0 0 26.14 37.26"><defs><style>.cls-1{fill:#f6c103;}</style></defs><title>Location</title><g id="Layer_2" data-name="Layer 2"><g id="Layer_1-2" data-name="Layer 1"><path class="cls-1" d="M14.39,0a29.6,29.6,0,0,1,3.89,1.11,12.53,12.53,0,0,1,7.6,10,14.65,14.65,0,0,1-2.51,11.4c-3.32,4.69-6.56,9.45-9.83,14.17-.13.19-.28.38-.46.61-.14-.18-.25-.3-.34-.43C9.22,31.74,5.65,26.68,2.2,21.55-1.65,15.82-.61,5.74,6.63,1.71A13.32,13.32,0,0,1,11.14.15c.21,0,.42-.1.63-.15ZM13.07,34.9l.45-.62c2.93-4.23,5.84-8.47,8.8-12.69a13.2,13.2,0,0,0,1.82-12,10.87,10.87,0,0,0-9.3-8.06A11.07,11.07,0,0,0,3.6,6.28a13.5,13.5,0,0,0-.18,14.65c2.86,4.22,5.79,8.39,8.69,12.58Z"/><path class="cls-1" d="M18,12.79a4.76,4.76,0,1,1-9.51.29A4.76,4.76,0,0,1,18,12.79ZM16.59,13a3.39,3.39,0,1,0-3.39,3.37A3.39,3.39,0,0,0,16.59,13Z"/></g></g></svg>