<svg xmlns="http://www.w3.org/2000/svg" viewBox="0 0 15.84 107.94"><defs><style>.cls-1{fill:#b3b3b3;}.cls-2{fill:none;stroke:#ccc;stroke-miterlimit:10;stroke-width:0.75px;}.cls-3{fill:#ccc;}</style></defs><title>Scroll down</title><g id="Layer_2" data-name="Layer 2"><g id="Layer_1-2" data-name="Layer 1"><path class="cls-1" d="M10.85,69.27a2.87,2.87,0,0,0,.45-1,5.24,5.24,0,0,0,.12-1.13,3,3,0,0,0-.12-.88,1.9,1.9,0,0,0-.38-.69,1.73,1.73,0,0,0-.63-.46,2.17,2.17,0,0,0-.88-.16,1.2,1.2,0,0,0-.73.24,2.72,2.72,0,0,0-.57.58,5.41,5.41,0,0,0-.45.73l-.37.7q-.12.21-.25.41l-.26.4q-.19.29-.4.55a2.86,2.86,0,0,1-.45.45,2,2,0,0,1-.55.31,1.94,1.94,0,0,1-.68.11,2.29,2.29,0,0,1-1.12-.27,2.41,2.41,0,0,1-.8-.7,3.13,3.13,0,0,1-.47-1,4.15,4.15,0,0,1-.16-1.13,6.52,6.52,0,0,1,.07-1,4.67,4.67,0,0,1,.25-.95l.88.16a3.1,3.1,0,0,0-.28.86,5.37,5.37,0,0,0-.08.91,3.43,3.43,0,0,0,.09.78,2,2,0,0,0,.29.68,1.5,1.5,0,0,0,.52.48,1.59,1.59,0,0,0,.78.18,1.08,1.08,0,0,0,.56-.15,1.94,1.94,0,0,0,.48-.41,4.11,4.11,0,0,0,.42-.59q.2-.33.39-.7l.4-.74a6.93,6.93,0,0,1,.45-.7,4.14,4.14,0,0,1,.53-.59,2.34,2.34,0,0,1,.63-.42A2,2,0,0,1,9,64a3.08,3.08,0,0,1,.49,0,3,3,0,0,1,1.19.24,2.09,2.09,0,0,1,.92.78,3.78,3.78,0,0,1,.49,1,4.07,4.07,0,0,1,.16,1.15c0,.17,0,.36,0,.55s0,.39-.08.58a5.74,5.74,0,0,1-.13.57,2.89,2.89,0,0,1-.19.51Z"/><path class="cls-1" d="M5.91,57.45a4.29,4.29,0,0,0-.26.75,3.19,3.19,0,0,0-.1.79,2.8,2.8,0,0,0,.23,1.17A2.33,2.33,0,0,0,6.4,61a2.76,2.76,0,0,0,.95.51,3.9,3.9,0,0,0,1.17.17,3.64,3.64,0,0,0,1.11-.17,3,3,0,0,0,1-.5,2.49,2.49,0,0,0,.67-.81,2.37,2.37,0,0,0,.25-1.1,4.11,4.11,0,0,0-.08-.82,4.51,4.51,0,0,0-.24-.79l.83-.08a5.83,5.83,0,0,1,.19.87,6.37,6.37,0,0,1,.06.89,4.89,4.89,0,0,1-.06.76,3.26,3.26,0,0,1-.19.7,2.83,2.83,0,0,1-.35.63,2.77,2.77,0,0,1-.53.54,3.87,3.87,0,0,1-1.23.65,4.61,4.61,0,0,1-1.37.2A4.41,4.41,0,0,1,7,62.39a3.48,3.48,0,0,1-1.19-.7,3.18,3.18,0,0,1-.79-1.11,3.68,3.68,0,0,1-.28-1.48c0-.12,0-.26,0-.42s0-.31,0-.46a4.29,4.29,0,0,1,.09-.45,1.87,1.87,0,0,1,.14-.39Z"/><path class="cls-1" d="M6.55,55.88h-.8l-.79,0v-.87H6.32v0a3.59,3.59,0,0,1-.56-.29,2.49,2.49,0,0,1-.49-.4,2,2,0,0,1-.35-.51,1.45,1.45,0,0,1-.13-.63,2.33,2.33,0,0,1,.08-.62h.92a2.59,2.59,0,0,0-.08.64,1.41,1.41,0,0,0,.13.63,1.53,1.53,0,0,0,.36.47,2,2,0,0,0,.51.33,3.62,3.62,0,0,0,.61.21A4.43,4.43,0,0,0,8,55l.6,0h3.53v.88Z"/><path class="cls-1" d="M8.52,52a4.86,4.86,0,0,1-1.45-.21,3.49,3.49,0,0,1-1.19-.63,3,3,0,0,1-.8-1,3.36,3.36,0,0,1-.29-1.45,3.49,3.49,0,0,1,.29-1.47,2.9,2.9,0,0,1,.79-1,3.37,3.37,0,0,1,1.19-.62,5.09,5.09,0,0,1,1.47-.21,5,5,0,0,1,1.46.21,3.41,3.41,0,0,1,1.19.63,2.93,2.93,0,0,1,.8,1,3.43,3.43,0,0,1,.29,1.46A3.67,3.67,0,0,1,12,50.1a2.59,2.59,0,0,1-.88,1.11,3.91,3.91,0,0,1-1.23.62A4.79,4.79,0,0,1,8.52,52Zm0-1a4.36,4.36,0,0,0,1.08-.14,3,3,0,0,0,1-.42,2.23,2.23,0,0,0,.68-.73,2.09,2.09,0,0,0,.26-1.07,2.15,2.15,0,0,0-.26-1.08,2.17,2.17,0,0,0-.68-.73,3,3,0,0,0-1-.42,4.51,4.51,0,0,0-1.09-.13,4.69,4.69,0,0,0-1.1.13,2.92,2.92,0,0,0-1,.41,2.12,2.12,0,0,0-.67.73,2.21,2.21,0,0,0-.25,1.09,2.15,2.15,0,0,0,.26,1.08,2.17,2.17,0,0,0,.68.73,3,3,0,0,0,1,.42A4.51,4.51,0,0,0,8.52,51.06Z"/><path class="cls-1" d="M1.59,43.69v-.87h10.5v.88Z"/><path class="cls-1" d="M1.59,40.58V39.7h10.5v.88Z"/><path class="cls-1" d="M2.32,33.56V31.14A6.55,6.55,0,0,1,2.62,29a4,4,0,0,1,.92-1.53,3.93,3.93,0,0,1,1.51-.94,6.25,6.25,0,0,1,2.1-.32,7.42,7.42,0,0,1,1.08.08,5,5,0,0,1,1,.26,4.12,4.12,0,0,1,.93.49,3.34,3.34,0,0,1,.77.76,4.78,4.78,0,0,1,.54.91,6.35,6.35,0,0,1,.35,1,7.27,7.27,0,0,1,.19,1,9.81,9.81,0,0,1,.06,1.06v1.71Zm8.93-1v-1a7.17,7.17,0,0,0-.13-1.4A4,4,0,0,0,10.67,29a3.28,3.28,0,0,0-.82-1,3.56,3.56,0,0,0-1.27-.62,5.65,5.65,0,0,0-.71-.15,5.23,5.23,0,0,0-.73-.05,6.76,6.76,0,0,0-.84.05,4.82,4.82,0,0,0-.86.19,3.78,3.78,0,0,0-.79.35,2.32,2.32,0,0,0-.64.55,3.38,3.38,0,0,0-.39.63,4.34,4.34,0,0,0-.26.69,4.91,4.91,0,0,0-.15.72,5.77,5.77,0,0,0,0,.74V32.6Z"/><path class="cls-1" d="M8.52,24.79a4.86,4.86,0,0,1-1.45-.21,3.49,3.49,0,0,1-1.19-.63,3,3,0,0,1-.8-1,3.36,3.36,0,0,1-.29-1.45A3.49,3.49,0,0,1,5.07,20a2.9,2.9,0,0,1,.79-1,3.37,3.37,0,0,1,1.19-.62,5.09,5.09,0,0,1,1.47-.21,5,5,0,0,1,1.46.21,3.41,3.41,0,0,1,1.19.63,2.93,2.93,0,0,1,.8,1,3.43,3.43,0,0,1,.29,1.46,3.67,3.67,0,0,1-.27,1.4A2.59,2.59,0,0,1,11.11,24a3.91,3.91,0,0,1-1.23.62A4.79,4.79,0,0,1,8.52,24.79Zm0-1a4.36,4.36,0,0,0,1.08-.14,3,3,0,0,0,1-.42,2.23,2.23,0,0,0,.68-.73,2.09,2.09,0,0,0,.26-1.07,2.15,2.15,0,0,0-.26-1.08,2.17,2.17,0,0,0-.68-.73,3,3,0,0,0-1-.42,4.51,4.51,0,0,0-1.09-.13,4.69,4.69,0,0,0-1.1.13,2.92,2.92,0,0,0-1,.41,2.12,2.12,0,0,0-.67.73,2.21,2.21,0,0,0-.25,1.09,2.15,2.15,0,0,0,.26,1.08,2.17,2.17,0,0,0,.68.73,3,3,0,0,0,1,.42A4.51,4.51,0,0,0,8.52,23.82Z"/><path class="cls-1" d="M12.09,9.12v1.07L5.92,12.13v0l6.17,1.95v1.07L5,17.47v-1l6.17-1.87v0L5,12.61V11.54l6.17-1.89v0L5,7.65V6.77Z"/><path class="cls-1" d="M6.63,5.56H5.79L5,5.62V4.77H6.23v0a3.18,3.18,0,0,1-.66-.41,2.08,2.08,0,0,1-.45-.51,2,2,0,0,1-.25-.62,3.47,3.47,0,0,1-.08-.77A2.77,2.77,0,0,1,5,1.32,2,2,0,0,1,5.55.57,2.33,2.33,0,0,1,6.41.14,4.22,4.22,0,0,1,7.53,0h4.57V.88H7.75a4.79,4.79,0,0,0-.84.07,1.92,1.92,0,0,0-.7.26,1.42,1.42,0,0,0-.48.52,1.74,1.74,0,0,0-.18.84,2.06,2.06,0,0,0,.22,1,1.83,1.83,0,0,0,.57.65,2.48,2.48,0,0,0,.83.37,4,4,0,0,0,1,.12h4v.88Z"/><rect class="cls-2" x="0.38" y="83.56" width="15.09" height="24" rx="6.38" ry="6.38"/><path class="cls-3" d="M8.12,87.93a.66.66,0,0,0-.66.66v3.49a.66.66,0,0,0,1.32,0V88.59A.66.66,0,0,0,8.12,87.93Z"/></g></g></svg>