<svg xmlns="http://www.w3.org/2000/svg" viewBox="0 0 100.7 23"><defs><style>.cls-1{fill:#f6cc00;stroke:#f6cc00;stroke-miterlimit:10;stroke-width:2px;}.cls-2{fill:#5a8d9b;}</style></defs><title>اطلب الخدمة</title><g id="Layer_2" data-name="Layer 2"><g id="Layer_1-2" data-name="Layer 1"><circle class="cls-1" cx="89.2" cy="11.5" r="10.5"/><path class="cls-2" d="M7.76,13.41a3.5,3.5,0,0,0,0,.52.72.72,0,0,0,.12.33.48.48,0,0,0,.25.18,1.46,1.46,0,0,0,.44.05h.63a1.67,1.67,0,0,1,.39,0,.38.38,0,0,1,.21.11.36.36,0,0,1,.08.2,2.42,2.42,0,0,1,0,.29v.62a1.93,1.93,0,0,1,0,.36.35.35,0,0,1-.11.2.41.41,0,0,1-.21.09l-.34,0h-1a5,5,0,0,1-1-.09,3.09,3.09,0,0,1-.73-.25,1.73,1.73,0,0,1-.8-.8,4.64,4.64,0,0,1-1.11.42,5,5,0,0,1-1.12.12,4.6,4.6,0,0,1-1.2-.16,3.49,3.49,0,0,1-1.1-.51,2.73,2.73,0,0,1-.8-.88A2.57,2.57,0,0,1,0,13a2.72,2.72,0,0,1,.26-1.21,3.45,3.45,0,0,1,.71-1A5.32,5.32,0,0,1,2,10a9.44,9.44,0,0,1,1.18-.58A12.39,12.39,0,0,1,4.38,9l1.12-.3v-1H7.76ZM5.49,10.5a10.53,10.53,0,0,0-1.36.37,5.13,5.13,0,0,0-1,.49,2.24,2.24,0,0,0-.67.62,1.36,1.36,0,0,0-.23.77,1.14,1.14,0,0,0,.14.58,1.12,1.12,0,0,0,.35.38,1.43,1.43,0,0,0,.49.21,2.47,2.47,0,0,0,.54.06,3.33,3.33,0,0,0,1-.14,3.18,3.18,0,0,0,.82-.37ZM2.73,5.45A1.09,1.09,0,0,1,2.82,5a1.15,1.15,0,0,1,.6-.6,1.14,1.14,0,0,1,.88,0,1.15,1.15,0,0,1,.6.6,1.14,1.14,0,0,1,0,.88,1.15,1.15,0,0,1-.6.6,1.14,1.14,0,0,1-.88,0,1.15,1.15,0,0,1-.6-.6A1.09,1.09,0,0,1,2.73,5.45Zm2.64,0A1.09,1.09,0,0,1,5.46,5a1.15,1.15,0,0,1,.6-.6,1.14,1.14,0,0,1,.88,0,1.15,1.15,0,0,1,.6.6,1.14,1.14,0,0,1,0,.88,1.15,1.15,0,0,1-.6.6,1.14,1.14,0,0,1-.88,0,1.15,1.15,0,0,1-.6-.6A1.09,1.09,0,0,1,5.37,5.45Z"/><path class="cls-2" d="M15.34,16.52a5.28,5.28,0,0,1-1.11-.11,4.65,4.65,0,0,1-.88-.28,3.61,3.61,0,0,1-.69-.39c-.2-.14-.37-.29-.53-.43a2.6,2.6,0,0,1-2.27,1.1H9.17l-.34,0a.41.41,0,0,1-.21-.09.35.35,0,0,1-.11-.2,1.93,1.93,0,0,1,0-.36v-.62a2.42,2.42,0,0,1,0-.29.36.36,0,0,1,.08-.2.38.38,0,0,1,.2-.11,1.65,1.65,0,0,1,.39,0h.42a1.28,1.28,0,0,0,.76-.23,1.3,1.3,0,0,0,.47-.71,9.63,9.63,0,0,1,1-2.32,5.52,5.52,0,0,1,1.14-1.36,3.32,3.32,0,0,1,1.16-.64,3.78,3.78,0,0,1,1-.16,3.85,3.85,0,0,1,1.19.17,3.65,3.65,0,0,1,1,.46,3.35,3.35,0,0,1,.74.68,4.15,4.15,0,0,1,.52.82,4.19,4.19,0,0,1,.31.9,4.12,4.12,0,0,1,.1.89,3.72,3.72,0,0,1-.24,1.32,3.32,3.32,0,0,1-1.82,1.91A3.82,3.82,0,0,1,15.34,16.52ZM16.81,13a2.17,2.17,0,0,0-.11-.66,2.26,2.26,0,0,0-.34-.66,2,2,0,0,0-.57-.51,1.47,1.47,0,0,0-.78-.21,1.3,1.3,0,0,0-.78.26,2.61,2.61,0,0,0-.63.68,5,5,0,0,0-.48,1,6.94,6.94,0,0,0-.32,1.12,1.45,1.45,0,0,0,.35.24,3.72,3.72,0,0,0,.54.22,5.24,5.24,0,0,0,.62.17,3.12,3.12,0,0,0,.61.07,3,3,0,0,0,.78-.09,1.63,1.63,0,0,0,.6-.29,1.27,1.27,0,0,0,.38-.51A2,2,0,0,0,16.81,13Z"/><path class="cls-2" d="M20.07,16.42V14.5h3.38a3.78,3.78,0,0,0,.86-.08,1.23,1.23,0,0,0,.51-.22.71.71,0,0,0,.24-.35,1.5,1.5,0,0,0,.06-.44,2,2,0,0,0-.25-.91,5.63,5.63,0,0,0-.67-1,11.38,11.38,0,0,0-.94-1q-.52-.5-1.06-.93l1.65-1.62a13.27,13.27,0,0,1,2.61,2.76,4.62,4.62,0,0,1,.9,2.54,3.69,3.69,0,0,1-.1.84,4,4,0,0,0,1,.31,6,6,0,0,0,1.09.1h.07a1.67,1.67,0,0,1,.39,0,.38.38,0,0,1,.21.11.36.36,0,0,1,.08.2,2.42,2.42,0,0,1,0,.29v.62a1.93,1.93,0,0,1,0,.36.35.35,0,0,1-.11.2.41.41,0,0,1-.21.09l-.34,0h-.1a4.84,4.84,0,0,1-1.68-.25,3.84,3.84,0,0,1-1.17-.67,3.35,3.35,0,0,1-1.22.68,5.81,5.81,0,0,1-1.81.25Z"/><path class="cls-2" d="M30.65,9.18q.62-.18,1.23-.32a6.45,6.45,0,0,1,1.39-.14,3.77,3.77,0,0,1,1.35.22,3,3,0,0,1,1,.62,3.12,3.12,0,0,1,.68,1,4.5,4.5,0,0,1,.37,1.21q.08.54.16,1c.06.33.12.62.19.88a2.33,2.33,0,0,0,.25.61.42.42,0,0,0,.36.23h.83a1.67,1.67,0,0,1,.39,0,.37.37,0,0,1,.21.11.37.37,0,0,1,.08.2c0,.08,0,.17,0,.29v.62a1.93,1.93,0,0,1,0,.36.35.35,0,0,1-.11.2.41.41,0,0,1-.21.09l-.34,0H29.31l-.34,0a.41.41,0,0,1-.21-.09.35.35,0,0,1-.11-.2,1.93,1.93,0,0,1,0-.36v-.62a2.42,2.42,0,0,1,0-.29.36.36,0,0,1,.08-.2.38.38,0,0,1,.2-.11,1.65,1.65,0,0,1,.39,0h5.78a4.74,4.74,0,0,1-.22-.55,4.05,4.05,0,0,1-.16-.65c0-.33-.1-.66-.17-1a3.44,3.44,0,0,0-.3-.88,1.81,1.81,0,0,0-.54-.64,1.45,1.45,0,0,0-.88-.25l-.45,0-.56.08a6.07,6.07,0,0,0-.6.14,4.65,4.65,0,0,0-.57.2ZM31.9,5.91A1.09,1.09,0,0,1,32,5.47a1.15,1.15,0,0,1,.6-.6,1.14,1.14,0,0,1,.88,0,1.15,1.15,0,0,1,.6.6,1.14,1.14,0,0,1,0,.88,1.15,1.15,0,0,1-.6.6,1.14,1.14,0,0,1-.88,0,1.15,1.15,0,0,1-.6-.6A1.09,1.09,0,0,1,31.9,5.91Z"/><path class="cls-2" d="M38.39,16.42l-.34,0a.41.41,0,0,1-.21-.09.35.35,0,0,1-.11-.2,1.93,1.93,0,0,1,0-.36v-.62c0-.11,0-.21,0-.29a.37.37,0,0,1,.08-.2.37.37,0,0,1,.2-.11,1.67,1.67,0,0,1,.39,0h2.09V3.79h2.29V16.42Z"/><path class="cls-2" d="M45.05,3.8h2.29V16.43H45.05Z"/><path class="cls-2" d="M58.41,16.42a11.79,11.79,0,0,1-1.82-.12,6.16,6.16,0,0,1-1.34-.35,3.22,3.22,0,0,1-.92-.54,2.5,2.5,0,0,1-.57-.69,2.78,2.78,0,0,1-.29-.81,4.62,4.62,0,0,1-.08-.9q0-.18,0-.41c0-.16,0-.32,0-.5s0-.35.07-.52,0-.34.08-.49l2,.18c0,.22-.08.45-.11.67a4.8,4.8,0,0,0,0,.67,2.49,2.49,0,0,0,.14.88,1.17,1.17,0,0,0,.52.58,3,3,0,0,0,1.08.33,12.9,12.9,0,0,0,1.8.1h5.58a1.75,1.75,0,0,0,.5-.06.68.68,0,0,0,.33-.21.9.9,0,0,0,.19-.39,2.59,2.59,0,0,0,.06-.62v-4H68v4.31c0,.11,0,.21,0,.31s0,.2,0,.3a4.53,4.53,0,0,0,.93.26,5.9,5.9,0,0,0,1,.09h.07a1.79,1.79,0,0,1,.4,0,.36.36,0,0,1,.31.31,1.71,1.71,0,0,1,0,.29v.62a1.46,1.46,0,0,1,0,.36.38.38,0,0,1-.12.2.44.44,0,0,1-.22.09l-.35,0h-.1a5,5,0,0,1-1.5-.2,4.16,4.16,0,0,1-1.09-.52,2.17,2.17,0,0,1-.77.53,2.89,2.89,0,0,1-1.12.19Zm1.45,2.52A1.09,1.09,0,0,1,60,18.5a1.15,1.15,0,0,1,.6-.6,1.14,1.14,0,0,1,.88,0,1.15,1.15,0,0,1,.6.6,1.14,1.14,0,0,1,0,.88,1.15,1.15,0,0,1-.6.6,1.14,1.14,0,0,1-.88,0,1.15,1.15,0,0,1-.6-.6A1.09,1.09,0,0,1,59.86,18.94Z"/><path class="cls-2" d="M74.29,13.53c0,.11,0,.21,0,.31s0,.2,0,.3a4.53,4.53,0,0,0,.93.26,5.9,5.9,0,0,0,1,.09h.07a1.67,1.67,0,0,1,.39,0,.37.37,0,0,1,.21.11.37.37,0,0,1,.08.2c0,.08,0,.17,0,.29v.62a1.93,1.93,0,0,1,0,.36.35.35,0,0,1-.11.2.41.41,0,0,1-.21.09l-.34,0h-.1a5,5,0,0,1-1.5-.2,4.15,4.15,0,0,1-1.09-.52,2.17,2.17,0,0,1-.77.53,2.89,2.89,0,0,1-1.12.19H69.93l-.34,0a.41.41,0,0,1-.21-.09.35.35,0,0,1-.11-.2,1.93,1.93,0,0,1,0-.36v-.62c0-.11,0-.21,0-.29a.37.37,0,0,1,.08-.2.37.37,0,0,1,.2-.11,1.67,1.67,0,0,1,.39,0h1a1.75,1.75,0,0,0,.5-.06.68.68,0,0,0,.33-.21.9.9,0,0,0,.19-.39,2.59,2.59,0,0,0,.06-.62V3.76h2.29Z"/><path class="cls-2" d="M76.21,16.42l-.34,0a.41.41,0,0,1-.21-.09.35.35,0,0,1-.11-.2,1.93,1.93,0,0,1,0-.36v-.62a2.42,2.42,0,0,1,0-.29.36.36,0,0,1,.08-.2.38.38,0,0,1,.2-.11,1.65,1.65,0,0,1,.39,0h1.87c.09-.24.2-.5.33-.76s.27-.55.43-.83V3.8h2.29V10A6.75,6.75,0,0,1,82.79,9a4.85,4.85,0,0,1,2-.4,4.06,4.06,0,0,1,1.75.35,3.39,3.39,0,0,1,1.23,1,4.1,4.1,0,0,1,.73,1.45,6.57,6.57,0,0,1,.24,1.8v3.29Zm10.25-3.1a4.81,4.81,0,0,0-.17-1.37,2.44,2.44,0,0,0-.45-.88,1.58,1.58,0,0,0-.67-.47,2.37,2.37,0,0,0-.82-.14,2.49,2.49,0,0,0-1.19.33,4.74,4.74,0,0,0-1.14.88,7.21,7.21,0,0,0-1,1.29,8.31,8.31,0,0,0-.74,1.55h6.16Z"/><path class="cls-2" d="M90.83,3.8h2.29V16.43H90.83Z"/></g></g></svg>