<svg xmlns="http://www.w3.org/2000/svg" viewBox="0 0 137.44 23"><defs><style>.cls-1{fill:#f6cc00;stroke:#f6cc00;stroke-miterlimit:10;stroke-width:2px;}.cls-2{fill:#5a8d9b;}</style></defs><title>الفعاليات السابقة</title><g id="Layer_2" data-name="Layer 2"><g id="Layer_1-2" data-name="Layer 1"><circle class="cls-1" cx="125.94" cy="11.5" r="10.5"/><path class="cls-2" d="M7.76,13.41a3.65,3.65,0,0,0,0,.52.74.74,0,0,0,.12.33.49.49,0,0,0,.25.18,1.46,1.46,0,0,0,.44.05h.63a1.67,1.67,0,0,1,.39,0,.38.38,0,0,1,.21.11.37.37,0,0,1,.08.2,2.65,2.65,0,0,1,0,.29v.62a1.93,1.93,0,0,1,0,.36.35.35,0,0,1-.11.2.41.41,0,0,1-.21.09l-.34,0h-1a5,5,0,0,1-1-.09,3.08,3.08,0,0,1-.73-.25,1.73,1.73,0,0,1-.8-.8,4.64,4.64,0,0,1-1.11.42,5,5,0,0,1-1.12.12,4.6,4.6,0,0,1-1.2-.16,3.49,3.49,0,0,1-1.1-.51,2.72,2.72,0,0,1-.8-.88A2.56,2.56,0,0,1,0,13a2.72,2.72,0,0,1,.26-1.21,3.47,3.47,0,0,1,.71-1A5.32,5.32,0,0,1,2,10a9.31,9.31,0,0,1,1.18-.58A12.3,12.3,0,0,1,4.38,9l1.12-.3v-1H7.76ZM5.49,10.5a10.53,10.53,0,0,0-1.36.37,5.1,5.1,0,0,0-1,.49,2.22,2.22,0,0,0-.67.62,1.35,1.35,0,0,0-.23.77,1.1,1.1,0,0,0,.49,1,1.45,1.45,0,0,0,.49.21,2.47,2.47,0,0,0,.54.06,3.33,3.33,0,0,0,1-.14,3.18,3.18,0,0,0,.82-.37ZM2.73,5.45A1.09,1.09,0,0,1,2.82,5a1.15,1.15,0,0,1,.6-.6,1.14,1.14,0,0,1,.88,0,1.15,1.15,0,0,1,.6.6,1.14,1.14,0,0,1,0,.88,1.15,1.15,0,0,1-.6.6,1.14,1.14,0,0,1-.88,0,1.15,1.15,0,0,1-.6-.6A1.09,1.09,0,0,1,2.73,5.45Zm2.64,0A1.09,1.09,0,0,1,5.46,5a1.15,1.15,0,0,1,.6-.6,1.14,1.14,0,0,1,.88,0,1.15,1.15,0,0,1,.6.6,1.14,1.14,0,0,1,0,.88,1.15,1.15,0,0,1-.6.6,1.14,1.14,0,0,1-.88,0,1.15,1.15,0,0,1-.6-.6A1.09,1.09,0,0,1,5.37,5.45Z"/><path class="cls-2" d="M18.74,16.42q-1,0-1.9-.08t-1.59-.2l-1.09.12-1.23.08-1.27.05-1.25,0H9.19l-.35,0a.45.45,0,0,1-.22-.09.38.38,0,0,1-.12-.2,1.46,1.46,0,0,1,0-.36v-.62a1.61,1.61,0,0,1,0-.29.37.37,0,0,1,.31-.31,1.78,1.78,0,0,1,.4,0h2.2a2.91,2.91,0,0,1-.31-.5,4.19,4.19,0,0,1-.22-.53,3.66,3.66,0,0,1-.13-.51,2.4,2.4,0,0,1,0-.43A3.47,3.47,0,0,1,11.81,10a4,4,0,0,1,1.31-.8,4.85,4.85,0,0,1,1.74-.29,4,4,0,0,1,1.51.26,3.23,3.23,0,0,1,1.11.72,3,3,0,0,1,.68,1.06,3.61,3.61,0,0,1,.23,1.28,3.42,3.42,0,0,1-.06.61q-.06.32-.14.62c-.06.21-.12.4-.18.58s-.13.35-.18.49H20a1.79,1.79,0,0,1,.4,0,.41.41,0,0,1,.22.11.4.4,0,0,1,.09.2,1.6,1.6,0,0,1,0,.29v.62a1.46,1.46,0,0,1,0,.36.39.39,0,0,1-.12.2.45.45,0,0,1-.22.09l-.35,0ZM12,5.91a1.09,1.09,0,0,1,.09-.44,1.15,1.15,0,0,1,.6-.6,1.14,1.14,0,0,1,.88,0,1.15,1.15,0,0,1,.6.6,1.14,1.14,0,0,1,0,.88,1.15,1.15,0,0,1-.6.6,1.14,1.14,0,0,1-.88,0,1.15,1.15,0,0,1-.6-.6A1.09,1.09,0,0,1,12,5.91Zm.84,6.43a2.12,2.12,0,0,0,.18.89,2.07,2.07,0,0,0,.49.68,2.19,2.19,0,0,0,.72.44,2.52,2.52,0,0,0,.89.15h.34l.19-.4a4.79,4.79,0,0,0,.19-.49,4.5,4.5,0,0,0,.14-.55,3,3,0,0,0,.06-.57,2.3,2.3,0,0,0-.13-.79,1.71,1.71,0,0,0-.34-.58,1.42,1.42,0,0,0-.49-.35,1.41,1.41,0,0,0-.57-.12,1.92,1.92,0,0,0-.61.1,1.53,1.53,0,0,0-.54.31,1.56,1.56,0,0,0-.38.53A1.83,1.83,0,0,0,12.88,12.34Zm1.79-6.43a1.09,1.09,0,0,1,.09-.44,1.15,1.15,0,0,1,.6-.6,1.14,1.14,0,0,1,.88,0,1.15,1.15,0,0,1,.6.6,1.14,1.14,0,0,1,0,.88,1.15,1.15,0,0,1-.6.6,1.14,1.14,0,0,1-.88,0,1.15,1.15,0,0,1-.6-.6A1.09,1.09,0,0,1,14.67,5.91Z"/><path class="cls-2" d="M19.92,16.42l-.34,0a.41.41,0,0,1-.21-.09.35.35,0,0,1-.11-.2,1.93,1.93,0,0,1,0-.36v-.62a2.67,2.67,0,0,1,0-.29.37.37,0,0,1,.08-.2.38.38,0,0,1,.2-.11,1.66,1.66,0,0,1,.39,0h2.25V9.21h2.29v7.21Zm2.68,2.52a1.09,1.09,0,0,1,.09-.44,1.14,1.14,0,0,1,.6-.6,1.14,1.14,0,0,1,.88,0,1.15,1.15,0,0,1,.6.6,1.14,1.14,0,0,1,0,.88,1.15,1.15,0,0,1-.6.6,1.14,1.14,0,0,1-.88,0,1.14,1.14,0,0,1-.6-.6A1.09,1.09,0,0,1,22.61,18.94Z"/><path class="cls-2" d="M26.75,3.8H29V13a3.32,3.32,0,0,0,.07.73,1.18,1.18,0,0,0,.19.45.67.67,0,0,0,.33.23,1.49,1.49,0,0,0,.46.07h.43a1.67,1.67,0,0,1,.39,0,.38.38,0,0,1,.21.11.37.37,0,0,1,.08.2,2.65,2.65,0,0,1,0,.29v.62a1.93,1.93,0,0,1,0,.36.35.35,0,0,1-.11.2.41.41,0,0,1-.21.09l-.34,0h-1a3.37,3.37,0,0,1-1.26-.21,2.24,2.24,0,0,1-.86-.59,2.37,2.37,0,0,1-.5-.92,4.24,4.24,0,0,1-.16-1.19Z"/><path class="cls-2" d="M42.74,14.5a1.76,1.76,0,0,0,.5-.06.69.69,0,0,0,.33-.21.9.9,0,0,0,.19-.39,2.53,2.53,0,0,0,.06-.62v-4h2.29v4.31c0,.11,0,.21,0,.31s0,.2,0,.3a4.54,4.54,0,0,0,.93.26,5.92,5.92,0,0,0,1,.09h.07a1.67,1.67,0,0,1,.39,0,.38.38,0,0,1,.21.11.37.37,0,0,1,.08.2,2.65,2.65,0,0,1,0,.29v.62a1.93,1.93,0,0,1,0,.36.35.35,0,0,1-.11.2.41.41,0,0,1-.21.09l-.34,0H48a5,5,0,0,1-1.5-.2,4.19,4.19,0,0,1-1.09-.52,2.16,2.16,0,0,1-.77.53,2.89,2.89,0,0,1-1.12.19h-.39a4.7,4.7,0,0,1-1.57-.25,4.41,4.41,0,0,1-1.22-.64,2.21,2.21,0,0,1-.79.65,2.76,2.76,0,0,1-1.23.24h-.39a4.75,4.75,0,0,1-1.59-.25,4.36,4.36,0,0,1-1.23-.66,2.2,2.2,0,0,1-.8.66,2.76,2.76,0,0,1-1.24.25h-2.6l-.34,0a.41.41,0,0,1-.21-.09.35.35,0,0,1-.11-.2,1.93,1.93,0,0,1,0-.36v-.62a2.67,2.67,0,0,1,0-.29.37.37,0,0,1,.08-.2.38.38,0,0,1,.2-.11,1.66,1.66,0,0,1,.39,0H32.3a1.75,1.75,0,0,0,.5-.06.69.69,0,0,0,.33-.21.91.91,0,0,0,.19-.39,2.59,2.59,0,0,0,.06-.62V11h2.29v2.77a1.25,1.25,0,0,1,0,.21,4.66,4.66,0,0,0,1,.41,3.26,3.26,0,0,0,.93.14,1.76,1.76,0,0,0,.5-.06.69.69,0,0,0,.33-.21.9.9,0,0,0,.19-.39,2.53,2.53,0,0,0,.06-.62v-3H40.9v3.36c0,.07,0,.14,0,.22s0,.14,0,.21a4.62,4.62,0,0,0,.94.4A3.23,3.23,0,0,0,42.74,14.5Z"/><path class="cls-2" d="M48,16.42l-.34,0a.41.41,0,0,1-.21-.09.35.35,0,0,1-.11-.2,1.93,1.93,0,0,1,0-.36v-.62a2.67,2.67,0,0,1,0-.29.37.37,0,0,1,.08-.2.38.38,0,0,1,.2-.11,1.66,1.66,0,0,1,.39,0h2.09V3.79h2.29V16.42Z"/><path class="cls-2" d="M54.69,3.8H57V16.43H54.69Z"/><path class="cls-2" d="M75.9,14.5V9.21h2.29v7.21H68.05a11.83,11.83,0,0,1-1.82-.12,6.16,6.16,0,0,1-1.34-.35,3.2,3.2,0,0,1-.92-.54,2.5,2.5,0,0,1-.57-.69,2.78,2.78,0,0,1-.29-.81A4.7,4.7,0,0,1,63,13q0-.18,0-.41c0-.16,0-.32,0-.5s0-.35.07-.52,0-.34.08-.49l2,.18q-.06.33-.11.67a4.66,4.66,0,0,0,0,.67,2.47,2.47,0,0,0,.14.88,1.17,1.17,0,0,0,.52.58,3,3,0,0,0,1.08.33,12.9,12.9,0,0,0,1.8.1ZM68.62,5.91a1.09,1.09,0,0,1,.09-.44,1.15,1.15,0,0,1,.6-.6,1.14,1.14,0,0,1,.88,0,1.15,1.15,0,0,1,.6.6,1.14,1.14,0,0,1,0,.88,1.15,1.15,0,0,1-.6.6,1.14,1.14,0,0,1-.88,0,1.15,1.15,0,0,1-.6-.6A1.09,1.09,0,0,1,68.62,5.91Zm2.64,0a1.09,1.09,0,0,1,.09-.44,1.15,1.15,0,0,1,.6-.6,1.14,1.14,0,0,1,.88,0,1.15,1.15,0,0,1,.6.6,1.14,1.14,0,0,1,0,.88,1.15,1.15,0,0,1-.6.6,1.14,1.14,0,0,1-.88,0,1.15,1.15,0,0,1-.6-.6A1.09,1.09,0,0,1,71.25,5.91Z"/><path class="cls-2" d="M80.47,3.8h2.29V13a3.32,3.32,0,0,0,.07.73,1.18,1.18,0,0,0,.19.45.67.67,0,0,0,.33.23,1.49,1.49,0,0,0,.46.07h.43a1.67,1.67,0,0,1,.39,0,.38.38,0,0,1,.21.11.37.37,0,0,1,.08.2,2.65,2.65,0,0,1,0,.29v.62a1.93,1.93,0,0,1,0,.36.35.35,0,0,1-.11.2.41.41,0,0,1-.21.09l-.34,0h-1A3.37,3.37,0,0,1,82,16.21a2.24,2.24,0,0,1-.86-.59,2.37,2.37,0,0,1-.5-.92,4.24,4.24,0,0,1-.16-1.19Z"/><path class="cls-2" d="M88.56,13.53c0,.11,0,.21,0,.31s0,.2,0,.3a4.54,4.54,0,0,0,.93.26,5.92,5.92,0,0,0,1,.09h.07a1.67,1.67,0,0,1,.39,0,.38.38,0,0,1,.21.11.37.37,0,0,1,.08.2,2.65,2.65,0,0,1,0,.29v.62a1.93,1.93,0,0,1,0,.36.35.35,0,0,1-.11.2.41.41,0,0,1-.21.09l-.34,0h-.1a5,5,0,0,1-1.5-.2,4.17,4.17,0,0,1-1.09-.52,2.15,2.15,0,0,1-.77.53,2.88,2.88,0,0,1-1.12.19H84.2l-.34,0a.41.41,0,0,1-.21-.09.35.35,0,0,1-.11-.2,1.93,1.93,0,0,1,0-.36v-.62a2.67,2.67,0,0,1,0-.29.37.37,0,0,1,.08-.2.38.38,0,0,1,.2-.11,1.66,1.66,0,0,1,.39,0h1a1.75,1.75,0,0,0,.5-.06.69.69,0,0,0,.33-.21.91.91,0,0,0,.19-.39,2.59,2.59,0,0,0,.06-.62v-4h2.29Zm-3.73,5.41a1.09,1.09,0,0,1,.09-.44,1.14,1.14,0,0,1,.6-.6,1.14,1.14,0,0,1,.88,0,1.15,1.15,0,0,1,.6.6,1.14,1.14,0,0,1,0,.88,1.15,1.15,0,0,1-.6.6,1.14,1.14,0,0,1-.88,0,1.14,1.14,0,0,1-.6-.6A1.09,1.09,0,0,1,84.83,18.94Zm2.64,0a1.09,1.09,0,0,1,.09-.44,1.14,1.14,0,0,1,.6-.6,1.14,1.14,0,0,1,.88,0,1.15,1.15,0,0,1,.6.6,1.14,1.14,0,0,1,0,.88,1.15,1.15,0,0,1-.6.6,1.14,1.14,0,0,1-.88,0,1.14,1.14,0,0,1-.6-.6A1.09,1.09,0,0,1,87.47,18.94Z"/><path class="cls-2" d="M90.48,16.42l-.34,0a.41.41,0,0,1-.21-.09.35.35,0,0,1-.11-.2,1.93,1.93,0,0,1,0-.36v-.62a2.67,2.67,0,0,1,0-.29.37.37,0,0,1,.08-.2.38.38,0,0,1,.2-.11,1.66,1.66,0,0,1,.39,0h2.09V3.79h2.29V16.42Z"/><path class="cls-2" d="M97.15,3.8h2.29V13a3.32,3.32,0,0,0,.07.73,1.18,1.18,0,0,0,.19.45.67.67,0,0,0,.33.23,1.49,1.49,0,0,0,.46.07h.43a1.67,1.67,0,0,1,.39,0,.38.38,0,0,1,.21.11.37.37,0,0,1,.08.2,2.65,2.65,0,0,1,0,.29v.62a1.93,1.93,0,0,1,0,.36.35.35,0,0,1-.11.2.41.41,0,0,1-.21.09l-.34,0h-1a3.37,3.37,0,0,1-1.26-.21,2.24,2.24,0,0,1-.86-.59,2.37,2.37,0,0,1-.5-.92,4.24,4.24,0,0,1-.16-1.19Z"/><path class="cls-2" d="M111.84,15.74a1.93,1.93,0,0,1,0,.36.35.35,0,0,1-.11.2.41.41,0,0,1-.21.09l-.34,0H109.8a7.79,7.79,0,0,1-1.25-.1,9.55,9.55,0,0,1-1.09-.24,8,8,0,0,1-.89-.31l-.65-.3a8.66,8.66,0,0,1-.8.36,8.38,8.38,0,0,1-.93.3,9,9,0,0,1-1,.21,7.82,7.82,0,0,1-1.12.08h-1.15l-.34,0a.41.41,0,0,1-.21-.09.35.35,0,0,1-.11-.2,1.93,1.93,0,0,1,0-.36v-.62a2.67,2.67,0,0,1,0-.29.37.37,0,0,1,.08-.2.38.38,0,0,1,.2-.11,1.66,1.66,0,0,1,.39,0h1.27a8.57,8.57,0,0,0,1.29-.09,4.72,4.72,0,0,0,.88-.2,6.9,6.9,0,0,1-.51-.5l-.5-.56-.45-.54-.36-.47-.39-.52-.22-.27a3.39,3.39,0,0,1,.12-.43c.06-.17.12-.33.19-.5a3.05,3.05,0,0,1,.23-.44.86.86,0,0,1,.26-.28c.19-.1.43-.21.7-.32a8.73,8.73,0,0,1,.93-.32,10.12,10.12,0,0,1,1.12-.24,8,8,0,0,1,1.26-.1,5.74,5.74,0,0,1,1.08.11,3.81,3.81,0,0,1,1,.33,2.13,2.13,0,0,1,.73.58,1.34,1.34,0,0,1,.29.86,2.9,2.9,0,0,1-.08.62,3.73,3.73,0,0,1-.3.81,7.2,7.2,0,0,1-.6,1,10,10,0,0,1-1,1.16l.49.12.6.1.67.07.68,0h.89a1.67,1.67,0,0,1,.39,0,.38.38,0,0,1,.21.11.37.37,0,0,1,.08.2,2.65,2.65,0,0,1,0,.29Zm-5.77-2.28a5.86,5.86,0,0,0,.72-.62,4.28,4.28,0,0,0,.48-.58,2.42,2.42,0,0,0,.27-.51,1.21,1.21,0,0,0,.08-.39.63.63,0,0,0-.11-.36,1,1,0,0,0-.33-.29,2,2,0,0,0-.5-.2,2.62,2.62,0,0,0-.64-.07,3.73,3.73,0,0,0-.48,0,5.09,5.09,0,0,0-.55.11l-.57.17a5.49,5.49,0,0,0-.53.21,6.71,6.71,0,0,0,.38.57q.25.34.54.69t.62.69A5.3,5.3,0,0,0,106.08,13.47Z"/><path class="cls-2" d="M120.66,16.42q-1,0-1.9-.08t-1.59-.2l-1.09.12-1.23.08-1.27.05-1.25,0h-1.2l-.35,0a.45.45,0,0,1-.22-.09.38.38,0,0,1-.12-.2,1.46,1.46,0,0,1,0-.36v-.62a1.61,1.61,0,0,1,0-.29.37.37,0,0,1,.31-.31,1.78,1.78,0,0,1,.4,0h2.2A2.91,2.91,0,0,1,113,14a4.19,4.19,0,0,1-.22-.53,3.66,3.66,0,0,1-.13-.51,2.4,2.4,0,0,1,0-.43A3.47,3.47,0,0,1,113.73,10a4,4,0,0,1,1.31-.8,4.85,4.85,0,0,1,1.74-.29,4,4,0,0,1,1.51.26,3.23,3.23,0,0,1,1.11.72,3,3,0,0,1,.68,1.06,3.61,3.61,0,0,1,.23,1.28,3.42,3.42,0,0,1-.06.61q-.06.32-.14.62c-.06.21-.12.4-.18.58s-.13.35-.18.49h2.13a1.79,1.79,0,0,1,.4,0,.41.41,0,0,1,.22.11.4.4,0,0,1,.09.2,1.6,1.6,0,0,1,0,.29v.62a1.46,1.46,0,0,1,0,.36.39.39,0,0,1-.12.2.45.45,0,0,1-.22.09l-.35,0Zm-5.86-4.08a2.12,2.12,0,0,0,.18.89,2.07,2.07,0,0,0,.49.68,2.19,2.19,0,0,0,.72.44,2.52,2.52,0,0,0,.89.15h.34l.19-.4a4.79,4.79,0,0,0,.19-.49,4.5,4.5,0,0,0,.14-.55,3,3,0,0,0,.06-.57,2.3,2.3,0,0,0-.13-.79,1.71,1.71,0,0,0-.34-.58,1.42,1.42,0,0,0-.49-.35,1.41,1.41,0,0,0-.57-.12,1.92,1.92,0,0,0-.61.1,1.53,1.53,0,0,0-.54.31,1.56,1.56,0,0,0-.38.53A1.83,1.83,0,0,0,114.79,12.34Zm.49-6.43a1.09,1.09,0,0,1,.09-.44,1.15,1.15,0,0,1,.6-.6,1.14,1.14,0,0,1,.88,0,1.15,1.15,0,0,1,.6.6,1.14,1.14,0,0,1,0,.88,1.15,1.15,0,0,1-.6.6,1.14,1.14,0,0,1-.88,0,1.15,1.15,0,0,1-.6-.6A1.09,1.09,0,0,1,115.29,5.91Z"/><path class="cls-2" d="M121.84,16.42l-.34,0a.41.41,0,0,1-.21-.09.35.35,0,0,1-.11-.2,1.93,1.93,0,0,1,0-.36v-.62a2.67,2.67,0,0,1,0-.29.37.37,0,0,1,.08-.2.38.38,0,0,1,.2-.11,1.66,1.66,0,0,1,.39,0h2.09V3.79h2.29V16.42Z"/><path class="cls-2" d="M128.5,3.8h2.29V16.43H128.5Z"/></g></g></svg>