<svg xmlns="http://www.w3.org/2000/svg" viewBox="0 0 82.65 23"><defs><style>.cls-1{fill:#f6cc00;stroke:#f6cc00;stroke-miterlimit:10;stroke-width:2px;}.cls-2{fill:#5a8d9b;}</style></defs><title>حجز فضاء</title><g id="Layer_2" data-name="Layer 2"><g id="Layer_1-2" data-name="Layer 1"><circle class="cls-1" cx="71.15" cy="11.5" r="10.5"/><path class="cls-2" d="M5.82,12l-.43-.08L5,11.86l-.39,0H4.18a1.69,1.69,0,0,0-.48.07,1.23,1.23,0,0,0-.42.22,1.07,1.07,0,0,0-.3.37,1.15,1.15,0,0,0-.11.53,1.26,1.26,0,0,0,.21.73,1.63,1.63,0,0,0,.55.49,2.67,2.67,0,0,0,.75.28,4,4,0,0,0,.83.09h1v1.84H0V14.58H1.59a2.51,2.51,0,0,1,.16-3.94,3.19,3.19,0,0,1,1-.49A4.58,4.58,0,0,1,4,10h.44l.45,0,.5.05.59.08Z"/><path class="cls-2" d="M8,3.8h2.29V13a3.32,3.32,0,0,0,.07.73,1.18,1.18,0,0,0,.19.45.67.67,0,0,0,.33.23,1.49,1.49,0,0,0,.46.07h.43a1.67,1.67,0,0,1,.39,0,.38.38,0,0,1,.21.11.37.37,0,0,1,.08.2,2.65,2.65,0,0,1,0,.29v.62a1.93,1.93,0,0,1,0,.36.35.35,0,0,1-.11.2.41.41,0,0,1-.21.09l-.34,0h-1a3.37,3.37,0,0,1-1.26-.21,2.24,2.24,0,0,1-.86-.59,2.37,2.37,0,0,1-.5-.92A4.24,4.24,0,0,1,8,13.5Z"/><path class="cls-2" d="M15.83,13.53a4.29,4.29,0,0,1,0,.47,3,3,0,0,0,1,.38,7.81,7.81,0,0,0,1.05.11,13.05,13.05,0,0,1,.54-1.21A12.1,12.1,0,0,1,19.2,12a11,11,0,0,1,1-1.27,7.7,7.7,0,0,1,1.23-1.09,6.14,6.14,0,0,1,1.45-.76,4.86,4.86,0,0,1,1.67-.29,4.15,4.15,0,0,1,1.78.35,3.41,3.41,0,0,1,1.24,1,4.06,4.06,0,0,1,.72,1.45,6.68,6.68,0,0,1,.23,1.8V14.5H30.1a1.67,1.67,0,0,1,.39,0,.38.38,0,0,1,.21.11.37.37,0,0,1,.08.2,2.65,2.65,0,0,1,0,.29v.62a1.93,1.93,0,0,1,0,.36.35.35,0,0,1-.11.2.41.41,0,0,1-.21.09l-.34,0H18.79a9,9,0,0,1-2.05-.21,3.47,3.47,0,0,1-1.46-.69,2.25,2.25,0,0,1-.8.65,2.76,2.76,0,0,1-1.24.25H11.76l-.34,0a.41.41,0,0,1-.21-.09.35.35,0,0,1-.11-.2,1.93,1.93,0,0,1,0-.36v-.62a2.67,2.67,0,0,1,0-.29.37.37,0,0,1,.08-.2.38.38,0,0,1,.2-.11,1.66,1.66,0,0,1,.39,0h.7a1.75,1.75,0,0,0,.5-.06.69.69,0,0,0,.33-.21.91.91,0,0,0,.19-.39,2.59,2.59,0,0,0,.06-.62V11h2.29Zm10.42-.21a4.81,4.81,0,0,0-.17-1.37,2.44,2.44,0,0,0-.45-.88,1.59,1.59,0,0,0-.67-.47,2.37,2.37,0,0,0-.82-.14,2.49,2.49,0,0,0-1.19.33,4.79,4.79,0,0,0-1.14.88,7.25,7.25,0,0,0-1,1.29,8.31,8.31,0,0,0-.74,1.55h6.16ZM21,5.91a1.09,1.09,0,0,1,.09-.44,1.15,1.15,0,0,1,.6-.6,1.14,1.14,0,0,1,.88,0,1.15,1.15,0,0,1,.6.6,1.14,1.14,0,0,1,0,.88,1.15,1.15,0,0,1-.6.6,1.14,1.14,0,0,1-.88,0,1.15,1.15,0,0,1-.6-.6A1.09,1.09,0,0,1,21,5.91Z"/><path class="cls-2" d="M33.09,14.5a1.67,1.67,0,0,1,.39,0,.38.38,0,0,1,.21.11.37.37,0,0,1,.08.2,2.65,2.65,0,0,1,0,.29v.62a1.93,1.93,0,0,1,0,.36.35.35,0,0,1-.11.2.41.41,0,0,1-.21.09l-.34,0H29.76l-.34,0a.41.41,0,0,1-.21-.09.35.35,0,0,1-.11-.2,1.93,1.93,0,0,1,0-.36v-.62a2.67,2.67,0,0,1,0-.29.37.37,0,0,1,.08-.2.38.38,0,0,1,.2-.11,1.66,1.66,0,0,1,.39,0Z"/><path class="cls-2" d="M35.27,12.68a3.74,3.74,0,0,1,.3-1.49A3.7,3.7,0,0,1,36.4,10a3.9,3.9,0,0,1,1.27-.81,4.59,4.59,0,0,1,3.12,0,3.08,3.08,0,0,1,1.14.74A3.27,3.27,0,0,1,42.65,11a4.66,4.66,0,0,1,.25,1.58v3.8H33.06l-.35,0a.45.45,0,0,1-.22-.09.38.38,0,0,1-.12-.2,1.46,1.46,0,0,1,0-.36v-.62a1.61,1.61,0,0,1,0-.29.37.37,0,0,1,.31-.31,1.78,1.78,0,0,1,.4,0h2.7a3.24,3.24,0,0,1-.34-.82A3.63,3.63,0,0,1,35.27,12.68Zm5.34,1.82V13a3.72,3.72,0,0,0-.13-1.07,2,2,0,0,0-.35-.69,1.24,1.24,0,0,0-.5-.37,1.6,1.6,0,0,0-.58-.11,1.44,1.44,0,0,0-.63.14,1.55,1.55,0,0,0-.51.39,2,2,0,0,0-.34.6,2.22,2.22,0,0,0-.13.77,2,2,0,0,0,.14.76A1.68,1.68,0,0,0,38,14a1.75,1.75,0,0,0,.63.38,2.54,2.54,0,0,0,.85.13ZM38.2,5.91a1.09,1.09,0,0,1,.09-.44,1.15,1.15,0,0,1,.6-.6,1.14,1.14,0,0,1,.88,0,1.15,1.15,0,0,1,.6.6,1.14,1.14,0,0,1,0,.88,1.15,1.15,0,0,1-.6.6,1.14,1.14,0,0,1-.88,0,1.15,1.15,0,0,1-.6-.6A1.09,1.09,0,0,1,38.2,5.91Z"/><path class="cls-2" d="M48.81,18.1A5.21,5.21,0,0,0,50,17.72a2,2,0,0,0,.73-.57,1.91,1.91,0,0,0,.35-.8,5.53,5.53,0,0,0,.09-1.08V9.21h2.29V14.5h1.77a1.67,1.67,0,0,1,.39,0,.38.38,0,0,1,.21.11.37.37,0,0,1,.08.2,2.65,2.65,0,0,1,0,.29v.62a1.93,1.93,0,0,1,0,.36.35.35,0,0,1-.11.2.41.41,0,0,1-.21.09l-.34,0H53.38a4.88,4.88,0,0,1-.46,1.46,3.31,3.31,0,0,1-.85,1,4.39,4.39,0,0,1-1.26.7A8.73,8.73,0,0,1,49.1,20Zm2.4-12.19a1.09,1.09,0,0,1,.09-.44,1.15,1.15,0,0,1,.6-.6,1.14,1.14,0,0,1,.88,0,1.15,1.15,0,0,1,.6.6,1.14,1.14,0,0,1,0,.88,1.15,1.15,0,0,1-.6.6,1.14,1.14,0,0,1-.88,0,1.15,1.15,0,0,1-.6-.6A1.09,1.09,0,0,1,51.21,5.91Z"/><path class="cls-2" d="M58.27,14.5a1.67,1.67,0,0,1,.39,0,.38.38,0,0,1,.21.11.37.37,0,0,1,.08.2,2.65,2.65,0,0,1,0,.29v.62a1.93,1.93,0,0,1,0,.36.35.35,0,0,1-.11.2.41.41,0,0,1-.21.09l-.34,0H54.94l-.34,0a.41.41,0,0,1-.21-.09.35.35,0,0,1-.11-.2,1.93,1.93,0,0,1,0-.36v-.62a2.67,2.67,0,0,1,0-.29.37.37,0,0,1,.08-.2.38.38,0,0,1,.2-.11,1.66,1.66,0,0,1,.39,0Z"/><path class="cls-2" d="M59.54,9.18q.62-.18,1.23-.32a6.45,6.45,0,0,1,1.39-.14,3.77,3.77,0,0,1,1.35.22,3,3,0,0,1,1,.62,3.14,3.14,0,0,1,.68,1,4.53,4.53,0,0,1,.37,1.21q.08.54.16,1a8.91,8.91,0,0,0,.19.88,2.3,2.3,0,0,0,.25.61.42.42,0,0,0,.36.23h.83a1.67,1.67,0,0,1,.39,0,.38.38,0,0,1,.21.11.37.37,0,0,1,.08.2,2.65,2.65,0,0,1,0,.29v.62a1.93,1.93,0,0,1,0,.36.35.35,0,0,1-.11.2.41.41,0,0,1-.21.09l-.34,0H58.2l-.34,0a.41.41,0,0,1-.21-.09.35.35,0,0,1-.11-.2,1.93,1.93,0,0,1,0-.36v-.62a2.67,2.67,0,0,1,0-.29.37.37,0,0,1,.08-.2.38.38,0,0,1,.2-.11,1.66,1.66,0,0,1,.39,0H64a4.74,4.74,0,0,1-.22-.55,4.05,4.05,0,0,1-.16-.65q-.07-.49-.17-1a3.4,3.4,0,0,0-.3-.88,1.81,1.81,0,0,0-.54-.64,1.45,1.45,0,0,0-.88-.25l-.45,0-.56.08a6.11,6.11,0,0,0-.6.14,4.65,4.65,0,0,0-.57.2Zm1.68,9.76a1.09,1.09,0,0,1,.09-.44,1.14,1.14,0,0,1,.6-.6,1.14,1.14,0,0,1,.88,0,1.15,1.15,0,0,1,.6.6,1.14,1.14,0,0,1,0,.88,1.15,1.15,0,0,1-.6.6,1.14,1.14,0,0,1-.88,0,1.14,1.14,0,0,1-.6-.6A1.09,1.09,0,0,1,61.22,18.94Z"/><path class="cls-2" d="M68.61,9.18q.62-.18,1.23-.32a6.27,6.27,0,0,1,1.38-.14,3.8,3.8,0,0,1,1.36.22,3,3,0,0,1,1,.62,3.14,3.14,0,0,1,.68,1,4.53,4.53,0,0,1,.37,1.21q.08.54.17,1a5.19,5.19,0,0,0,.23.88,1.78,1.78,0,0,0,.36.61.72.72,0,0,0,.55.23v1.92H67.28l-.34,0a.41.41,0,0,1-.21-.09.35.35,0,0,1-.11-.2,1.93,1.93,0,0,1,0-.36v-.62a2.67,2.67,0,0,1,0-.29.37.37,0,0,1,.08-.2.38.38,0,0,1,.2-.11,1.66,1.66,0,0,1,.39,0h5.78a2.46,2.46,0,0,1-.25-.58,5.83,5.83,0,0,1-.13-.62q-.07-.49-.17-1a3.4,3.4,0,0,0-.3-.88,1.81,1.81,0,0,0-.54-.64,1.45,1.45,0,0,0-.88-.25,6.36,6.36,0,0,0-2.19.45Z"/></g></g></svg>