<svg xmlns="http://www.w3.org/2000/svg" viewBox="0 0 103.41 23"><defs><style>.cls-1{fill:#f6cc00;stroke:#f6cc00;stroke-miterlimit:10;stroke-width:2px;}.cls-2{fill:#5a8d9b;}</style></defs><title>معرفة المزيد</title><g id="Layer_2" data-name="Layer 2"><g id="Layer_1-2" data-name="Layer 1"><circle class="cls-1" cx="91.91" cy="11.5" r="10.5"/><path class="cls-2" d="M0,16.42V14.5H3.38a3.79,3.79,0,0,0,.86-.08,1.24,1.24,0,0,0,.51-.22A.71.71,0,0,0,5,13.84,1.5,1.5,0,0,0,5,13.41a2,2,0,0,0-.25-.91,5.68,5.68,0,0,0-.67-1,11.39,11.39,0,0,0-.94-1q-.52-.5-1.06-.93L3.76,7.95A13.27,13.27,0,0,1,6.37,10.7a4.62,4.62,0,0,1,.9,2.54,3.69,3.69,0,0,1-.1.84,4,4,0,0,0,1,.31,6,6,0,0,0,1.09.1h.07a1.67,1.67,0,0,1,.39,0,.38.38,0,0,1,.21.11.37.37,0,0,1,.08.2,2.66,2.66,0,0,1,0,.29v.62a1.93,1.93,0,0,1,0,.36.35.35,0,0,1-.11.2.41.41,0,0,1-.21.09l-.34,0h-.1a4.84,4.84,0,0,1-1.68-.25,3.84,3.84,0,0,1-1.17-.67,3.35,3.35,0,0,1-1.22.68,5.82,5.82,0,0,1-1.81.25Z"/><path class="cls-2" d="M9.24,16.42l-.34,0a.41.41,0,0,1-.21-.09.35.35,0,0,1-.11-.2,1.93,1.93,0,0,1,0-.36v-.62a2.66,2.66,0,0,1,0-.29.37.37,0,0,1,.08-.2.38.38,0,0,1,.2-.11,1.66,1.66,0,0,1,.39,0h2.25V9.21h2.29v7.21Zm.61,2.52a1.09,1.09,0,0,1,.09-.44,1.14,1.14,0,0,1,.6-.6,1.14,1.14,0,0,1,.88,0,1.14,1.14,0,0,1,.6.6,1.14,1.14,0,0,1,0,.88,1.14,1.14,0,0,1-.6.6,1.14,1.14,0,0,1-.88,0,1.14,1.14,0,0,1-.6-.6A1.09,1.09,0,0,1,9.84,18.94Zm2.64,0a1.09,1.09,0,0,1,.09-.44,1.14,1.14,0,0,1,.6-.6,1.14,1.14,0,0,1,.88,0,1.14,1.14,0,0,1,.6.6,1.14,1.14,0,0,1,0,.88,1.14,1.14,0,0,1-.6.6,1.14,1.14,0,0,1-.88,0,1.14,1.14,0,0,1-.6-.6A1.09,1.09,0,0,1,12.48,18.94Z"/><path class="cls-2" d="M14.87,18.1a5.21,5.21,0,0,0,1.24-.38,2,2,0,0,0,.73-.57,1.91,1.91,0,0,0,.35-.8,5.53,5.53,0,0,0,.09-1.08V9.21h2.29V14.5h1.77a1.67,1.67,0,0,1,.39,0,.38.38,0,0,1,.21.11.37.37,0,0,1,.08.2,2.66,2.66,0,0,1,0,.29v.62a1.93,1.93,0,0,1,0,.36.35.35,0,0,1-.11.2.41.41,0,0,1-.21.09l-.34,0H19.45A4.88,4.88,0,0,1,19,17.88a3.31,3.31,0,0,1-.85,1,4.39,4.39,0,0,1-1.26.7,8.73,8.73,0,0,1-1.71.42Zm2.4-12.19a1.09,1.09,0,0,1,.09-.44,1.15,1.15,0,0,1,.6-.6,1.14,1.14,0,0,1,.88,0,1.15,1.15,0,0,1,.6.6,1.14,1.14,0,0,1,0,.88,1.15,1.15,0,0,1-.6.6,1.14,1.14,0,0,1-.88,0,1.15,1.15,0,0,1-.6-.6A1.09,1.09,0,0,1,17.27,5.91Z"/><path class="cls-2" d="M27.44,16.52a5.29,5.29,0,0,1-1.11-.11,4.69,4.69,0,0,1-.88-.28,3.67,3.67,0,0,1-.69-.39q-.29-.22-.53-.43A2.6,2.6,0,0,1,22,16.42h-.69l-.34,0a.41.41,0,0,1-.21-.09.35.35,0,0,1-.11-.2,1.93,1.93,0,0,1,0-.36v-.62a2.66,2.66,0,0,1,0-.29.37.37,0,0,1,.08-.2.38.38,0,0,1,.2-.11,1.66,1.66,0,0,1,.39,0h.42a1.28,1.28,0,0,0,.76-.23,1.3,1.3,0,0,0,.47-.71,9.63,9.63,0,0,1,1-2.32A5.52,5.52,0,0,1,25,9.88a3.32,3.32,0,0,1,1.16-.64,3.79,3.79,0,0,1,1-.16,3.85,3.85,0,0,1,1.19.17,3.67,3.67,0,0,1,1,.46,3.4,3.4,0,0,1,.74.68,4.14,4.14,0,0,1,.52.82A4.25,4.25,0,0,1,31,13a3.73,3.73,0,0,1,0,.51,3.62,3.62,0,0,1-.11.5,3.75,3.75,0,0,0,1,.37,6,6,0,0,0,1.21.12h.07a1.67,1.67,0,0,1,.39,0,.38.38,0,0,1,.21.11.37.37,0,0,1,.08.2,2.66,2.66,0,0,1,0,.29v.62a1.93,1.93,0,0,1,0,.36.35.35,0,0,1-.11.2.41.41,0,0,1-.21.09l-.34,0h-.1a5.79,5.79,0,0,1-1-.07,4.18,4.18,0,0,1-.8-.22,3.84,3.84,0,0,1-.66-.33,3.61,3.61,0,0,1-.54-.41,3.47,3.47,0,0,1-1.14.82A3.77,3.77,0,0,1,27.44,16.52ZM28.92,13a2.17,2.17,0,0,0-.11-.66,2.26,2.26,0,0,0-.34-.66,2,2,0,0,0-.57-.51,1.46,1.46,0,0,0-.78-.21,1.29,1.29,0,0,0-.78.26,2.58,2.58,0,0,0-.63.68,5,5,0,0,0-.48,1,7,7,0,0,0-.32,1.12,1.45,1.45,0,0,0,.35.24,3.72,3.72,0,0,0,.54.22,5.2,5.2,0,0,0,.62.17,3.11,3.11,0,0,0,.61.07,3,3,0,0,0,.78-.09,1.62,1.62,0,0,0,.6-.29,1.26,1.26,0,0,0,.38-.51A2,2,0,0,0,28.92,13Z"/><path class="cls-2" d="M33.15,16.42l-.34,0a.41.41,0,0,1-.21-.09.35.35,0,0,1-.11-.2,1.93,1.93,0,0,1,0-.36v-.62a2.66,2.66,0,0,1,0-.29.37.37,0,0,1,.08-.2.38.38,0,0,1,.2-.11,1.66,1.66,0,0,1,.39,0h2.09V3.79h2.29V16.42Z"/><path class="cls-2" d="M39.81,3.8H42.1V16.43H39.81Z"/><path class="cls-2" d="M55.92,13.41a3.64,3.64,0,0,0,0,.52.74.74,0,0,0,.12.33.49.49,0,0,0,.25.18,1.45,1.45,0,0,0,.44.05h.63a1.67,1.67,0,0,1,.39,0,.38.38,0,0,1,.21.11.37.37,0,0,1,.08.2,2.66,2.66,0,0,1,0,.29v.62a1.93,1.93,0,0,1,0,.36.35.35,0,0,1-.11.2.41.41,0,0,1-.21.09l-.34,0h-1a5,5,0,0,1-1-.09,3.07,3.07,0,0,1-.73-.25,1.73,1.73,0,0,1-.8-.8,4.64,4.64,0,0,1-1.11.42,5,5,0,0,1-1.12.12,4.6,4.6,0,0,1-1.2-.16,3.49,3.49,0,0,1-1.1-.51,2.72,2.72,0,0,1-.8-.88,2.56,2.56,0,0,1-.31-1.3,2.72,2.72,0,0,1,.26-1.21,3.47,3.47,0,0,1,.71-1,5.32,5.32,0,0,1,1-.76,9.31,9.31,0,0,1,1.18-.58A12.29,12.29,0,0,1,52.53,9l1.12-.3v-1h2.27Zm-2.27-2.9a10.53,10.53,0,0,0-1.36.37,5.1,5.1,0,0,0-1,.49,2.22,2.22,0,0,0-.67.62,1.35,1.35,0,0,0-.23.77,1.1,1.1,0,0,0,.49,1,1.45,1.45,0,0,0,.49.21,2.47,2.47,0,0,0,.54.06,3.33,3.33,0,0,0,1-.14,3.18,3.18,0,0,0,.82-.37ZM50.89,5.45A1.09,1.09,0,0,1,51,5a1.15,1.15,0,0,1,.6-.6,1.14,1.14,0,0,1,.88,0,1.15,1.15,0,0,1,.6.6,1.14,1.14,0,0,1,0,.88,1.15,1.15,0,0,1-.6.6,1.14,1.14,0,0,1-.88,0,1.15,1.15,0,0,1-.6-.6A1.09,1.09,0,0,1,50.89,5.45Zm2.64,0A1.09,1.09,0,0,1,53.61,5a1.15,1.15,0,0,1,.6-.6,1.14,1.14,0,0,1,.88,0,1.15,1.15,0,0,1,.6.6,1.14,1.14,0,0,1,0,.88,1.15,1.15,0,0,1-.6.6,1.14,1.14,0,0,1-.88,0,1.15,1.15,0,0,1-.6-.6A1.09,1.09,0,0,1,53.53,5.45Z"/><path class="cls-2" d="M59.57,12.68A3.72,3.72,0,0,1,60.7,10,3.9,3.9,0,0,1,62,9.16a4.59,4.59,0,0,1,3.12,0,3.07,3.07,0,0,1,1.14.74A3.27,3.27,0,0,1,67,11a4.65,4.65,0,0,1,.25,1.58v3.8H57.36l-.35,0a.45.45,0,0,1-.22-.09.38.38,0,0,1-.12-.2,1.46,1.46,0,0,1,0-.36v-.62a1.61,1.61,0,0,1,0-.29.4.4,0,0,1,.09-.2.41.41,0,0,1,.22-.11,1.78,1.78,0,0,1,.4,0h2.7a3.24,3.24,0,0,1-.34-.82A3.63,3.63,0,0,1,59.57,12.68Zm5.34,1.82V13a3.72,3.72,0,0,0-.13-1.07,2,2,0,0,0-.35-.69,1.24,1.24,0,0,0-.5-.37,1.6,1.6,0,0,0-.58-.11,1.44,1.44,0,0,0-.63.14,1.55,1.55,0,0,0-.51.39,2,2,0,0,0-.34.6,2.22,2.22,0,0,0-.13.77,2,2,0,0,0,.14.76,1.68,1.68,0,0,0,.4.59,1.75,1.75,0,0,0,.63.38,2.54,2.54,0,0,0,.85.13ZM62.5,5.91a1.09,1.09,0,0,1,.09-.44,1.15,1.15,0,0,1,.6-.6,1.14,1.14,0,0,1,.88,0,1.15,1.15,0,0,1,.6.6,1.14,1.14,0,0,1,0,.88,1.15,1.15,0,0,1-.6.6,1.14,1.14,0,0,1-.88,0,1.15,1.15,0,0,1-.6-.6A1.09,1.09,0,0,1,62.5,5.91Z"/><path class="cls-2" d="M68.11,18.1a5.21,5.21,0,0,0,1.24-.38,2,2,0,0,0,.73-.57,1.91,1.91,0,0,0,.35-.8,5.53,5.53,0,0,0,.09-1.08V9.21h2.29V14.5h1.77a1.67,1.67,0,0,1,.39,0,.38.38,0,0,1,.21.11.37.37,0,0,1,.08.2,2.66,2.66,0,0,1,0,.29v.62a1.93,1.93,0,0,1,0,.36.35.35,0,0,1-.11.2.41.41,0,0,1-.21.09l-.34,0H72.69a4.88,4.88,0,0,1-.46,1.46,3.31,3.31,0,0,1-.85,1,4.39,4.39,0,0,1-1.26.7,8.73,8.73,0,0,1-1.71.42Z"/><path class="cls-2" d="M85.47,15.74a1.93,1.93,0,0,1,0,.36.35.35,0,0,1-.11.2.41.41,0,0,1-.21.09l-.34,0H83.43a7.78,7.78,0,0,1-1.25-.1,9.56,9.56,0,0,1-1.09-.24,8,8,0,0,1-.89-.31l-.65-.3a8.65,8.65,0,0,1-.8.36,8.39,8.39,0,0,1-.93.3,9,9,0,0,1-1,.21,7.82,7.82,0,0,1-1.12.08H74.5l-.34,0a.41.41,0,0,1-.21-.09.35.35,0,0,1-.11-.2,1.93,1.93,0,0,1,0-.36v-.62a2.66,2.66,0,0,1,0-.29.37.37,0,0,1,.08-.2.38.38,0,0,1,.2-.11,1.66,1.66,0,0,1,.39,0h1.27a8.58,8.58,0,0,0,1.29-.09,4.72,4.72,0,0,0,.88-.2,6.9,6.9,0,0,1-.51-.5l-.5-.56-.45-.54-.36-.47-.39-.52-.22-.27a3.4,3.4,0,0,1,.12-.43c.06-.17.12-.33.19-.5a3.05,3.05,0,0,1,.23-.44.86.86,0,0,1,.26-.28c.19-.1.43-.21.7-.32a8.74,8.74,0,0,1,.93-.32,10.12,10.12,0,0,1,1.12-.24,8,8,0,0,1,1.26-.1,5.75,5.75,0,0,1,1.09.11,3.8,3.8,0,0,1,1,.33,2.13,2.13,0,0,1,.73.58,1.34,1.34,0,0,1,.29.86,2.9,2.9,0,0,1-.08.62A3.73,3.73,0,0,1,83,12a7.2,7.2,0,0,1-.6,1,10,10,0,0,1-1,1.16l.49.12.6.1.67.07.68,0h.89a1.67,1.67,0,0,1,.39,0,.38.38,0,0,1,.21.11.37.37,0,0,1,.08.2,2.66,2.66,0,0,1,0,.29Zm-5.77-2.28a5.87,5.87,0,0,0,.73-.62,4.28,4.28,0,0,0,.48-.58,2.42,2.42,0,0,0,.27-.51,1.21,1.21,0,0,0,.08-.39.63.63,0,0,0-.11-.36,1,1,0,0,0-.33-.29,2,2,0,0,0-.5-.2,2.62,2.62,0,0,0-.64-.07,3.72,3.72,0,0,0-.48,0,5.09,5.09,0,0,0-.55.11l-.57.17a5.49,5.49,0,0,0-.53.21,6.71,6.71,0,0,0,.38.57q.25.34.54.69t.62.69A5.3,5.3,0,0,0,79.71,13.47Z"/><path class="cls-2" d="M90.89,16.52a5.29,5.29,0,0,1-1.11-.11,4.69,4.69,0,0,1-.88-.28,3.67,3.67,0,0,1-.69-.39q-.29-.22-.53-.43a2.6,2.6,0,0,1-2.27,1.1h-.69l-.34,0a.41.41,0,0,1-.21-.09.35.35,0,0,1-.11-.2,1.93,1.93,0,0,1,0-.36v-.62a2.66,2.66,0,0,1,0-.29.37.37,0,0,1,.08-.2.38.38,0,0,1,.2-.11,1.66,1.66,0,0,1,.39,0h.42a1.28,1.28,0,0,0,.76-.23,1.3,1.3,0,0,0,.47-.71,9.63,9.63,0,0,1,1-2.32A5.52,5.52,0,0,1,88.5,9.88a3.32,3.32,0,0,1,1.16-.64,3.79,3.79,0,0,1,1-.16,3.85,3.85,0,0,1,1.19.17,3.67,3.67,0,0,1,1,.46,3.4,3.4,0,0,1,.74.68,4.14,4.14,0,0,1,.52.82A4.25,4.25,0,0,1,94.49,13a3.72,3.72,0,0,1-.24,1.32,3.32,3.32,0,0,1-1.82,1.91A3.81,3.81,0,0,1,90.89,16.52ZM92.36,13a2.17,2.17,0,0,0-.11-.66,2.26,2.26,0,0,0-.34-.66,2,2,0,0,0-.57-.51,1.46,1.46,0,0,0-.78-.21,1.29,1.29,0,0,0-.78.26,2.58,2.58,0,0,0-.63.68,5,5,0,0,0-.48,1,7,7,0,0,0-.32,1.12,1.45,1.45,0,0,0,.35.24,3.72,3.72,0,0,0,.54.22,5.2,5.2,0,0,0,.62.17,3.11,3.11,0,0,0,.61.07,3,3,0,0,0,.78-.09,1.62,1.62,0,0,0,.6-.29,1.26,1.26,0,0,0,.38-.51A2,2,0,0,0,92.36,13Z"/></g></g></svg>