<svg xmlns="http://www.w3.org/2000/svg" viewBox="0 0 814.58 320.01"><defs><style>.cls-1{fill:#f6c103;}</style></defs><title>نمكن لتعلم أفضل</title><g id="Layer_2" data-name="Layer 2"><g id="Layer_1-2" data-name="Layer 1"><path class="cls-1" d="M242.58,245.11a8.18,8.18,0,0,1-7.53-11.39,8.93,8.93,0,0,1,1.73-2.61,8.1,8.1,0,0,1,5.8-2.43,8,8,0,0,1,3.2.66,8.31,8.31,0,0,1,4.39,4.39,8.14,8.14,0,0,1,0,6.41,8,8,0,0,1-1.78,2.59,8.75,8.75,0,0,1-2.61,1.73A8,8,0,0,1,242.58,245.11Z"/><path class="cls-1" d="M242.58,229.17a7.44,7.44,0,0,1,3,.62,7.8,7.8,0,0,1,4.13,4.13,7.63,7.63,0,0,1,0,6,7.46,7.46,0,0,1-1.66,2.43,8.23,8.23,0,0,1-2.47,1.63,7.67,7.67,0,0,1-10.07-10.07,8.36,8.36,0,0,1,1.63-2.47,7.53,7.53,0,0,1,2.43-1.66,7.46,7.46,0,0,1,3-.62m0-1a8.6,8.6,0,0,0-6.15,2.58,9.4,9.4,0,0,0-1.83,2.76A8.67,8.67,0,0,0,246,244.9a9.27,9.27,0,0,0,2.76-1.83,8.62,8.62,0,0,0,1.89-9.56,8.8,8.8,0,0,0-4.65-4.65,8.44,8.44,0,0,0-3.4-.7Z"/><path class="cls-1" d="M356.33,245.11a8.17,8.17,0,0,1-7.52-11.39,8.83,8.83,0,0,1,1.73-2.61,8.08,8.08,0,0,1,5.79-2.43,8,8,0,0,1,3.21.66,8.3,8.3,0,0,1,4.39,4.39,8.14,8.14,0,0,1,0,6.41,8.16,8.16,0,0,1-1.77,2.59,8.85,8.85,0,0,1-2.62,1.73A8,8,0,0,1,356.33,245.11Z"/><path class="cls-1" d="M356.33,229.17a7.46,7.46,0,0,1,3,.62,7.8,7.8,0,0,1,4.13,4.13,7.63,7.63,0,0,1,0,6,7.6,7.6,0,0,1-1.66,2.43,8.28,8.28,0,0,1-2.47,1.63,7.61,7.61,0,0,1-10.69-7.07,7.38,7.38,0,0,1,.62-3,8.28,8.28,0,0,1,1.63-2.47,7.56,7.56,0,0,1,2.42-1.66,7.47,7.47,0,0,1,3-.62m0-1a8.58,8.58,0,0,0-6.15,2.58,9.31,9.31,0,0,0-1.83,2.76,8.67,8.67,0,0,0,11.39,11.39,9.31,9.31,0,0,0,2.76-1.83,8.63,8.63,0,0,0,1.89-2.75,8.63,8.63,0,0,0,0-6.81,8.8,8.8,0,0,0-4.65-4.65,8.49,8.49,0,0,0-3.41-.7Z"/><path class="cls-1" d="M211.64,319.44a44.48,44.48,0,0,1-6-.4,36.51,36.51,0,0,1-5.84-1.29,30.78,30.78,0,0,1-5.48-2.28,22.87,22.87,0,0,1-4.33-3,16.81,16.81,0,0,1-4.76,4.79,14.38,14.38,0,0,1-8.17,2.19h-17.9a35.8,35.8,0,0,1-12.82-2,30.18,30.18,0,0,1-8.27-4.71,15.29,15.29,0,0,1-4.64,4.63,14.5,14.5,0,0,1-8,2.07H46.09a14,14,0,0,1-2.11-.15,5,5,0,0,1-1.85-.65,3.4,3.4,0,0,1-1.31-1.48,5.71,5.71,0,0,1-.45-2.43v-5a3.79,3.79,0,0,1,1.53-3.39,7.61,7.61,0,0,1,4.19-1h76.65A3.66,3.66,0,0,0,126,303.6a10.93,10.93,0,0,0,1.26-5.88V214.32h14V301a23.91,23.91,0,0,0,7.45,3.26,43,43,0,0,0,10.6,1.15H174.4a3.66,3.66,0,0,0,3.24-1.81c.84-1.26,1.26-3.24,1.26-5.88V276.49h14v24a22.78,22.78,0,0,0,8.24,3.75,45.26,45.26,0,0,0,10.18,1.15,98.39,98.39,0,0,1,3.6-9.19,94.62,94.62,0,0,1,5.61-10.64,89.29,89.29,0,0,1,7.51-10.49,58.77,58.77,0,0,1,9.43-9.1,47.16,47.16,0,0,1,11.29-6.41,35.34,35.34,0,0,1,13.09-2.43,34.14,34.14,0,0,1,14.46,2.8,26.85,26.85,0,0,1,9.9,7.75,32.31,32.31,0,0,1,5.67,11.55,54.39,54.39,0,0,1,1.79,14.26V305.4h37a13.24,13.24,0,0,1-1.5-2.31,22.84,22.84,0,0,1-1.52-3.74,29.89,29.89,0,0,1-1-4.53,33,33,0,0,1-.37-5A30.63,30.63,0,0,1,328.56,278a30.15,30.15,0,0,1,6.31-9.58,29,29,0,0,1,9.56-6.41,31,31,0,0,1,12.09-2.32,30.51,30.51,0,0,1,11.43,2,23.58,23.58,0,0,1,8.56,5.85,25.55,25.55,0,0,1,5.36,9.35,39.17,39.17,0,0,1,1.84,12.4v30.13Zm143.17-46.15a15.36,15.36,0,0,0-6,1.19,15.09,15.09,0,0,0-4.87,3.3,15.25,15.25,0,0,0-3.26,5.09,17.61,17.61,0,0,0-1.2,6.59,16.14,16.14,0,0,0,1.3,6.54,14,14,0,0,0,3.67,5,17.23,17.23,0,0,0,5.85,3.24,24.81,24.81,0,0,0,7.88,1.17h11.53V292.28a29.33,29.33,0,0,0-1.24-9.19,15.51,15.51,0,0,0-3.29-5.83,11.61,11.61,0,0,0-4.72-3.06A17.43,17.43,0,0,0,354.81,273.29ZM279.68,305.4V295a37.5,37.5,0,0,0-1.53-11.58A19.77,19.77,0,0,0,274,276a14.51,14.51,0,0,0-6.1-3.92,24.17,24.17,0,0,0-7.59-1.17,23.85,23.85,0,0,0-8.45,1.53,31.65,31.65,0,0,0-7.63,4.17,42.37,42.37,0,0,0-6.62,6.12,56.8,56.8,0,0,0-5.49,7.4,63.35,63.35,0,0,0-4.24,8,55.19,55.19,0,0,0-2.63,7.27Z"/><path class="cls-1" d="M140.78,214.82v86.44a24.11,24.11,0,0,0,7.82,3.48,43.34,43.34,0,0,0,10.73,1.16H174.4a4.16,4.16,0,0,0,3.66-2q1.34-2,1.34-6.16V277h13v23.77a23.13,23.13,0,0,0,8.63,4,45.89,45.89,0,0,0,10.66,1.16,95.88,95.88,0,0,1,3.7-9.49A93.37,93.37,0,0,1,221,285.83a88.31,88.31,0,0,1,7.47-10.43,58.05,58.05,0,0,1,9.35-9A46.45,46.45,0,0,1,249,260a34.66,34.66,0,0,1,12.9-2.39,33.5,33.5,0,0,1,14.25,2.75,26.22,26.22,0,0,1,9.72,7.61,31.67,31.67,0,0,1,5.58,11.38,53.65,53.65,0,0,1,1.77,14.13V305.9h38.19v-.44a11.81,11.81,0,0,1-1.77-2.61,22.32,22.32,0,0,1-1.49-3.66,29.36,29.36,0,0,1-1-4.46,32.37,32.37,0,0,1-.36-4.93A30,30,0,0,1,329,278.19a29.53,29.53,0,0,1,6.21-9.42,28.39,28.39,0,0,1,9.39-6.3,30.39,30.39,0,0,1,11.9-2.29,29.87,29.87,0,0,1,11.24,2,23,23,0,0,1,8.38,5.72,25,25,0,0,1,5.25,9.17,38.48,38.48,0,0,1,1.82,12.25v29.63H211.64a43.73,43.73,0,0,1-5.9-.4,35.77,35.77,0,0,1-5.76-1.27,30.14,30.14,0,0,1-5.39-2.24,22.22,22.22,0,0,1-4.68-3.33,16.15,16.15,0,0,1-4.93,5.15,13.83,13.83,0,0,1-7.89,2.1h-17.9a35.15,35.15,0,0,1-12.64-2,29.14,29.14,0,0,1-8.58-5,14.63,14.63,0,0,1-4.79,5,14,14,0,0,1-7.76,2H46.09a13.41,13.41,0,0,1-2-.14,4.53,4.53,0,0,1-1.66-.58,2.9,2.9,0,0,1-1.12-1.27,5.21,5.21,0,0,1-.4-2.21v-5a3.31,3.31,0,0,1,1.31-3,7.12,7.12,0,0,1,3.91-.87h76.65a4.17,4.17,0,0,0,3.66-2q1.34-2,1.34-6.16V214.82h13m83.83,91.08h55.57V295a37.83,37.83,0,0,0-1.56-11.74,20.15,20.15,0,0,0-4.24-7.57,14.94,14.94,0,0,0-6.3-4.06,24.54,24.54,0,0,0-7.75-1.2,24.21,24.21,0,0,0-8.62,1.56,32,32,0,0,0-7.76,4.24,42.64,42.64,0,0,0-6.7,6.2,57,57,0,0,0-5.54,7.46,63.42,63.42,0,0,0-4.27,8.08,54.61,54.61,0,0,0-2.83,8m133.53,0h12V292.28a29.65,29.65,0,0,0-1.27-9.35,15.92,15.92,0,0,0-3.4-6,12,12,0,0,0-4.93-3.19,17.84,17.84,0,0,0-5.76-.94,15.78,15.78,0,0,0-6.23,1.23,15.52,15.52,0,0,0-5,3.41,15.69,15.69,0,0,0-3.37,5.25,18,18,0,0,0-1.23,6.78,16.57,16.57,0,0,0,1.34,6.74,14.47,14.47,0,0,0,3.81,5.18,17.65,17.65,0,0,0,6,3.33,25.19,25.19,0,0,0,8,1.2M141.78,213.82h-15v83.89a10.47,10.47,0,0,1-1.17,5.61,3.16,3.16,0,0,1-2.82,1.58H46.09a8,8,0,0,0-4.47,1,4.26,4.26,0,0,0-1.75,3.81v5a6.2,6.2,0,0,0,.49,2.64,3.9,3.9,0,0,0,1.52,1.7,5.53,5.53,0,0,0,2,.71,14.49,14.49,0,0,0,2.19.16h79.33a15,15,0,0,0,8.3-2.16,15.88,15.88,0,0,0,4.48-4.31,31.08,31.08,0,0,0,8,4.44,36.28,36.28,0,0,0,13,2h17.9a14.87,14.87,0,0,0,8.45-2.27,17.44,17.44,0,0,0,4.58-4.46,23.39,23.39,0,0,0,4,2.7,31.27,31.27,0,0,0,5.57,2.32,36.92,36.92,0,0,0,5.92,1.31,44.92,44.92,0,0,0,6,.41H384.22V289.31a39.66,39.66,0,0,0-1.87-12.56,26.06,26.06,0,0,0-5.47-9.53,24.06,24.06,0,0,0-8.74-6,31,31,0,0,0-11.62-2.07,31.54,31.54,0,0,0-12.29,2.36,29.52,29.52,0,0,0-9.72,6.52,30.67,30.67,0,0,0-6.41,9.74,31.14,31.14,0,0,0-2.32,12,33.52,33.52,0,0,0,.37,5.08,30.47,30.47,0,0,0,1,4.61,23.42,23.42,0,0,0,1.56,3.82,15.3,15.3,0,0,0,.94,1.58H294.22V293.51a54.9,54.9,0,0,0-1.81-14.39,32.8,32.8,0,0,0-5.76-11.73,27.33,27.33,0,0,0-10.08-7.9,34.63,34.63,0,0,0-14.67-2.85,35.82,35.82,0,0,0-13.27,2.46,47.67,47.67,0,0,0-11.41,6.48,59.31,59.31,0,0,0-9.51,9.17,89.75,89.75,0,0,0-7.55,10.55,94.87,94.87,0,0,0-5.64,10.7c-1.43,3.22-2.61,6.21-3.51,8.89a44.43,44.43,0,0,1-9.7-1.13,22.35,22.35,0,0,1-7.86-3.52V276h-15v21.72a10.43,10.43,0,0,1-1.18,5.61,3.16,3.16,0,0,1-2.82,1.58H159.33a42.56,42.56,0,0,1-10.48-1.13,23.56,23.56,0,0,1-7.07-3V213.82Zm84.15,91.08a55.69,55.69,0,0,1,2.42-6.57,62.76,62.76,0,0,1,4.21-8A56.23,56.23,0,0,1,238,283a41.83,41.83,0,0,1,6.54-6.05,31.13,31.13,0,0,1,7.51-4.1,23.34,23.34,0,0,1,8.27-1.49,23.67,23.67,0,0,1,7.44,1.14,14,14,0,0,1,5.89,3.79,19.27,19.27,0,0,1,4,7.21A37,37,0,0,1,279.18,295v9.94Zm132.22,0a24.31,24.31,0,0,1-7.72-1.14,16.73,16.73,0,0,1-5.68-3.14,13.55,13.55,0,0,1-3.55-4.83,15.65,15.65,0,0,1-1.25-6.34,17.13,17.13,0,0,1,1.16-6.4,14.77,14.77,0,0,1,3.15-4.92,14.59,14.59,0,0,1,4.71-3.19,14.85,14.85,0,0,1,5.84-1.15,16.92,16.92,0,0,1,5.44.89,11.11,11.11,0,0,1,4.52,2.93,15,15,0,0,1,3.18,5.64,28.83,28.83,0,0,1,1.21,9V304.9Z"/><path class="cls-1" d="M401.48,199.34v-7.09h7.34l-.39-.38a10.94,10.94,0,0,1-1.59-2.09,13.84,13.84,0,0,1-1.28-2.82,11.15,11.15,0,0,1-.54-3.56,9.78,9.78,0,0,1,.8-3.86,9.2,9.2,0,0,1,2.49-3.33,12.72,12.72,0,0,1,4.19-2.3,18.16,18.16,0,0,1,5.85-.86q1.25,0,2.67.07a25.57,25.57,0,0,1,3.14.37l.48.08-1.1,7.19-.53-.13a15.62,15.62,0,0,0-1.68-.28,20,20,0,0,0-2.47-.14,9.34,9.34,0,0,0-4.89,1.16,4,4,0,0,0-1.79,3.7,5.91,5.91,0,0,0,.61,2.54,6.81,6.81,0,0,0,1.82,2.29,9.88,9.88,0,0,0,3.14,1.69,14.14,14.14,0,0,0,4.59.66h2.6v7.09Z"/><path class="cls-1" d="M418.35,173.55q1.24,0,2.65.07a25.28,25.28,0,0,1,3.08.36l-.94,6.16a15.91,15.91,0,0,0-1.74-.29,20.37,20.37,0,0,0-2.53-.14,9.79,9.79,0,0,0-5.15,1.23,4.45,4.45,0,0,0-2,4.13,6.39,6.39,0,0,0,.65,2.75,7.26,7.26,0,0,0,2,2.46,10.33,10.33,0,0,0,3.29,1.77,14.57,14.57,0,0,0,4.75.69h2.1v6.09H402v-6.09h8.26a9.46,9.46,0,0,1-1.45-1.23,10.4,10.4,0,0,1-1.52-2,13.29,13.29,0,0,1-1.23-2.72,10.62,10.62,0,0,1-.51-3.4,9.23,9.23,0,0,1,.76-3.66,8.65,8.65,0,0,1,2.35-3.15,12.16,12.16,0,0,1,4-2.21,17.59,17.59,0,0,1,5.69-.83m0-1a18.65,18.65,0,0,0-6,.89,13.22,13.22,0,0,0-4.35,2.4,9.69,9.69,0,0,0-2.62,3.52,10.28,10.28,0,0,0-.85,4.06,11.66,11.66,0,0,0,.56,3.72,14.32,14.32,0,0,0,1.32,2.91,12.31,12.31,0,0,0,1.23,1.71H401v8.09h24.46v-8.09h-3.1a13.65,13.65,0,0,1-4.42-.63,9.39,9.39,0,0,1-3-1.6,6.23,6.23,0,0,1-1.69-2.12,5.41,5.41,0,0,1-.56-2.33,3.49,3.49,0,0,1,1.55-3.28,8.86,8.86,0,0,1,4.63-1.08,19.48,19.48,0,0,1,2.41.14,15.12,15.12,0,0,1,1.62.27l1.07.27.17-1.09.94-6.16.15-1-1-.17a26.08,26.08,0,0,0-3.2-.38c-1,0-1.88-.07-2.7-.07Z"/><rect class="cls-1" x="406.55" y="214.4" width="14.04" height="105.12"/><path class="cls-1" d="M420.09,214.9V319h-13V214.9h13m1-1h-15V320h15V213.9Z"/><circle class="cls-1" cx="8.86" cy="309.77" r="8.36"/><path class="cls-1" d="M8.86,301.92A7.86,7.86,0,1,1,1,309.77a7.86,7.86,0,0,1,7.86-7.86m0-1a8.86,8.86,0,1,0,8.86,8.86,8.87,8.87,0,0,0-8.86-8.86Z"/><path class="cls-1" d="M620.83,177.22a47.73,47.73,0,0,1-7.87-.62,46.86,46.86,0,0,1-7-1.72l-.43-.14,1.39-5.9.52.17a49.54,49.54,0,0,0,6.45,1.65,41.14,41.14,0,0,0,7.23.57,14.63,14.63,0,0,0,2.73-.28,16.94,16.94,0,0,0,2.13-.55,13.87,13.87,0,0,1-3.49-4.28,11.9,11.9,0,0,1-1.35-5.4,10.56,10.56,0,0,1,.83-4.22,11.07,11.07,0,0,1,2.24-3.37,10.18,10.18,0,0,1,3.24-2.25,9.65,9.65,0,0,1,3.89-.81,10,10,0,0,1,6.89,2.48c1.87,1.66,2.81,4.26,2.81,7.73A13,13,0,0,1,639,167.5a20.31,20.31,0,0,1-5.05,5.31,22.4,22.4,0,0,1-6.56,3.3A22,22,0,0,1,620.83,177.22Zm10.51-21.3a4.36,4.36,0,0,0-3.2,1.27,4.46,4.46,0,0,0-1.3,3.38,8.42,8.42,0,0,0,.9,3.59,11,11,0,0,0,3.25,3.69,13.6,13.6,0,0,0,3.09-3.07,7,7,0,0,0,1.32-4.2,4.41,4.41,0,0,0-1.28-3.47A4.08,4.08,0,0,0,631.33,155.92Z"/><path class="cls-1" d="M631.33,150.56a9.49,9.49,0,0,1,6.56,2.36q2.65,2.36,2.64,7.35a12.44,12.44,0,0,1-2,7,19.7,19.7,0,0,1-4.93,5.18,21.78,21.78,0,0,1-6.41,3.22,21.45,21.45,0,0,1-6.37,1.09,47,47,0,0,1-7.79-.62,46.26,46.26,0,0,1-6.92-1.7l1.16-4.93a49.78,49.78,0,0,0,6.52,1.67,41.45,41.45,0,0,0,7.32.58,15,15,0,0,0,2.82-.29,17.89,17.89,0,0,0,3-.87,13.81,13.81,0,0,1-4.06-4.68,11.35,11.35,0,0,1-1.3-5.18,10,10,0,0,1,.79-4,10.52,10.52,0,0,1,2.14-3.22,9.63,9.63,0,0,1,3.08-2.14,9.12,9.12,0,0,1,3.69-.76m-.36,17.9a14.13,14.13,0,0,0,3.51-3.4,7.47,7.47,0,0,0,1.41-4.49,4.91,4.91,0,0,0-1.44-3.84,4.6,4.6,0,0,0-3.12-1.3,4.88,4.88,0,0,0-3.55,1.41,5,5,0,0,0-1.45,3.73,8.89,8.89,0,0,0,.95,3.8,11.89,11.89,0,0,0,3.69,4.09m.36-18.9a10.14,10.14,0,0,0-4.09.85,10.68,10.68,0,0,0-3.4,2.36,11.57,11.57,0,0,0-2.34,3.52,11.05,11.05,0,0,0-.88,4.42,12.38,12.38,0,0,0,1.41,5.63,13.89,13.89,0,0,0,2.93,3.83q-.61.17-1.21.28a14.14,14.14,0,0,1-2.64.27,40.63,40.63,0,0,1-7.14-.56,49,49,0,0,1-6.39-1.63l-1-.34-.25,1.06-1.16,4.93-.21.89.87.29a47.48,47.48,0,0,0,7.07,1.74,48.2,48.2,0,0,0,8,.63,22.52,22.52,0,0,0,6.67-1.14,22.87,22.87,0,0,0,6.7-3.37,20.79,20.79,0,0,0,5.18-5.44,13.49,13.49,0,0,0,2.15-7.51c0-3.62-1-6.34-3-8.1a10.5,10.5,0,0,0-7.22-2.61ZM631,167.2a10.06,10.06,0,0,1-2.81-3.27,7.94,7.94,0,0,1-.85-3.38,4,4,0,0,1,1.15-3,3.88,3.88,0,0,1,2.85-1.13,3.61,3.61,0,0,1,2.45,1,3.94,3.94,0,0,1,1.11,3.1,6.44,6.44,0,0,1-1.22,3.91A13,13,0,0,1,631,167.2Z"/><path class="cls-1" d="M628.67,209.24a9.89,9.89,0,0,1-5-1.37,13,13,0,0,1-3.38-2.76,13.75,13.75,0,0,1-3.48,2.76,10.09,10.09,0,0,1-5.06,1.37,11.42,11.42,0,0,1-8.62-3.34,12.3,12.3,0,0,1-3.18-8.82V185.92h6.58v11.44a4.93,4.93,0,0,0,1.52,4,5.67,5.67,0,0,0,3.77,1.3,5.32,5.32,0,0,0,5.3-5.3v-9.85h6.21v9.85a5.32,5.32,0,0,0,5.3,5.3,5.68,5.68,0,0,0,3.78-1.3,4.94,4.94,0,0,0,1.52-4V185.85h6.58v11.22a13.35,13.35,0,0,1-.91,5,11.47,11.47,0,0,1-2.5,3.86,11.24,11.24,0,0,1-3.76,2.47A12.38,12.38,0,0,1,628.67,209.24Z"/><path class="cls-1" d="M640,186.35v10.72a12.77,12.77,0,0,1-.87,4.78,10.91,10.91,0,0,1-2.39,3.7,10.7,10.7,0,0,1-3.59,2.36,11.83,11.83,0,0,1-4.45.83,9.36,9.36,0,0,1-4.78-1.31,12.13,12.13,0,0,1-3.62-3.11,12.89,12.89,0,0,1-3.73,3.11,9.55,9.55,0,0,1-4.82,1.31,10.89,10.89,0,0,1-8.26-3.19,11.77,11.77,0,0,1-3-8.48V186.42H606v10.94a5.38,5.38,0,0,0,1.7,4.38,6.2,6.2,0,0,0,4.09,1.41,5.82,5.82,0,0,0,5.8-5.8V188h5.21v9.35a5.82,5.82,0,0,0,5.8,5.8,6.21,6.21,0,0,0,4.1-1.41,5.38,5.38,0,0,0,1.7-4.38v-11H640m1-1h-7.58v12a4.41,4.41,0,0,1-1.34,3.62,5.19,5.19,0,0,1-3.46,1.18,4.82,4.82,0,0,1-4.8-4.8V187h-7.21v10.35a4.82,4.82,0,0,1-4.8,4.8,5.19,5.19,0,0,1-3.45-1.18,4.41,4.41,0,0,1-1.34-3.61V185.42h-7.58v11.65a12.78,12.78,0,0,0,3.32,9.17,11.9,11.9,0,0,0,9,3.5A10.58,10.58,0,0,0,617,208.3a14.55,14.55,0,0,0,3.22-2.46,13.78,13.78,0,0,0,3.14,2.45,10.38,10.38,0,0,0,5.28,1.44,12.88,12.88,0,0,0,4.83-.9,11.74,11.74,0,0,0,3.92-2.58,12,12,0,0,0,2.61-4,13.83,13.83,0,0,0,.94-5.15V185.35Z"/><path class="cls-1" d="M765.25,244.45a8.17,8.17,0,0,1-7.52-11.39,8.63,8.63,0,0,1,1.73-2.61,8.12,8.12,0,0,1,9-1.77,8.35,8.35,0,0,1,4.39,4.39,8.1,8.1,0,0,1-1.78,9,8.81,8.81,0,0,1-2.61,1.73A8,8,0,0,1,765.25,244.45Z"/><path class="cls-1" d="M765.25,228.52a7.46,7.46,0,0,1,3,.62,7.84,7.84,0,0,1,4.13,4.13,7.68,7.68,0,0,1,0,6,7.61,7.61,0,0,1-1.67,2.43,8.32,8.32,0,0,1-2.46,1.63,7.61,7.61,0,0,1-10.69-7.07,7.38,7.38,0,0,1,.62-3,8.12,8.12,0,0,1,1.63-2.47,7.58,7.58,0,0,1,5.43-2.28m0-1a8.58,8.58,0,0,0-6.15,2.59,9.14,9.14,0,0,0-1.83,2.77,8.61,8.61,0,0,0,8,12.08,8.48,8.48,0,0,0,3.41-.7,9.34,9.34,0,0,0,2.76-1.83,8.55,8.55,0,0,0,2.59-6.16,8.54,8.54,0,0,0-.69-3.4,8.84,8.84,0,0,0-4.65-4.65,8.49,8.49,0,0,0-3.41-.7Z"/><path class="cls-1" d="M744.6,244.45a8.18,8.18,0,0,1-7.53-11.39,8.84,8.84,0,0,1,1.73-2.61,8.13,8.13,0,0,1,9-1.78,8.36,8.36,0,0,1,4.39,4.39,8.1,8.1,0,0,1-1.78,9,8.81,8.81,0,0,1-2.6,1.73A8,8,0,0,1,744.6,244.45Z"/><path class="cls-1" d="M744.6,228.52a7.49,7.49,0,0,1,3,.62,7.85,7.85,0,0,1,4.13,4.13,7.6,7.6,0,0,1-1.67,8.44,8.3,8.3,0,0,1-2.46,1.63,7.68,7.68,0,0,1-10.07-10.07,8.28,8.28,0,0,1,1.63-2.47,7.6,7.6,0,0,1,5.44-2.28m0-1a8.6,8.6,0,0,0-6.15,2.59,9.31,9.31,0,0,0-1.83,2.76A8.68,8.68,0,0,0,748,244.25a9.33,9.33,0,0,0,2.75-1.83,8.61,8.61,0,0,0,1.89-9.56,8.85,8.85,0,0,0-4.64-4.65,8.52,8.52,0,0,0-3.41-.7Z"/><path class="cls-1" d="M548.61,319.51a38.54,38.54,0,0,1-8.92-1A40.31,40.31,0,0,1,532.2,316a32.86,32.86,0,0,1-6-3.5,29.81,29.81,0,0,1-3.84-3.35,24.41,24.41,0,0,1-3,4.23,15.46,15.46,0,0,1-3.81,3.18,15.25,15.25,0,0,1-4.53,1.73,26.56,26.56,0,0,1-5.46.52H469.46a13.72,13.72,0,0,1-2.11-.15,5.08,5.08,0,0,1-1.85-.65,3.37,3.37,0,0,1-1.31-1.48,5.65,5.65,0,0,1-.45-2.42v-5a3.8,3.8,0,0,1,1.53-3.39,7.5,7.5,0,0,1,4.19-1H503.4a15.06,15.06,0,0,0,7.75-2,10,10,0,0,0,4.52-6.26A85.15,85.15,0,0,1,520.41,283a58.21,58.21,0,0,1,5.52-9.65,34.5,34.5,0,0,1,5.92-6.47,29.77,29.77,0,0,1,6-3.87,22.74,22.74,0,0,1,5.67-1.89,28.83,28.83,0,0,1,5-.48,27.53,27.53,0,0,1,9,1.4,26.12,26.12,0,0,1,7.24,3.8,28,28,0,0,1,5.53,5.57,35.69,35.69,0,0,1,3.89,6.58,33.83,33.83,0,0,1,2.28,7,33.11,33.11,0,0,1,.73,6.7,28.1,28.1,0,0,1-1.36,8.29,23.59,23.59,0,0,0,7.55,3.51,41.92,41.92,0,0,0,11,1.25h15.22a3.67,3.67,0,0,0,3.24-1.81,10.93,10.93,0,0,0,1.26-5.88V227.61h14v72.74a23.91,23.91,0,0,0,7.45,3.26,43.12,43.12,0,0,0,10.6,1.15H657c2.63,0,5.12-.11,7.42-.33s4.36-.48,6.16-.79a29.79,29.79,0,0,0,4.45-1.07,11.19,11.19,0,0,0,1.91-.81,40,40,0,0,1-5.71-5.37c-2-2.29-3.92-4.61-5.63-6.88s-3.31-4.44-4.72-6.46a49.18,49.18,0,0,0-3.37-4.41l-.17-.18,0-.24a34.66,34.66,0,0,1,.88-3.49c.39-1.27.82-2.55,1.28-3.8a24.86,24.86,0,0,1,1.48-3.29,5.18,5.18,0,0,1,1.66-2c1.55-.85,3.39-1.73,5.5-2.64a57.86,57.86,0,0,1,7.2-2.52,77.44,77.44,0,0,1,8.68-1.9,62.42,62.42,0,0,1,10-.77,42.77,42.77,0,0,1,8,.77,31.28,31.28,0,0,1,7.36,2.32,16.45,16.45,0,0,1,5.49,4,8.66,8.66,0,0,1,2.19,5.87,30.7,30.7,0,0,1-2.83,12.48,55,55,0,0,1-5,8.67,75.44,75.44,0,0,1-8.21,9.77,23.44,23.44,0,0,0,3.39,1.09c1.63.41,3.44.76,5.39,1s4.12.52,6.34.69,4.6.25,7,.25H743.8a3.66,3.66,0,0,0,3.24-1.81,10.93,10.93,0,0,0,1.26-5.88V261.85h14v38.64a23.36,23.36,0,0,0,7.33,3.15,43.69,43.69,0,0,0,10.5,1.11H800V213.67h14V318.79H780a35.24,35.24,0,0,1-12.71-2,31.27,31.27,0,0,1-8.24-4.65,16.54,16.54,0,0,1-4.67,4.56,14.16,14.16,0,0,1-7.92,2.08h-27.1a59.92,59.92,0,0,1-11-1,74.87,74.87,0,0,1-9.16-2.26,54.2,54.2,0,0,1-7.09-2.78c-1.85-.9-3.34-1.68-4.43-2.33-1.94,1.08-4,2.11-6.24,3.07a62.23,62.23,0,0,1-7.52,2.7,67,67,0,0,1-8.5,1.86,61.09,61.09,0,0,1-9.32.69H646a35.81,35.81,0,0,1-12.82-2,30.22,30.22,0,0,1-8.27-4.71,15.34,15.34,0,0,1-4.65,4.63,14.49,14.49,0,0,1-8,2.07h-18a41.5,41.5,0,0,1-8.18-.74,30.92,30.92,0,0,1-6.52-2,26.49,26.49,0,0,1-5.17-3,32.14,32.14,0,0,1-3.73-3.3,28.83,28.83,0,0,1-8.67,6.9A28.21,28.21,0,0,1,548.61,319.51Zm-21.06-19.91a8.59,8.59,0,0,0,2.53,1.83,30,30,0,0,0,4.81,2,46.32,46.32,0,0,0,5.88,1.47,32.94,32.94,0,0,0,6,.57,44,44,0,0,0,7.42-.57,16.48,16.48,0,0,0,5.59-1.93,9,9,0,0,0,3.47-3.67,13.34,13.34,0,0,0,1.21-6.08A23.22,23.22,0,0,0,560.48,281a17.89,17.89,0,0,0-5.11-5,13.26,13.26,0,0,0-7.34-2,13.61,13.61,0,0,0-7.45,2.17,22.64,22.64,0,0,0-6.06,5.77,35.46,35.46,0,0,0-4.43,8.26A47.5,47.5,0,0,0,527.55,299.61Zm142.54-25.06c.62,1.11,1.53,2.54,2.72,4.26a75.13,75.13,0,0,0,4.78,6.11c1.8,2.09,3.77,4.17,5.84,6.16a38.79,38.79,0,0,0,5.75,4.66,32.25,32.25,0,0,0,5.77-4.45,44.48,44.48,0,0,0,4.59-5.16,25.41,25.41,0,0,0,2.88-4.76,9.32,9.32,0,0,0,1-3.53,4.75,4.75,0,0,0-.92-2.75,8.92,8.92,0,0,0-2.82-2.47,17,17,0,0,0-4.61-1.79,26.14,26.14,0,0,0-6.23-.67,42.32,42.32,0,0,0-8.81,1A52.77,52.77,0,0,0,670.09,274.54Z"/><path class="cls-1" d="M813.58,214.17V318.29H780a34.61,34.61,0,0,1-12.53-2,30.19,30.19,0,0,1-8.53-4.93,15.86,15.86,0,0,1-4.83,4.89,13.61,13.61,0,0,1-7.65,2h-27.1a59.13,59.13,0,0,1-10.9-.94,74.07,74.07,0,0,1-9.1-2.25,53.46,53.46,0,0,1-7-2.75q-3-1.44-4.64-2.46-3,1.67-6.45,3.19a61.48,61.48,0,0,1-7.46,2.68,66.19,66.19,0,0,1-8.44,1.85,60.29,60.29,0,0,1-9.24.69H646a35.15,35.15,0,0,1-12.64-2,29.17,29.17,0,0,1-8.57-5,14.69,14.69,0,0,1-4.79,5,13.93,13.93,0,0,1-7.76,2h-18a40.8,40.8,0,0,1-8.08-.73,30.27,30.27,0,0,1-6.41-2,26,26,0,0,1-5.07-3,31.08,31.08,0,0,1-4.06-3.66,28,28,0,0,1-8.88,7.21A27.59,27.59,0,0,1,548.61,319a37.91,37.91,0,0,1-8.8-1,39.59,39.59,0,0,1-7.39-2.5,32.22,32.22,0,0,1-5.86-3.44,27.87,27.87,0,0,1-4.24-3.8,24.74,24.74,0,0,1-3.23,4.74,14.89,14.89,0,0,1-3.69,3.08,14.68,14.68,0,0,1-4.38,1.67,25.92,25.92,0,0,1-5.36.51H469.46a13.36,13.36,0,0,1-2-.14,4.58,4.58,0,0,1-1.67-.58,2.86,2.86,0,0,1-1.12-1.27,5.14,5.14,0,0,1-.4-2.21v-5a3.31,3.31,0,0,1,1.31-3,7.11,7.11,0,0,1,3.91-.87H503.4a15.49,15.49,0,0,0,8-2.07,10.39,10.39,0,0,0,4.75-6.56,84.33,84.33,0,0,1,4.71-13.37,57.58,57.58,0,0,1,5.47-9.56,33.92,33.92,0,0,1,5.83-6.38,29.11,29.11,0,0,1,5.87-3.8,22.11,22.11,0,0,1,5.54-1.85,28.21,28.21,0,0,1,4.89-.47,26.93,26.93,0,0,1,8.84,1.38,25.49,25.49,0,0,1,7.11,3.73,27.31,27.31,0,0,1,5.43,5.47,35,35,0,0,1,3.84,6.48,33.13,33.13,0,0,1,2.25,6.85,32.5,32.5,0,0,1,.72,6.59,27.74,27.74,0,0,1-1.44,8.48,23.81,23.81,0,0,0,8,3.8,42.18,42.18,0,0,0,11.13,1.27h15.22a4.17,4.17,0,0,0,3.66-2q1.34-2,1.34-6.16V228.11h13v72.5a24.14,24.14,0,0,0,7.82,3.48,43.39,43.39,0,0,0,10.73,1.16H657q4,0,7.46-.33t6.2-.79a30.59,30.59,0,0,0,4.53-1.09,8.69,8.69,0,0,0,2.61-1.27,38.54,38.54,0,0,1-6.2-5.72q-3-3.4-5.61-6.85t-4.71-6.45a49.32,49.32,0,0,0-3.4-4.46,34,34,0,0,1,.87-3.44q.58-1.92,1.27-3.77a24.35,24.35,0,0,1,1.45-3.22,4.77,4.77,0,0,1,1.48-1.81q2.25-1.23,5.44-2.61a57.28,57.28,0,0,1,7.13-2.5,76.54,76.54,0,0,1,8.62-1.88,61.61,61.61,0,0,1,9.89-.76,42.06,42.06,0,0,1,7.89.76,30.63,30.63,0,0,1,7.24,2.28,15.87,15.87,0,0,1,5.33,3.88,8.14,8.14,0,0,1,2.07,5.54A30.19,30.19,0,0,1,713.77,283a54.28,54.28,0,0,1-4.93,8.59,76.29,76.29,0,0,1-8.66,10.21,21.8,21.8,0,0,0,4.13,1.42c1.64.41,3.45.76,5.44,1.05s4.11.52,6.37.69,4.61.25,7,.25H743.8a4.17,4.17,0,0,0,3.66-2q1.34-2,1.34-6.16V262.35h13v38.4a23.57,23.57,0,0,0,7.71,3.37,44,44,0,0,0,10.62,1.12h20.36V214.17h13M689.17,296.33a32.65,32.65,0,0,0,6.13-4.68,44.71,44.71,0,0,0,4.64-5.22,25.79,25.79,0,0,0,2.93-4.85,9.74,9.74,0,0,0,1-3.73,5.22,5.22,0,0,0-1-3,9.35,9.35,0,0,0-3-2.61,17.45,17.45,0,0,0-4.74-1.85,26.55,26.55,0,0,0-6.34-.69,42.61,42.61,0,0,0-8.91,1,53.74,53.74,0,0,0-10.5,3.59,46.39,46.39,0,0,0,3,4.79,75.09,75.09,0,0,0,4.82,6.15q2.75,3.19,5.87,6.2a38.48,38.48,0,0,0,6.08,4.89M546.73,306a44.23,44.23,0,0,0,7.5-.58,16.88,16.88,0,0,0,5.76-2,9.49,9.49,0,0,0,3.66-3.87,13.76,13.76,0,0,0,1.27-6.31,23.71,23.71,0,0,0-4-12.53,18.31,18.31,0,0,0-5.25-5.11,13.69,13.69,0,0,0-7.61-2.07,14,14,0,0,0-7.72,2.25,23.06,23.06,0,0,0-6.19,5.9,35.75,35.75,0,0,0-4.49,8.37,47.76,47.76,0,0,0-2.61,9.71,8.27,8.27,0,0,0,2.83,2.14,30.41,30.41,0,0,0,4.89,2,46.56,46.56,0,0,0,5.94,1.49,33.28,33.28,0,0,0,6,.58m267.85-92.8h-15v91.08H780.18a43.19,43.19,0,0,1-10.38-1.09,23,23,0,0,1-7-2.93V261.35h-15v35.71a10.47,10.47,0,0,1-1.17,5.61,3.16,3.16,0,0,1-2.82,1.58H723.15c-2.38,0-4.72-.08-7-.25s-4.33-.39-6.3-.68-3.73-.63-5.34-1a25.17,25.17,0,0,1-2.63-.8,74.47,74.47,0,0,0,7.74-9.3,55.49,55.49,0,0,0,5-8.75,31.19,31.19,0,0,0,2.87-12.68,9.15,9.15,0,0,0-2.31-6.2,16.94,16.94,0,0,0-5.66-4.12,31.76,31.76,0,0,0-7.48-2.36,43.26,43.26,0,0,0-8.08-.78,62.92,62.92,0,0,0-10.05.77,77.91,77.91,0,0,0-8.73,1.91,58.53,58.53,0,0,0-7.26,2.55c-2.11.91-4,1.8-5.52,2.65a5.62,5.62,0,0,0-1.88,2.21,25.43,25.43,0,0,0-1.51,3.36c-.46,1.26-.9,2.54-1.29,3.83a35.07,35.07,0,0,0-.9,3.54l-.09.49.33.37a48.72,48.72,0,0,1,3.33,4.36c1.42,2,3,4.2,4.74,6.48s3.63,4.61,5.66,6.9a41.27,41.27,0,0,0,5.15,4.95c-.31.14-.68.28-1.13.43a29.83,29.83,0,0,1-4.38,1.05c-1.79.31-3.85.57-6.12.78s-4.76.33-7.37.33H646.14a42.63,42.63,0,0,1-10.48-1.13,23.58,23.58,0,0,1-7.07-3v-73h-15v69.95a10.47,10.47,0,0,1-1.17,5.61,3.17,3.17,0,0,1-2.82,1.58H594.33A41.41,41.41,0,0,1,583.47,303a23.29,23.29,0,0,1-7.1-3.23,28.33,28.33,0,0,0,1.28-8.09,33.63,33.63,0,0,0-.74-6.8,34.3,34.3,0,0,0-2.31-7.06,36.17,36.17,0,0,0-3.95-6.67A28.43,28.43,0,0,0,565,265.5a26.61,26.61,0,0,0-7.38-3.88,28,28,0,0,0-9.16-1.43,29.34,29.34,0,0,0-5.07.48,23.24,23.24,0,0,0-5.8,1.93,30.28,30.28,0,0,0-6.08,3.93,35.07,35.07,0,0,0-6,6.57,58.81,58.81,0,0,0-5.57,9.73,85.73,85.73,0,0,0-4.77,13.52,9.35,9.35,0,0,1-4.29,6,14.57,14.57,0,0,1-7.5,1.93H469.46a8,8,0,0,0-4.47,1,4.26,4.26,0,0,0-1.75,3.81v5a6,6,0,0,0,.5,2.64,3.86,3.86,0,0,0,1.51,1.69,5.59,5.59,0,0,0,2,.71,14.46,14.46,0,0,0,2.19.16h36.18a27,27,0,0,0,5.57-.53,15.74,15.74,0,0,0,4.68-1.78,15.94,15.94,0,0,0,3.94-3.28,24.09,24.09,0,0,0,2.68-3.73,31.57,31.57,0,0,0,3.44,2.93,33.37,33.37,0,0,0,6,3.55,40.77,40.77,0,0,0,7.58,2.57,39.07,39.07,0,0,0,9,1,28.69,28.69,0,0,0,13.55-3,29.52,29.52,0,0,0,8.46-6.6,32.94,32.94,0,0,0,3.4,3,27.06,27.06,0,0,0,5.26,3.09,31.4,31.4,0,0,0,6.62,2.06,42,42,0,0,0,8.28.75h18a15,15,0,0,0,8.3-2.16,15.93,15.93,0,0,0,4.49-4.31,31.11,31.11,0,0,0,8,4.44,36.29,36.29,0,0,0,13,2h10.14a61.63,61.63,0,0,0,9.4-.7,67.48,67.48,0,0,0,8.57-1.87,62.71,62.71,0,0,0,7.58-2.73c2.12-.93,4.15-1.92,6-3,1.08.63,2.47,1.36,4.22,2.21a54.73,54.73,0,0,0,7.16,2.81,75.44,75.44,0,0,0,9.22,2.28,60.42,60.42,0,0,0,11.09,1h27.1a14.64,14.64,0,0,0,8.2-2.16,17.12,17.12,0,0,0,4.5-4.26,32.18,32.18,0,0,0,7.95,4.39,35.73,35.73,0,0,0,12.9,2h34.55V213.17ZM670.8,274.78a51.44,51.44,0,0,1,9.31-3.08,41.8,41.8,0,0,1,8.7-1,25.68,25.68,0,0,1,6.1.66,16.55,16.55,0,0,1,4.47,1.74,8.41,8.41,0,0,1,2.66,2.32,4.26,4.26,0,0,1,.83,2.47,8.87,8.87,0,0,1-.93,3.32,24.89,24.89,0,0,1-2.82,4.66,44,44,0,0,1-4.53,5.1,31.65,31.65,0,0,1-5.41,4.21,38.79,38.79,0,0,1-5.41-4.43c-2.06-2-4-4-5.81-6.13a74.51,74.51,0,0,1-4.75-6.07c-1-1.47-1.83-2.72-2.42-3.74ZM528.08,299.45a47,47,0,0,1,2.48-9.06,34.94,34.94,0,0,1,4.37-8.14,22.15,22.15,0,0,1,5.92-5.65,13.11,13.11,0,0,1,7.18-2.09,12.76,12.76,0,0,1,7.06,1.9,17.4,17.4,0,0,1,5,4.83,22.72,22.72,0,0,1,3.85,12,12.86,12.86,0,0,1-1.16,5.85,8.54,8.54,0,0,1-3.28,3.47,16,16,0,0,1-5.42,1.87,43.46,43.46,0,0,1-7.33.56,32.44,32.44,0,0,1-5.87-.56A45.81,45.81,0,0,1,535,303a29.55,29.55,0,0,1-4.73-2,9,9,0,0,1-2.24-1.54Z"/><path class="cls-1" d="M556.72,42a8.05,8.05,0,0,1-8.18-8.18,8,8,0,0,1,.66-3.21A8.82,8.82,0,0,1,550.93,28a8.12,8.12,0,0,1,9-1.78A8.41,8.41,0,0,1,562.55,28a8.6,8.6,0,0,1,1.77,2.62,8.15,8.15,0,0,1,0,6.42,8.16,8.16,0,0,1-1.77,2.58,8.7,8.7,0,0,1-2.62,1.73A7.88,7.88,0,0,1,556.72,42Z"/><path class="cls-1" d="M556.72,26.08a7.44,7.44,0,0,1,3,.62,7.87,7.87,0,0,1,2.47,1.66,8,8,0,0,1,1.66,2.46,7.64,7.64,0,0,1,0,6,7.58,7.58,0,0,1-1.66,2.42,8.15,8.15,0,0,1-2.47,1.63A7.61,7.61,0,0,1,549,33.83a7.47,7.47,0,0,1,.62-3,8.26,8.26,0,0,1,1.63-2.46,7.58,7.58,0,0,1,5.43-2.28m0-1a8.58,8.58,0,0,0-6.15,2.59,9.3,9.3,0,0,0-1.83,2.76,8.61,8.61,0,0,0,8,12.09,8.39,8.39,0,0,0,3.41-.7A9.19,9.19,0,0,0,562.89,40a8.62,8.62,0,0,0,1.88-2.74,8.64,8.64,0,0,0,0-6.82,9.09,9.09,0,0,0-1.87-2.77,8.92,8.92,0,0,0-2.78-1.88,8.45,8.45,0,0,0-3.41-.7Z"/><path class="cls-1" d="M805.82,27.45a8.06,8.06,0,0,1-8.18-8.18,8,8,0,0,1,.66-3.2A8.91,8.91,0,0,1,800,13.45,8.1,8.1,0,0,1,805.82,11a8,8,0,0,1,3.21.66,8.3,8.3,0,0,1,4.39,4.39,8.11,8.11,0,0,1-1.78,9A8.77,8.77,0,0,1,809,26.79,8,8,0,0,1,805.82,27.45Z"/><path class="cls-1" d="M805.82,11.52a7.44,7.44,0,0,1,3,.62A7.8,7.8,0,0,1,813,16.26a7.63,7.63,0,0,1,0,6,7.53,7.53,0,0,1-1.66,2.43,8.23,8.23,0,0,1-2.47,1.63,7.61,7.61,0,0,1-10.69-7.07,7.45,7.45,0,0,1,.62-3,8.36,8.36,0,0,1,1.63-2.47,7.53,7.53,0,0,1,2.43-1.66,7.45,7.45,0,0,1,3-.62m0-1a8.6,8.6,0,0,0-6.15,2.59,9.4,9.4,0,0,0-1.83,2.76,8.48,8.48,0,0,0-.7,3.41,8.67,8.67,0,0,0,12.09,8A9.26,9.26,0,0,0,812,25.42a8.62,8.62,0,0,0,1.89-9.56,8.8,8.8,0,0,0-4.65-4.65,8.45,8.45,0,0,0-3.4-.7Z"/><path class="cls-1" d="M546.95,132.87a46.94,46.94,0,0,1-18.05-3.19,36.71,36.71,0,0,1-12.74-8.56,35,35,0,0,1-7.57-12.38A43.76,43.76,0,0,1,506.09,94a46.69,46.69,0,0,1,.63-7.51A67.85,67.85,0,0,1,508.37,79a53,53,0,0,1,2.46-7A42.11,42.11,0,0,1,514,66.1l.25-.4,11.91,6.64-.27.44a28,28,0,0,0-2.06,4.17,37.92,37.92,0,0,0-1.57,4.9,47.15,47.15,0,0,0-1,5.27,39.26,39.26,0,0,0-.36,5.26,30.34,30.34,0,0,0,1.78,10.44,24,24,0,0,0,5.21,8.45,24.66,24.66,0,0,0,8.51,5.68A30.38,30.38,0,0,0,548,119a35,35,0,0,0,12.56-2.1,25,25,0,0,0,9.23-6,26.45,26.45,0,0,0,5.75-9.64,39.22,39.22,0,0,0,2-12.95,44,44,0,0,0-.36-5c-.24-2-.58-4.1-1-6.3s-1-4.48-1.66-6.69a46.63,46.63,0,0,0-2.29-6.17l-.25-.53,13.83-3.91.16.43c.53,1.45,1.07,3.1,1.61,4.88s1,3.69,1.49,5.64.89,4,1.27,6,.66,4,.86,5.88a21.8,21.8,0,0,0,7.74,3.84,42.33,42.33,0,0,0,11.2,1.29h22.39a47.13,47.13,0,0,0,8.35-.61,14.35,14.35,0,0,0,5-1.74,6,6,0,0,0,2.42-2.67A9.4,9.4,0,0,0,649,79,13.79,13.79,0,0,0,647,72.23a31.55,31.55,0,0,0-5.53-6.92,67.2,67.2,0,0,0-8.55-6.9c-3.31-2.28-7-4.57-10.91-6.83l-.44-.25L651,.72,661.36,8,639.27,46.62a72.73,72.73,0,0,1,8.85,6.24,46.21,46.21,0,0,1,7.29,7.51,34.12,34.12,0,0,1,4.74,8.42,25.92,25.92,0,0,1,1.7,9.31,28.64,28.64,0,0,1-.45,5.28,23.9,23.9,0,0,0,7.43,3.22,43.09,43.09,0,0,0,10.56,1.15h4a15.06,15.06,0,0,0,7.75-2,10,10,0,0,0,4.52-6.26A85.39,85.39,0,0,1,700.39,66a58.23,58.23,0,0,1,5.52-9.65,34.53,34.53,0,0,1,5.92-6.47,29.74,29.74,0,0,1,6-3.87,22.74,22.74,0,0,1,5.67-1.89,28.83,28.83,0,0,1,5-.48,27.53,27.53,0,0,1,9,1.4,26.12,26.12,0,0,1,7.24,3.8,28,28,0,0,1,5.53,5.57A35.73,35.73,0,0,1,754.12,61a33.75,33.75,0,0,1,2.28,7,33.17,33.17,0,0,1,.73,6.7A28.1,28.1,0,0,1,755.77,83a23.59,23.59,0,0,0,7.55,3.51,41.93,41.93,0,0,0,11,1.25h23.92v-43h14v57h-38.1a41.46,41.46,0,0,1-8.18-.74,30.9,30.9,0,0,1-6.52-2,26.51,26.51,0,0,1-5.17-3,32,32,0,0,1-3.73-3.3,28.85,28.85,0,0,1-8.67,6.9,28.22,28.22,0,0,1-13.31,2.92,38.56,38.56,0,0,1-8.92-1A40.23,40.23,0,0,1,712.18,99a32.82,32.82,0,0,1-6-3.5,29.81,29.81,0,0,1-3.84-3.35,24.39,24.39,0,0,1-3,4.23,15.43,15.43,0,0,1-3.81,3.18,15.25,15.25,0,0,1-4.53,1.73,26.56,26.56,0,0,1-5.46.52h-6.38a43,43,0,0,1-7.66-.62,30.74,30.74,0,0,1-6.19-1.77,27.44,27.44,0,0,1-5-2.66,31.57,31.57,0,0,1-3.66-2.91,21.28,21.28,0,0,1-8.56,5.79,39.22,39.22,0,0,1-14,2.17H610a37.91,37.91,0,0,1-11.57-1.54,28.94,28.94,0,0,1-7.54-3.64,46.6,46.6,0,0,1-4.29,14.19,38.28,38.28,0,0,1-8.92,11.74,39.55,39.55,0,0,1-13.28,7.63A52.78,52.78,0,0,1,546.95,132.87ZM707.53,82.61a8.6,8.6,0,0,0,2.53,1.83,30.09,30.09,0,0,0,4.81,2,46.32,46.32,0,0,0,5.88,1.47,32.94,32.94,0,0,0,6,.57,44,44,0,0,0,7.42-.57A16.48,16.48,0,0,0,739.71,86a9,9,0,0,0,3.47-3.67,13.34,13.34,0,0,0,1.21-6.08A23.22,23.22,0,0,0,740.46,64a17.9,17.9,0,0,0-5.11-5A13.26,13.26,0,0,0,728,57a13.6,13.6,0,0,0-7.45,2.17A22.65,22.65,0,0,0,714.5,65a35.44,35.44,0,0,0-4.43,8.26A47.5,47.5,0,0,0,707.53,82.61Z"/><path class="cls-1" d="M651.21,1.44l9.49,6.67L638.6,46.8a72.13,72.13,0,0,1,9.2,6.45A45.49,45.49,0,0,1,655,60.68a33.48,33.48,0,0,1,4.67,8.3,25.29,25.29,0,0,1,1.66,9.13,27.44,27.44,0,0,1-.51,5.51,24.09,24.09,0,0,0,7.87,3.48,43.41,43.41,0,0,0,10.69,1.16h4a15.49,15.49,0,0,0,8-2.07,10.39,10.39,0,0,0,4.75-6.56,84.33,84.33,0,0,1,4.71-13.37,57.58,57.58,0,0,1,5.47-9.56,33.92,33.92,0,0,1,5.83-6.38,29.11,29.11,0,0,1,5.87-3.8,22.11,22.11,0,0,1,5.54-1.85,28.21,28.21,0,0,1,4.89-.47,26.93,26.93,0,0,1,8.84,1.38,25.49,25.49,0,0,1,7.11,3.73,27.31,27.31,0,0,1,5.43,5.47,35,35,0,0,1,3.84,6.48,33.12,33.12,0,0,1,2.25,6.85,32.49,32.49,0,0,1,.72,6.59,27.74,27.74,0,0,1-1.44,8.48,23.8,23.8,0,0,0,8,3.8,42.18,42.18,0,0,0,11.13,1.27h24.42v-43h13v56h-37.6a40.8,40.8,0,0,1-8.08-.73,30.27,30.27,0,0,1-6.41-2,26,26,0,0,1-5.07-3,31.09,31.09,0,0,1-4.06-3.66,28,28,0,0,1-8.88,7.21A27.59,27.59,0,0,1,728.59,102a37.91,37.91,0,0,1-8.8-1,39.59,39.59,0,0,1-7.39-2.5,32.22,32.22,0,0,1-5.86-3.44,27.87,27.87,0,0,1-4.24-3.8A24.74,24.74,0,0,1,699.06,96a14.89,14.89,0,0,1-3.69,3.08,14.68,14.68,0,0,1-4.38,1.67,25.92,25.92,0,0,1-5.36.51h-6.38a42.36,42.36,0,0,1-7.57-.62,30.12,30.12,0,0,1-6.09-1.74,26.79,26.79,0,0,1-4.89-2.61,30.73,30.73,0,0,1-4-3.22,20.47,20.47,0,0,1-8.7,6,38.57,38.57,0,0,1-13.84,2.14H610a37.22,37.22,0,0,1-11.41-1.52,27.69,27.69,0,0,1-8.08-4.06,46.18,46.18,0,0,1-4.35,14.86,37.6,37.6,0,0,1-8.8,11.59,38.88,38.88,0,0,1-13.11,7.54,52,52,0,0,1-17.28,2.68,46.23,46.23,0,0,1-17.86-3.15,36.05,36.05,0,0,1-12.57-8.44,34.37,34.37,0,0,1-7.46-12.21A43.08,43.08,0,0,1,506.59,94a46,46,0,0,1,.62-7.43,67.21,67.21,0,0,1,1.64-7.46,52.29,52.29,0,0,1,2.44-6.92,41.41,41.41,0,0,1,3.1-5.87l11,6.15a28.32,28.32,0,0,0-2.1,4.24,38.31,38.31,0,0,0-1.59,5,47.85,47.85,0,0,0-1,5.33,39.65,39.65,0,0,0-.36,5.32A30.7,30.7,0,0,0,522.16,103a24.36,24.36,0,0,0,5.32,8.62,25,25,0,0,0,8.68,5.8A30.73,30.73,0,0,0,548,119.54a35.32,35.32,0,0,0,12.74-2.14,25.32,25.32,0,0,0,9.41-6.16,26.83,26.83,0,0,0,5.86-9.82,39.54,39.54,0,0,0,2-13.11,44.51,44.51,0,0,0-.36-5q-.37-3-1-6.34T575,70.21A47,47,0,0,0,572.67,64l12.82-3.62q.8,2.17,1.6,4.85t1.48,5.61q.69,2.94,1.27,6t.87,6a22.1,22.1,0,0,0,8.08,4.06,42.62,42.62,0,0,0,11.34,1.31h22.39a47.44,47.44,0,0,0,8.44-.62,14.78,14.78,0,0,0,5.18-1.81,6.45,6.45,0,0,0,2.61-2.9,9.86,9.86,0,0,0,.73-3.88,14.22,14.22,0,0,0-2-7.06,31.89,31.89,0,0,0-5.62-7,67.42,67.42,0,0,0-8.62-7q-5-3.44-10.94-6.85l28.91-49.7M726.7,89a44.23,44.23,0,0,0,7.5-.58,16.88,16.88,0,0,0,5.76-2,9.49,9.49,0,0,0,3.66-3.87,13.76,13.76,0,0,0,1.27-6.31,23.71,23.71,0,0,0-4-12.53,18.31,18.31,0,0,0-5.25-5.11A13.69,13.69,0,0,0,728,56.51a14,14,0,0,0-7.72,2.25,23.06,23.06,0,0,0-6.19,5.9A35.75,35.75,0,0,0,709.61,73,47.75,47.75,0,0,0,707,82.74a8.27,8.27,0,0,0,2.83,2.14,30.41,30.41,0,0,0,4.89,2,46.56,46.56,0,0,0,5.94,1.49,33.28,33.28,0,0,0,6,.58M650.89,0l-.55.94-28.91,49.7-.51.87.87.5c3.92,2.25,7.58,4.54,10.87,6.8a66.74,66.74,0,0,1,8.49,6.85,31.06,31.06,0,0,1,5.44,6.8A13.31,13.31,0,0,1,648.47,79a8.91,8.91,0,0,1-.65,3.49A5.43,5.43,0,0,1,645.6,85a13.89,13.89,0,0,1-4.83,1.67,46.69,46.69,0,0,1-8.26.6H610.13A41.84,41.84,0,0,1,599.06,86a21.39,21.39,0,0,1-7.4-3.62c-.19-1.86-.48-3.78-.84-5.71s-.81-4.08-1.28-6.06-1-3.87-1.5-5.67S587,61.47,586.43,60l-.32-.87-.89.25L572.39,63l-1.13.32.49,1.06a46.3,46.3,0,0,1,2.27,6.1c.65,2.2,1.21,4.43,1.65,6.64s.76,4.3,1,6.27a43.23,43.23,0,0,1,.36,4.91,38.73,38.73,0,0,1-2,12.78,26,26,0,0,1-5.64,9.46,24.45,24.45,0,0,1-9,5.92A34.49,34.49,0,0,1,548,118.54a29.88,29.88,0,0,1-11.45-2.06,24.16,24.16,0,0,1-8.34-5.56,23.47,23.47,0,0,1-5.11-8.27,29.85,29.85,0,0,1-1.75-10.27,38.77,38.77,0,0,1,.35-5.19,47,47,0,0,1,1-5.22,37.54,37.54,0,0,1,1.55-4.83,27.46,27.46,0,0,1,2-4.09l.54-.89-.91-.51-11-6.16L514,65l-.51.79a42.59,42.59,0,0,0-3.17,6,53.49,53.49,0,0,0-2.48,7.05,68.52,68.52,0,0,0-1.66,7.57,47.25,47.25,0,0,0-.63,7.59,44.26,44.26,0,0,0,2.52,14.86,35.52,35.52,0,0,0,7.68,12.56,37.21,37.21,0,0,0,12.91,8.68,47.44,47.44,0,0,0,18.24,3.23,53.29,53.29,0,0,0,17.61-2.73A40,40,0,0,0,578,122.9a38.77,38.77,0,0,0,9-11.9,46.82,46.82,0,0,0,4.22-13.55,30,30,0,0,0,7,3.26A38.39,38.39,0,0,0,610,102.29h24.2a39.71,39.71,0,0,0,14.2-2.21,22,22,0,0,0,8.41-5.54,32.3,32.3,0,0,0,3.34,2.61,27.93,27.93,0,0,0,5.07,2.71,31.27,31.27,0,0,0,6.29,1.8,43.52,43.52,0,0,0,7.75.63h6.38a27,27,0,0,0,5.57-.53,15.74,15.74,0,0,0,4.68-1.78,15.94,15.94,0,0,0,3.94-3.28A24.1,24.1,0,0,0,702.49,93a31.57,31.57,0,0,0,3.44,2.93,33.37,33.37,0,0,0,6,3.55,40.77,40.77,0,0,0,7.58,2.57,39.07,39.07,0,0,0,9,1,28.7,28.7,0,0,0,13.55-3,29.53,29.53,0,0,0,8.46-6.6,33,33,0,0,0,3.4,3,27.07,27.07,0,0,0,5.27,3.09,31.41,31.41,0,0,0,6.62,2.06,42,42,0,0,0,8.28.75h38.6v-58h-15v43H774.31A41.41,41.41,0,0,1,763.45,86a23.29,23.29,0,0,1-7.1-3.23,28.33,28.33,0,0,0,1.28-8.09,33.62,33.62,0,0,0-.74-6.8,34.29,34.29,0,0,0-2.31-7.06,36.18,36.18,0,0,0-3.95-6.67A28.43,28.43,0,0,0,745,48.5a26.62,26.62,0,0,0-7.38-3.88,28,28,0,0,0-9.16-1.43,29.35,29.35,0,0,0-5.07.48,23.25,23.25,0,0,0-5.8,1.93,30.28,30.28,0,0,0-6.08,3.93,35.07,35.07,0,0,0-6,6.57,58.82,58.82,0,0,0-5.57,9.73,85.74,85.74,0,0,0-4.77,13.52,9.35,9.35,0,0,1-4.29,6,14.57,14.57,0,0,1-7.5,1.93h-4A42.61,42.61,0,0,1,669,86.12a23.65,23.65,0,0,1-7-3,29.6,29.6,0,0,0,.4-5,26.39,26.39,0,0,0-1.73-9.49,34.62,34.62,0,0,0-4.81-8.54,46.71,46.71,0,0,0-7.37-7.59,73,73,0,0,0-8.49-6L661.57,8.61l.45-.79-.75-.52L651.78.63,650.89,0Zm57.17,82.45a47,47,0,0,1,2.48-9.06,34.94,34.94,0,0,1,4.37-8.14,22.15,22.15,0,0,1,5.92-5.65A13.11,13.11,0,0,1,728,57.51a12.76,12.76,0,0,1,7.06,1.9,17.39,17.39,0,0,1,5,4.83,22.72,22.72,0,0,1,3.85,12,12.86,12.86,0,0,1-1.16,5.85,8.54,8.54,0,0,1-3.28,3.47A16,16,0,0,1,734,87.41a43.46,43.46,0,0,1-7.33.56,32.44,32.44,0,0,1-5.87-.56A45.78,45.78,0,0,1,715,86a29.56,29.56,0,0,1-4.73-2,9,9,0,0,1-2.24-1.54Z"/></g></g></svg>